M48
;DRILL file {KiCad 4.0.1-stable} date 18.01.2016 18:42:29
;FORMAT={-:-/ absolute / metric / decimal}
FMAT,2
METRIC,TZ
T1C0.400
T2C1.016
T3C1.600
T4C1.800
T5C3.100
T6C2.000
%
G90
G05
M71
T1
X36.Y-17.
X36.Y-24.
X36.Y-31.
X36.Y-38.
X36.Y-46.
X36.Y-53.
X36.Y-60.
X36.Y-67.
X47.2Y-64.6
X48.75Y-40.75
X49.5Y-40.
X49.75Y-52.
X50.25Y-39.25
X50.6Y-28.4
X51.Y-38.5
X53.Y-36.5
X53.Y-45.
X53.75Y-35.75
X53.75Y-45.75
X57.25Y-34.25
X58.982Y-32.436
X62.801Y-38.728
X63.Y-40.
T2
X54.475Y-50.145
X54.475Y-52.685
X54.475Y-55.225
X57.015Y-50.145
X57.015Y-52.685
X57.015Y-55.225
X65.2Y-23.55
X65.2Y-26.09
X65.2Y-28.63
X65.2Y-31.17
X65.2Y-33.71
X65.2Y-36.25
X65.2Y-38.79
X65.2Y-41.33
X65.2Y-43.87
X65.2Y-46.41
X65.2Y-48.95
X67.74Y-23.55
X67.74Y-26.09
X67.74Y-28.63
X67.74Y-31.17
X67.74Y-33.71
X67.74Y-36.25
X67.74Y-38.79
X67.74Y-41.33
X67.74Y-43.87
X67.74Y-46.41
X67.74Y-48.95
T3
X11.Y-17.
X11.Y-20.8
X11.Y-31.1
X11.Y-34.9
X11.Y-46.
X11.Y-49.8
X11.Y-60.
X11.Y-63.8
T4
X3.5Y-15.9
X3.5Y-21.9
X3.5Y-30.
X3.5Y-36.
X3.5Y-44.9
X3.5Y-50.9
X3.5Y-58.9
X3.5Y-64.9
T5
X5.2Y-5.2
X5.2Y-79.2
X65.2Y-5.2
X65.2Y-79.2
T6
X7.Y-16.4
X7.Y-21.4
X7.Y-30.5
X7.Y-35.5
X7.Y-45.4
X7.Y-50.4
X7.Y-59.4
X7.Y-64.4
T0
M30
