G04 #@! TF.FileFunction,Soldermask,Bot*
%FSLAX46Y46*%
G04 Gerber Fmt 4.6, Leading zero omitted, Abs format (unit mm)*
G04 Created by KiCad (PCBNEW 4.0.1-stable) date 18.01.2016 18:42:26*
%MOMM*%
G01*
G04 APERTURE LIST*
%ADD10C,0.100000*%
%ADD11R,2.127200X2.127200*%
%ADD12O,2.127200X2.127200*%
%ADD13C,6.400000*%
%ADD14C,3.400000*%
%ADD15C,2.400000*%
%ADD16C,3.900000*%
%ADD17R,2.432000X2.127200*%
%ADD18O,2.432000X2.127200*%
%ADD19C,1.200000*%
G04 APERTURE END LIST*
D10*
D11*
X65200000Y-48950000D03*
D12*
X67740000Y-48950000D03*
X65200000Y-46410000D03*
X67740000Y-46410000D03*
X65200000Y-43870000D03*
X67740000Y-43870000D03*
X65200000Y-41330000D03*
X67740000Y-41330000D03*
X65200000Y-38790000D03*
X67740000Y-38790000D03*
X65200000Y-36250000D03*
X67740000Y-36250000D03*
X65200000Y-33710000D03*
X67740000Y-33710000D03*
X65200000Y-31170000D03*
X67740000Y-31170000D03*
X65200000Y-28630000D03*
X67740000Y-28630000D03*
X65200000Y-26090000D03*
X67740000Y-26090000D03*
X65200000Y-23550000D03*
X67740000Y-23550000D03*
D13*
X5200000Y-79200000D03*
X65200000Y-79200000D03*
X65200000Y-5200000D03*
D14*
X11000000Y-17000000D03*
X11000000Y-20800000D03*
D15*
X7000000Y-16400000D03*
X7000000Y-21400000D03*
D16*
X3500000Y-15900000D03*
X3500000Y-21900000D03*
D14*
X11000000Y-31100000D03*
X11000000Y-34900000D03*
D15*
X7000000Y-30500000D03*
X7000000Y-35500000D03*
D16*
X3500000Y-30000000D03*
X3500000Y-36000000D03*
D14*
X11000000Y-46000000D03*
X11000000Y-49800000D03*
D15*
X7000000Y-45400000D03*
X7000000Y-50400000D03*
D16*
X3500000Y-44900000D03*
X3500000Y-50900000D03*
D14*
X11000000Y-60000000D03*
X11000000Y-63800000D03*
D15*
X7000000Y-59400000D03*
X7000000Y-64400000D03*
D16*
X3500000Y-58900000D03*
X3500000Y-64900000D03*
D13*
X5200000Y-5200000D03*
D17*
X57015000Y-55225001D03*
D18*
X57015000Y-52685001D03*
X57015000Y-50145001D03*
D17*
X54475000Y-55225001D03*
D18*
X54475000Y-52685001D03*
X54475000Y-50145001D03*
D19*
X49750000Y-52000000D03*
X47200000Y-64600000D03*
X50600000Y-28400000D03*
X57250000Y-34250000D03*
X63000000Y-40000000D03*
X53750000Y-35750000D03*
X36000000Y-67000000D03*
X53000000Y-36500000D03*
X36000000Y-60000000D03*
X51000000Y-38500000D03*
X36000000Y-53000000D03*
X50250000Y-39250000D03*
X36000000Y-46000000D03*
X49500000Y-40000000D03*
X36000000Y-38000000D03*
X48750000Y-40750000D03*
X36000000Y-31000000D03*
X53000000Y-45000000D03*
X36000000Y-24000000D03*
X53750000Y-45750000D03*
X36000000Y-17000000D03*
X62800916Y-38728370D03*
X58981873Y-32435634D03*
M02*
