G04 #@! TF.FileFunction,Soldermask,Top*
%FSLAX46Y46*%
G04 Gerber Fmt 4.6, Leading zero omitted, Abs format (unit mm)*
G04 Created by KiCad (PCBNEW 4.0.0-rc1-stable) date 10.06.2016 15:53:23*
%MOMM*%
G01*
G04 APERTURE LIST*
%ADD10C,0.100000*%
%ADD11R,1.650000X1.400000*%
%ADD12R,1.200100X1.200100*%
%ADD13R,1.700000X1.100000*%
%ADD14R,1.100000X1.700000*%
%ADD15R,2.127200X2.127200*%
%ADD16O,2.127200X2.127200*%
%ADD17C,6.400000*%
%ADD18R,1.000000X1.900000*%
%ADD19R,1.500000X0.800000*%
%ADD20R,2.800000X6.860000*%
%ADD21R,1.400000X1.650000*%
%ADD22R,2.432000X2.127200*%
%ADD23O,2.432000X2.127200*%
%ADD24R,1.050000X2.100000*%
%ADD25C,3.400000*%
%ADD26C,2.400000*%
%ADD27C,3.900000*%
%ADD28C,1.200000*%
G04 APERTURE END LIST*
D10*
D11*
X49750000Y-54000000D03*
X49750000Y-56000000D03*
D12*
X66950000Y-56999240D03*
X65050000Y-56999240D03*
X66000000Y-58998220D03*
D13*
X29000000Y-37450000D03*
X29000000Y-35550000D03*
D11*
X47200000Y-64600000D03*
X47200000Y-62600000D03*
D14*
X65050000Y-54500000D03*
X66950000Y-54500000D03*
D15*
X65200000Y-48950000D03*
D16*
X67740000Y-48950000D03*
X65200000Y-46410000D03*
X67740000Y-46410000D03*
X65200000Y-43870000D03*
X67740000Y-43870000D03*
X65200000Y-41330000D03*
X67740000Y-41330000D03*
X65200000Y-38790000D03*
X67740000Y-38790000D03*
X65200000Y-36250000D03*
X67740000Y-36250000D03*
X65200000Y-33710000D03*
X67740000Y-33710000D03*
X65200000Y-31170000D03*
X67740000Y-31170000D03*
X65200000Y-28630000D03*
X67740000Y-28630000D03*
X65200000Y-26090000D03*
X67740000Y-26090000D03*
X65200000Y-23550000D03*
X67740000Y-23550000D03*
D17*
X5200000Y-79200000D03*
X65200000Y-79200000D03*
X65200000Y-5200000D03*
D14*
X60000000Y-49000000D03*
X61900000Y-49000000D03*
D11*
X50500000Y-42500000D03*
X50500000Y-44500000D03*
D18*
X47310000Y-23300000D03*
X46040000Y-23300000D03*
X44770000Y-23300000D03*
X43500000Y-23300000D03*
X42230000Y-23300000D03*
X40960000Y-23300000D03*
X39690000Y-23300000D03*
X39690000Y-28700000D03*
X40960000Y-28700000D03*
X42230000Y-28700000D03*
X43500000Y-28700000D03*
X44770000Y-28700000D03*
X46040000Y-28700000D03*
X47310000Y-28700000D03*
X46810000Y-52300000D03*
X45540000Y-52300000D03*
X44270000Y-52300000D03*
X43000000Y-52300000D03*
X41730000Y-52300000D03*
X40460000Y-52300000D03*
X39190000Y-52300000D03*
X39190000Y-57700000D03*
X40460000Y-57700000D03*
X41730000Y-57700000D03*
X43000000Y-57700000D03*
X44270000Y-57700000D03*
X45540000Y-57700000D03*
X46810000Y-57700000D03*
D19*
X61850000Y-45225000D03*
X61850000Y-44575000D03*
X61850000Y-43925000D03*
X61850000Y-43275000D03*
X61850000Y-42625000D03*
X61850000Y-41975000D03*
X61850000Y-41325000D03*
X61850000Y-40675000D03*
X61850000Y-40025000D03*
X61850000Y-39375000D03*
X61850000Y-38725000D03*
X61850000Y-38075000D03*
X61850000Y-37425000D03*
X61850000Y-36775000D03*
X56150000Y-36775000D03*
X56150000Y-37425000D03*
X56150000Y-38075000D03*
X56150000Y-38725000D03*
X56150000Y-39375000D03*
X56150000Y-40025000D03*
X56150000Y-40675000D03*
X56150000Y-41325000D03*
X56150000Y-41975000D03*
X56150000Y-42625000D03*
X56150000Y-43275000D03*
X56150000Y-43925000D03*
X56150000Y-44575000D03*
X56150000Y-45225000D03*
D20*
X59000000Y-41000000D03*
D21*
X24000000Y-31000000D03*
X26000000Y-31000000D03*
D11*
X49750000Y-25000000D03*
X49750000Y-27000000D03*
X56400000Y-62600000D03*
X56400000Y-64600000D03*
D21*
X32000000Y-14000000D03*
X34000000Y-14000000D03*
X32000000Y-21000000D03*
X34000000Y-21000000D03*
X32000000Y-28000000D03*
X34000000Y-28000000D03*
X32000000Y-35000000D03*
X34000000Y-35000000D03*
X24000000Y-17000000D03*
X26000000Y-17000000D03*
X24000000Y-24000000D03*
X26000000Y-24000000D03*
X24000000Y-38000000D03*
X26000000Y-38000000D03*
X16000000Y-17000000D03*
X18000000Y-17000000D03*
X16000000Y-24000000D03*
X18000000Y-24000000D03*
X16000000Y-31000000D03*
X18000000Y-31000000D03*
X16000000Y-38000000D03*
X18000000Y-38000000D03*
X32000000Y-43000000D03*
X34000000Y-43000000D03*
X32000000Y-50000000D03*
X34000000Y-50000000D03*
X32000000Y-57000000D03*
X34000000Y-57000000D03*
X32000000Y-64000000D03*
X34000000Y-64000000D03*
X24000000Y-46000000D03*
X26000000Y-46000000D03*
X24000000Y-53000000D03*
X26000000Y-53000000D03*
X24000000Y-60000000D03*
X26000000Y-60000000D03*
X24000000Y-67000000D03*
X26000000Y-67000000D03*
X16000000Y-46000000D03*
X18000000Y-46000000D03*
X16000000Y-53000000D03*
X18000000Y-53000000D03*
X16000000Y-60000000D03*
X18000000Y-60000000D03*
X16000000Y-67000000D03*
X18000000Y-67000000D03*
D11*
X61500000Y-51250000D03*
X61500000Y-53250000D03*
D10*
G36*
X50868719Y-33964555D02*
X52035445Y-35131281D01*
X51045495Y-36121231D01*
X49878769Y-34954505D01*
X50868719Y-33964555D01*
X50868719Y-33964555D01*
G37*
G36*
X49454505Y-35378769D02*
X50621231Y-36545495D01*
X49631281Y-37535445D01*
X48464555Y-36368719D01*
X49454505Y-35378769D01*
X49454505Y-35378769D01*
G37*
D14*
X58050000Y-34250000D03*
X59950000Y-34250000D03*
X32050000Y-17000000D03*
X33950000Y-17000000D03*
X32050000Y-24000000D03*
X33950000Y-24000000D03*
X32050000Y-31000000D03*
X33950000Y-31000000D03*
X32050000Y-38000000D03*
X33950000Y-38000000D03*
X25950000Y-14000000D03*
X24050000Y-14000000D03*
X25950000Y-21000000D03*
X24050000Y-21000000D03*
X25950000Y-28000000D03*
X24050000Y-28000000D03*
X25950000Y-35000000D03*
X24050000Y-35000000D03*
D13*
X29000000Y-16450000D03*
X29000000Y-14550000D03*
X29000000Y-23450000D03*
X29000000Y-21550000D03*
X29000000Y-30450000D03*
X29000000Y-28550000D03*
D14*
X20050000Y-17000000D03*
X21950000Y-17000000D03*
X20050000Y-24000000D03*
X21950000Y-24000000D03*
X20050000Y-31000000D03*
X21950000Y-31000000D03*
X20050000Y-38000000D03*
X21950000Y-38000000D03*
X17950000Y-14000000D03*
X16050000Y-14000000D03*
X17950000Y-21000000D03*
X16050000Y-21000000D03*
X17950000Y-28000000D03*
X16050000Y-28000000D03*
X17950000Y-35000000D03*
X16050000Y-35000000D03*
X32050000Y-46000000D03*
X33950000Y-46000000D03*
X32050000Y-53000000D03*
X33950000Y-53000000D03*
X32050000Y-60000000D03*
X33950000Y-60000000D03*
X32050000Y-67000000D03*
X33950000Y-67000000D03*
X25950000Y-43000000D03*
X24050000Y-43000000D03*
X25950000Y-50000000D03*
X24050000Y-50000000D03*
X25950000Y-57000000D03*
X24050000Y-57000000D03*
X25950000Y-64000000D03*
X24050000Y-64000000D03*
D13*
X29000000Y-45450000D03*
X29000000Y-43550000D03*
X29000000Y-52450000D03*
X29000000Y-50550000D03*
X29000000Y-59450000D03*
X29000000Y-57550000D03*
X29000000Y-66450000D03*
X29000000Y-64550000D03*
D14*
X20050000Y-46000000D03*
X21950000Y-46000000D03*
X20050000Y-53000000D03*
X21950000Y-53000000D03*
X20050000Y-60000000D03*
X21950000Y-60000000D03*
X20050000Y-67000000D03*
X21950000Y-67000000D03*
X17950000Y-43000000D03*
X16050000Y-43000000D03*
X17950000Y-50000000D03*
X16050000Y-50000000D03*
X17950000Y-57000000D03*
X16050000Y-57000000D03*
X17950000Y-64000000D03*
X16050000Y-64000000D03*
D17*
X5200000Y-5200000D03*
D22*
X57015000Y-55225001D03*
D23*
X57015000Y-52685001D03*
X57015000Y-50145001D03*
D22*
X54475000Y-55225001D03*
D23*
X54475000Y-52685001D03*
X54475000Y-50145001D03*
D24*
X53705000Y-59950000D03*
X52435000Y-59950000D03*
X51165000Y-59950000D03*
X49895000Y-59950000D03*
X49895000Y-67250000D03*
X51165000Y-67250000D03*
X52435000Y-67250000D03*
X53705000Y-67250000D03*
D25*
X11000000Y-17000000D03*
X11000000Y-20800000D03*
D26*
X7000000Y-16400000D03*
X7000000Y-21400000D03*
D27*
X3500000Y-15900000D03*
X3500000Y-21900000D03*
D25*
X11000000Y-31100000D03*
X11000000Y-34900000D03*
D26*
X7000000Y-30500000D03*
X7000000Y-35500000D03*
D27*
X3500000Y-30000000D03*
X3500000Y-36000000D03*
D25*
X11000000Y-46000000D03*
X11000000Y-49800000D03*
D26*
X7000000Y-45400000D03*
X7000000Y-50400000D03*
D27*
X3500000Y-44900000D03*
X3500000Y-50900000D03*
D25*
X11000000Y-60000000D03*
X11000000Y-63800000D03*
D26*
X7000000Y-59400000D03*
X7000000Y-64400000D03*
D27*
X3500000Y-58900000D03*
X3500000Y-64900000D03*
D28*
X49750000Y-52000000D03*
X47200000Y-64600000D03*
X50600000Y-28400000D03*
X57250000Y-34250000D03*
X63000000Y-40000000D03*
X53750000Y-35750000D03*
X36000000Y-67000000D03*
X53000000Y-36500000D03*
X36000000Y-60000000D03*
X51000000Y-38500000D03*
X36000000Y-53000000D03*
X50250000Y-39250000D03*
X36000000Y-46000000D03*
X49500000Y-40000000D03*
X36000000Y-38000000D03*
X48750000Y-40750000D03*
X36000000Y-31000000D03*
X53000000Y-45000000D03*
X36000000Y-24000000D03*
X53750000Y-45750000D03*
X36000000Y-17000000D03*
X62800916Y-38728370D03*
X58981873Y-32435634D03*
M02*
