G04 #@! TF.FileFunction,Copper,L2,Bot,Signal*
%FSLAX46Y46*%
G04 Gerber Fmt 4.6, Leading zero omitted, Abs format (unit mm)*
G04 Created by KiCad (PCBNEW 4.0.1-stable) date 18.01.2016 18:42:26*
%MOMM*%
G01*
G04 APERTURE LIST*
%ADD10C,0.100000*%
%ADD11C,0.300000*%
%ADD12C,0.381000*%
%ADD13R,1.727200X1.727200*%
%ADD14O,1.727200X1.727200*%
%ADD15C,6.000000*%
%ADD16C,3.000000*%
%ADD17C,3.500000*%
%ADD18R,2.032000X1.727200*%
%ADD19O,2.032000X1.727200*%
%ADD20C,0.800000*%
%ADD21C,0.250000*%
G04 APERTURE END LIST*
D10*
D11*
X59478570Y-74850000D02*
X58764284Y-74850000D01*
X59621427Y-75278571D02*
X59121427Y-73778571D01*
X58621427Y-75278571D01*
X57907141Y-75278571D02*
X58049999Y-75207143D01*
X58121427Y-75064286D01*
X58121427Y-73778571D01*
X56764285Y-75207143D02*
X56907142Y-75278571D01*
X57192856Y-75278571D01*
X57335713Y-75207143D01*
X57407142Y-75064286D01*
X57407142Y-74492857D01*
X57335713Y-74350000D01*
X57192856Y-74278571D01*
X56907142Y-74278571D01*
X56764285Y-74350000D01*
X56692856Y-74492857D01*
X56692856Y-74635714D01*
X57407142Y-74778571D01*
X56192856Y-75278571D02*
X55407142Y-74278571D01*
X56192856Y-74278571D02*
X55407142Y-75278571D01*
X54192856Y-75278571D02*
X54192856Y-74492857D01*
X54264285Y-74350000D01*
X54407142Y-74278571D01*
X54692856Y-74278571D01*
X54835713Y-74350000D01*
X54192856Y-75207143D02*
X54335713Y-75278571D01*
X54692856Y-75278571D01*
X54835713Y-75207143D01*
X54907142Y-75064286D01*
X54907142Y-74921429D01*
X54835713Y-74778571D01*
X54692856Y-74707143D01*
X54335713Y-74707143D01*
X54192856Y-74635714D01*
X53478570Y-74278571D02*
X53478570Y-75278571D01*
X53478570Y-74421429D02*
X53407142Y-74350000D01*
X53264284Y-74278571D01*
X53049999Y-74278571D01*
X52907142Y-74350000D01*
X52835713Y-74492857D01*
X52835713Y-75278571D01*
X51478570Y-75278571D02*
X51478570Y-73778571D01*
X51478570Y-75207143D02*
X51621427Y-75278571D01*
X51907141Y-75278571D01*
X52049999Y-75207143D01*
X52121427Y-75135714D01*
X52192856Y-74992857D01*
X52192856Y-74564286D01*
X52121427Y-74421429D01*
X52049999Y-74350000D01*
X51907141Y-74278571D01*
X51621427Y-74278571D01*
X51478570Y-74350000D01*
X50192856Y-75207143D02*
X50335713Y-75278571D01*
X50621427Y-75278571D01*
X50764284Y-75207143D01*
X50835713Y-75064286D01*
X50835713Y-74492857D01*
X50764284Y-74350000D01*
X50621427Y-74278571D01*
X50335713Y-74278571D01*
X50192856Y-74350000D01*
X50121427Y-74492857D01*
X50121427Y-74635714D01*
X50835713Y-74778571D01*
X49478570Y-75278571D02*
X49478570Y-74278571D01*
X49478570Y-74564286D02*
X49407142Y-74421429D01*
X49335713Y-74350000D01*
X49192856Y-74278571D01*
X49049999Y-74278571D01*
X47478571Y-75207143D02*
X47264285Y-75278571D01*
X46907142Y-75278571D01*
X46764285Y-75207143D01*
X46692856Y-75135714D01*
X46621428Y-74992857D01*
X46621428Y-74850000D01*
X46692856Y-74707143D01*
X46764285Y-74635714D01*
X46907142Y-74564286D01*
X47192856Y-74492857D01*
X47335714Y-74421429D01*
X47407142Y-74350000D01*
X47478571Y-74207143D01*
X47478571Y-74064286D01*
X47407142Y-73921429D01*
X47335714Y-73850000D01*
X47192856Y-73778571D01*
X46835714Y-73778571D01*
X46621428Y-73850000D01*
X45335714Y-75207143D02*
X45478571Y-75278571D01*
X45764285Y-75278571D01*
X45907143Y-75207143D01*
X45978571Y-75135714D01*
X46050000Y-74992857D01*
X46050000Y-74564286D01*
X45978571Y-74421429D01*
X45907143Y-74350000D01*
X45764285Y-74278571D01*
X45478571Y-74278571D01*
X45335714Y-74350000D01*
X44692857Y-75278571D02*
X44692857Y-73778571D01*
X44050000Y-75278571D02*
X44050000Y-74492857D01*
X44121429Y-74350000D01*
X44264286Y-74278571D01*
X44478571Y-74278571D01*
X44621429Y-74350000D01*
X44692857Y-74421429D01*
X43335714Y-75278571D02*
X43335714Y-74278571D01*
X43335714Y-74564286D02*
X43264286Y-74421429D01*
X43192857Y-74350000D01*
X43050000Y-74278571D01*
X42907143Y-74278571D01*
X42192857Y-75278571D02*
X42335715Y-75207143D01*
X42407143Y-75135714D01*
X42478572Y-74992857D01*
X42478572Y-74564286D01*
X42407143Y-74421429D01*
X42335715Y-74350000D01*
X42192857Y-74278571D01*
X41978572Y-74278571D01*
X41835715Y-74350000D01*
X41764286Y-74421429D01*
X41692857Y-74564286D01*
X41692857Y-74992857D01*
X41764286Y-75135714D01*
X41835715Y-75207143D01*
X41978572Y-75278571D01*
X42192857Y-75278571D01*
X42335715Y-73778571D02*
X42264286Y-73850000D01*
X42335715Y-73921429D01*
X42407143Y-73850000D01*
X42335715Y-73778571D01*
X42335715Y-73921429D01*
X41764286Y-73778571D02*
X41692857Y-73850000D01*
X41764286Y-73921429D01*
X41835715Y-73850000D01*
X41764286Y-73778571D01*
X41764286Y-73921429D01*
X40407143Y-75278571D02*
X40407143Y-73778571D01*
X40407143Y-75207143D02*
X40550000Y-75278571D01*
X40835714Y-75278571D01*
X40978572Y-75207143D01*
X41050000Y-75135714D01*
X41121429Y-74992857D01*
X41121429Y-74564286D01*
X41050000Y-74421429D01*
X40978572Y-74350000D01*
X40835714Y-74278571D01*
X40550000Y-74278571D01*
X40407143Y-74350000D01*
X39121429Y-75207143D02*
X39264286Y-75278571D01*
X39550000Y-75278571D01*
X39692857Y-75207143D01*
X39764286Y-75064286D01*
X39764286Y-74492857D01*
X39692857Y-74350000D01*
X39550000Y-74278571D01*
X39264286Y-74278571D01*
X39121429Y-74350000D01*
X39050000Y-74492857D01*
X39050000Y-74635714D01*
X39764286Y-74778571D01*
X38407143Y-75278571D02*
X38407143Y-74278571D01*
X38407143Y-74564286D02*
X38335715Y-74421429D01*
X38264286Y-74350000D01*
X38121429Y-74278571D01*
X37978572Y-74278571D01*
X54228570Y-76321429D02*
X54157141Y-76250000D01*
X54014284Y-76178571D01*
X53657141Y-76178571D01*
X53514284Y-76250000D01*
X53442855Y-76321429D01*
X53371427Y-76464286D01*
X53371427Y-76607143D01*
X53442855Y-76821429D01*
X54299998Y-77678571D01*
X53371427Y-77678571D01*
X52442856Y-76178571D02*
X52299999Y-76178571D01*
X52157142Y-76250000D01*
X52085713Y-76321429D01*
X52014284Y-76464286D01*
X51942856Y-76750000D01*
X51942856Y-77107143D01*
X52014284Y-77392857D01*
X52085713Y-77535714D01*
X52157142Y-77607143D01*
X52299999Y-77678571D01*
X52442856Y-77678571D01*
X52585713Y-77607143D01*
X52657142Y-77535714D01*
X52728570Y-77392857D01*
X52799999Y-77107143D01*
X52799999Y-76750000D01*
X52728570Y-76464286D01*
X52657142Y-76321429D01*
X52585713Y-76250000D01*
X52442856Y-76178571D01*
X50514285Y-77678571D02*
X51371428Y-77678571D01*
X50942856Y-77678571D02*
X50942856Y-76178571D01*
X51085713Y-76392857D01*
X51228571Y-76535714D01*
X51371428Y-76607143D01*
X49157142Y-76178571D02*
X49871428Y-76178571D01*
X49942857Y-76892857D01*
X49871428Y-76821429D01*
X49728571Y-76750000D01*
X49371428Y-76750000D01*
X49228571Y-76821429D01*
X49157142Y-76892857D01*
X49085714Y-77035714D01*
X49085714Y-77392857D01*
X49157142Y-77535714D01*
X49228571Y-77607143D01*
X49371428Y-77678571D01*
X49728571Y-77678571D01*
X49871428Y-77607143D01*
X49942857Y-77535714D01*
X48157143Y-76178571D02*
X48014286Y-76178571D01*
X47871429Y-76250000D01*
X47800000Y-76321429D01*
X47728571Y-76464286D01*
X47657143Y-76750000D01*
X47657143Y-77107143D01*
X47728571Y-77392857D01*
X47800000Y-77535714D01*
X47871429Y-77607143D01*
X48014286Y-77678571D01*
X48157143Y-77678571D01*
X48300000Y-77607143D01*
X48371429Y-77535714D01*
X48442857Y-77392857D01*
X48514286Y-77107143D01*
X48514286Y-76750000D01*
X48442857Y-76464286D01*
X48371429Y-76321429D01*
X48300000Y-76250000D01*
X48157143Y-76178571D01*
X46228572Y-77678571D02*
X47085715Y-77678571D01*
X46657143Y-77678571D02*
X46657143Y-76178571D01*
X46800000Y-76392857D01*
X46942858Y-76535714D01*
X47085715Y-76607143D01*
X44800001Y-77678571D02*
X45657144Y-77678571D01*
X45228572Y-77678571D02*
X45228572Y-76178571D01*
X45371429Y-76392857D01*
X45514287Y-76535714D01*
X45657144Y-76607143D01*
X44228573Y-76321429D02*
X44157144Y-76250000D01*
X44014287Y-76178571D01*
X43657144Y-76178571D01*
X43514287Y-76250000D01*
X43442858Y-76321429D01*
X43371430Y-76464286D01*
X43371430Y-76607143D01*
X43442858Y-76821429D01*
X44300001Y-77678571D01*
X43371430Y-77678571D01*
X57621427Y-79292857D02*
X58121427Y-79292857D01*
X58121427Y-80078571D02*
X58121427Y-78578571D01*
X57407141Y-78578571D01*
X56835713Y-80078571D02*
X56835713Y-79078571D01*
X56835713Y-79364286D02*
X56764285Y-79221429D01*
X56692856Y-79150000D01*
X56549999Y-79078571D01*
X56407142Y-79078571D01*
X55335714Y-80007143D02*
X55478571Y-80078571D01*
X55764285Y-80078571D01*
X55907142Y-80007143D01*
X55978571Y-79864286D01*
X55978571Y-79292857D01*
X55907142Y-79150000D01*
X55764285Y-79078571D01*
X55478571Y-79078571D01*
X55335714Y-79150000D01*
X55264285Y-79292857D01*
X55264285Y-79435714D01*
X55978571Y-79578571D01*
X54050000Y-80007143D02*
X54192857Y-80078571D01*
X54478571Y-80078571D01*
X54621428Y-80007143D01*
X54692857Y-79864286D01*
X54692857Y-79292857D01*
X54621428Y-79150000D01*
X54478571Y-79078571D01*
X54192857Y-79078571D01*
X54050000Y-79150000D01*
X53978571Y-79292857D01*
X53978571Y-79435714D01*
X54692857Y-79578571D01*
X53335714Y-80078571D02*
X53335714Y-78578571D01*
X52978571Y-78578571D01*
X52764286Y-78650000D01*
X52621428Y-78792857D01*
X52550000Y-78935714D01*
X52478571Y-79221429D01*
X52478571Y-79435714D01*
X52550000Y-79721429D01*
X52621428Y-79864286D01*
X52764286Y-80007143D01*
X52978571Y-80078571D01*
X53335714Y-80078571D01*
X51907143Y-80007143D02*
X51692857Y-80078571D01*
X51335714Y-80078571D01*
X51192857Y-80007143D01*
X51121428Y-79935714D01*
X51050000Y-79792857D01*
X51050000Y-79650000D01*
X51121428Y-79507143D01*
X51192857Y-79435714D01*
X51335714Y-79364286D01*
X51621428Y-79292857D01*
X51764286Y-79221429D01*
X51835714Y-79150000D01*
X51907143Y-79007143D01*
X51907143Y-78864286D01*
X51835714Y-78721429D01*
X51764286Y-78650000D01*
X51621428Y-78578571D01*
X51264286Y-78578571D01*
X51050000Y-78650000D01*
X50407143Y-80078571D02*
X50407143Y-78578571D01*
X49835715Y-78578571D01*
X49692857Y-78650000D01*
X49621429Y-78721429D01*
X49550000Y-78864286D01*
X49550000Y-79078571D01*
X49621429Y-79221429D01*
X49692857Y-79292857D01*
X49835715Y-79364286D01*
X50407143Y-79364286D01*
X47478572Y-78578571D02*
X47192858Y-78578571D01*
X47050000Y-78650000D01*
X46907143Y-78792857D01*
X46835715Y-79078571D01*
X46835715Y-79578571D01*
X46907143Y-79864286D01*
X47050000Y-80007143D01*
X47192858Y-80078571D01*
X47478572Y-80078571D01*
X47621429Y-80007143D01*
X47764286Y-79864286D01*
X47835715Y-79578571D01*
X47835715Y-79078571D01*
X47764286Y-78792857D01*
X47621429Y-78650000D01*
X47478572Y-78578571D01*
X45978571Y-79221429D02*
X46121429Y-79150000D01*
X46192857Y-79078571D01*
X46264286Y-78935714D01*
X46264286Y-78864286D01*
X46192857Y-78721429D01*
X46121429Y-78650000D01*
X45978571Y-78578571D01*
X45692857Y-78578571D01*
X45550000Y-78650000D01*
X45478571Y-78721429D01*
X45407143Y-78864286D01*
X45407143Y-78935714D01*
X45478571Y-79078571D01*
X45550000Y-79150000D01*
X45692857Y-79221429D01*
X45978571Y-79221429D01*
X46121429Y-79292857D01*
X46192857Y-79364286D01*
X46264286Y-79507143D01*
X46264286Y-79792857D01*
X46192857Y-79935714D01*
X46121429Y-80007143D01*
X45978571Y-80078571D01*
X45692857Y-80078571D01*
X45550000Y-80007143D01*
X45478571Y-79935714D01*
X45407143Y-79792857D01*
X45407143Y-79507143D01*
X45478571Y-79364286D01*
X45550000Y-79292857D01*
X45692857Y-79221429D01*
X43835715Y-78578571D02*
X43335715Y-80078571D01*
X42835715Y-78578571D01*
X41550001Y-80078571D02*
X42407144Y-80078571D01*
X41978572Y-80078571D02*
X41978572Y-78578571D01*
X42121429Y-78792857D01*
X42264287Y-78935714D01*
X42407144Y-79007143D01*
X40907144Y-79935714D02*
X40835716Y-80007143D01*
X40907144Y-80078571D01*
X40978573Y-80007143D01*
X40907144Y-79935714D01*
X40907144Y-80078571D01*
X39907144Y-78578571D02*
X39764287Y-78578571D01*
X39621430Y-78650000D01*
X39550001Y-78721429D01*
X39478572Y-78864286D01*
X39407144Y-79150000D01*
X39407144Y-79507143D01*
X39478572Y-79792857D01*
X39550001Y-79935714D01*
X39621430Y-80007143D01*
X39764287Y-80078571D01*
X39907144Y-80078571D01*
X40050001Y-80007143D01*
X40121430Y-79935714D01*
X40192858Y-79792857D01*
X40264287Y-79507143D01*
X40264287Y-79150000D01*
X40192858Y-78864286D01*
X40121430Y-78721429D01*
X40050001Y-78650000D01*
X39907144Y-78578571D01*
D12*
X33450000Y-74400000D02*
X33700000Y-74800000D01*
X33700000Y-74800000D02*
X33275000Y-74775000D01*
X33275000Y-74775000D02*
X33400000Y-74450000D01*
X33625000Y-79250000D02*
X33850000Y-79025000D01*
X33850000Y-79025000D02*
X33450000Y-78975000D01*
X33300000Y-79375000D02*
X32875000Y-79750000D01*
X32875000Y-79750000D02*
X32850000Y-79750000D01*
X32800860Y-79900680D02*
X31200660Y-80299460D01*
X31200660Y-80299460D02*
X29699520Y-79999740D01*
X29699520Y-79999740D02*
X28698760Y-79301240D01*
X28698760Y-79301240D02*
X28000260Y-78198880D01*
X28000260Y-78198880D02*
X27700540Y-77200660D01*
X27700540Y-77200660D02*
X27901200Y-75999240D01*
X27901200Y-75999240D02*
X28500640Y-74800360D01*
X28500640Y-74800360D02*
X29498860Y-74000260D01*
X29498860Y-74000260D02*
X30900940Y-73700540D01*
X30900940Y-73700540D02*
X32300480Y-73901200D01*
X32300480Y-73901200D02*
X33199640Y-74500640D01*
X33400300Y-78998980D02*
X32998980Y-79400300D01*
X32998980Y-79400300D02*
X32399540Y-79799080D01*
X32399540Y-79799080D02*
X31800100Y-79999740D01*
X31800100Y-79999740D02*
X31099060Y-80098800D01*
X31099060Y-80098800D02*
X30400560Y-79999740D01*
X30400560Y-79999740D02*
X29699520Y-79799080D01*
X29699520Y-79799080D02*
X29100080Y-79301240D01*
X29100080Y-79301240D02*
X28500640Y-78699260D01*
X28500640Y-78699260D02*
X28200920Y-78198880D01*
X28200920Y-78198880D02*
X27901200Y-77398780D01*
X27901200Y-77398780D02*
X27901200Y-76799340D01*
X27901200Y-76799340D02*
X28000260Y-76199900D01*
X28000260Y-76199900D02*
X28200920Y-75699520D01*
X28200920Y-75699520D02*
X28599700Y-75001020D01*
X28599700Y-75001020D02*
X29100080Y-74599700D01*
X29100080Y-74599700D02*
X29699520Y-74200920D01*
X29699520Y-74200920D02*
X30298960Y-74000260D01*
X30298960Y-74000260D02*
X31000000Y-73901200D01*
X31000000Y-73901200D02*
X31800100Y-74000260D01*
X31800100Y-74000260D02*
X32600200Y-74299980D01*
X32600200Y-74299980D02*
X33199640Y-74800360D01*
X33400300Y-74399040D02*
X32699260Y-73901200D01*
X32699260Y-73901200D02*
X32000760Y-73598940D01*
X32000760Y-73598940D02*
X31099060Y-73499880D01*
X31099060Y-73499880D02*
X30199900Y-73598940D01*
X30199900Y-73598940D02*
X29300740Y-73901200D01*
X29300740Y-73901200D02*
X28200920Y-74800360D01*
X28200920Y-74800360D02*
X27598940Y-76100840D01*
X27598940Y-76100840D02*
X27499880Y-77200660D01*
X27499880Y-77200660D02*
X27901200Y-78501140D01*
X27901200Y-78501140D02*
X28299980Y-79199640D01*
X28299980Y-79199640D02*
X29001020Y-79799080D01*
X29001020Y-79799080D02*
X29699520Y-80200400D01*
X29699520Y-80200400D02*
X30799340Y-80500120D01*
X30799340Y-80500120D02*
X31701040Y-80401060D01*
X31701040Y-80401060D02*
X32501140Y-80200400D01*
X32501140Y-80200400D02*
X33100580Y-79799080D01*
X33100580Y-79799080D02*
X33600960Y-79301240D01*
X31000000Y-71599960D02*
X31500380Y-71599960D01*
X31500380Y-71599960D02*
X32300480Y-71899680D01*
X32300480Y-71899680D02*
X32998980Y-72100340D01*
X32998980Y-72100340D02*
X33700020Y-72301000D01*
X33700020Y-72301000D02*
X34299460Y-72798840D01*
X34299460Y-72798840D02*
X35000500Y-73400820D01*
X35000500Y-73400820D02*
X35500880Y-74000260D01*
X35500880Y-74000260D02*
X36001260Y-74899420D01*
X36001260Y-74899420D02*
X36300980Y-75900180D01*
X36300980Y-75900180D02*
X36400040Y-77099060D01*
X36400040Y-77099060D02*
X36199380Y-78300480D01*
X36199380Y-78300480D02*
X35800600Y-79400300D01*
X35800600Y-79400300D02*
X34799840Y-80898900D01*
X34799840Y-80898900D02*
X33600960Y-81800600D01*
X33600960Y-81800600D02*
X32300480Y-82300980D01*
X32300480Y-82300980D02*
X30900940Y-82300980D01*
X30900940Y-82300980D02*
X29399800Y-82199380D01*
X29399800Y-82199380D02*
X28399040Y-81699000D01*
X28399040Y-81699000D02*
X26798840Y-80401060D01*
X26798840Y-80401060D02*
X25998740Y-78800860D01*
X25998740Y-78800860D02*
X25599960Y-77299720D01*
X25599960Y-77299720D02*
X25800620Y-75600460D01*
X25800620Y-75600460D02*
X26301000Y-74500640D01*
X26301000Y-74500640D02*
X27598940Y-72900440D01*
X27598940Y-72900440D02*
X28599700Y-72199400D01*
X28599700Y-72199400D02*
X29600460Y-71800620D01*
X29600460Y-71800620D02*
X31000000Y-71699020D01*
X36180604Y-77000000D02*
G75*
G03X36180604Y-77000000I-5180604J0D01*
G01*
X36588000Y-77000000D02*
G75*
G03X36588000Y-77000000I-5588000J0D01*
G01*
X18398780Y-77299720D02*
X18398780Y-80299460D01*
X18398780Y-80299460D02*
X18200660Y-80299460D01*
X18200660Y-80299460D02*
X18200660Y-77299720D01*
X18200660Y-77299720D02*
X17900940Y-77299720D01*
X17900940Y-77299720D02*
X17900940Y-80401060D01*
X17900940Y-80401060D02*
X17700280Y-80401060D01*
X17700280Y-80401060D02*
X17700280Y-77299720D01*
X16801120Y-75100080D02*
X19399540Y-75100080D01*
X19399540Y-75100080D02*
X19399540Y-75498860D01*
X19399540Y-75498860D02*
X19399540Y-75399800D01*
X19399540Y-75399800D02*
X16801120Y-75399800D01*
X16801120Y-75399800D02*
X16801120Y-75699520D01*
X16801120Y-75699520D02*
X19300480Y-75699520D01*
X19300480Y-75699520D02*
X19300480Y-75900180D01*
X19300480Y-75900180D02*
X16900180Y-75900180D01*
X16900180Y-75900180D02*
X16900180Y-76199900D01*
X16900180Y-76199900D02*
X19399540Y-76199900D01*
X19399540Y-76199900D02*
X19399540Y-76499620D01*
X19399540Y-76499620D02*
X16900180Y-76499620D01*
X16900180Y-76499620D02*
X16900180Y-76700280D01*
X16900180Y-76700280D02*
X19399540Y-76700280D01*
X19399540Y-76700280D02*
X19399540Y-76900940D01*
X19399540Y-76900940D02*
X16900180Y-76900940D01*
X19399540Y-74800360D02*
X16900180Y-74800360D01*
X17700280Y-73200160D02*
X17700280Y-74000260D01*
X18299720Y-73200160D02*
X18299720Y-73901200D01*
X18000000Y-73200160D02*
X18000000Y-74000260D01*
X18599440Y-80500120D02*
X17499620Y-80500120D01*
X17499620Y-80500120D02*
X17499620Y-77299720D01*
X18599440Y-77299720D02*
X18599440Y-80500120D01*
X19501140Y-74500640D02*
X16699520Y-74500640D01*
X16699520Y-74500640D02*
X16699520Y-77200660D01*
X16699520Y-77200660D02*
X19501140Y-77200660D01*
X19501140Y-77200660D02*
X19501140Y-74500640D01*
X18583277Y-73598940D02*
G75*
G03X18583277Y-73598940I-583277J0D01*
G01*
X18000000Y-71599960D02*
X18500380Y-71599960D01*
X18500380Y-71599960D02*
X19300480Y-71899680D01*
X19300480Y-71899680D02*
X19998980Y-72100340D01*
X19998980Y-72100340D02*
X20700020Y-72301000D01*
X20700020Y-72301000D02*
X21299460Y-72798840D01*
X21299460Y-72798840D02*
X22000500Y-73400820D01*
X22000500Y-73400820D02*
X22500880Y-74000260D01*
X22500880Y-74000260D02*
X23001260Y-74899420D01*
X23001260Y-74899420D02*
X23300980Y-75900180D01*
X23300980Y-75900180D02*
X23400040Y-77099060D01*
X23400040Y-77099060D02*
X23199380Y-78300480D01*
X23199380Y-78300480D02*
X22800600Y-79400300D01*
X22800600Y-79400300D02*
X21799840Y-80898900D01*
X21799840Y-80898900D02*
X20600960Y-81800600D01*
X20600960Y-81800600D02*
X19300480Y-82300980D01*
X19300480Y-82300980D02*
X17900940Y-82300980D01*
X17900940Y-82300980D02*
X16399800Y-82199380D01*
X16399800Y-82199380D02*
X15399040Y-81699000D01*
X15399040Y-81699000D02*
X13798840Y-80401060D01*
X13798840Y-80401060D02*
X12998740Y-78800860D01*
X12998740Y-78800860D02*
X12599960Y-77299720D01*
X12599960Y-77299720D02*
X12800620Y-75600460D01*
X12800620Y-75600460D02*
X13301000Y-74500640D01*
X13301000Y-74500640D02*
X14598940Y-72900440D01*
X14598940Y-72900440D02*
X15599700Y-72199400D01*
X15599700Y-72199400D02*
X16600460Y-71800620D01*
X16600460Y-71800620D02*
X18000000Y-71699020D01*
X23180604Y-77000000D02*
G75*
G03X23180604Y-77000000I-5180604J0D01*
G01*
X23588000Y-77000000D02*
G75*
G03X23588000Y-77000000I-5588000J0D01*
G01*
D13*
X65200000Y-48950000D03*
D14*
X67740000Y-48950000D03*
X65200000Y-46410000D03*
X67740000Y-46410000D03*
X65200000Y-43870000D03*
X67740000Y-43870000D03*
X65200000Y-41330000D03*
X67740000Y-41330000D03*
X65200000Y-38790000D03*
X67740000Y-38790000D03*
X65200000Y-36250000D03*
X67740000Y-36250000D03*
X65200000Y-33710000D03*
X67740000Y-33710000D03*
X65200000Y-31170000D03*
X67740000Y-31170000D03*
X65200000Y-28630000D03*
X67740000Y-28630000D03*
X65200000Y-26090000D03*
X67740000Y-26090000D03*
X65200000Y-23550000D03*
X67740000Y-23550000D03*
D15*
X5200000Y-79200000D03*
X65200000Y-79200000D03*
X65200000Y-5200000D03*
D16*
X11000000Y-17000000D03*
X11000000Y-20800000D03*
D17*
X3500000Y-15900000D03*
X3500000Y-21900000D03*
D16*
X11000000Y-31100000D03*
X11000000Y-34900000D03*
D17*
X3500000Y-30000000D03*
X3500000Y-36000000D03*
D16*
X11000000Y-46000000D03*
X11000000Y-49800000D03*
D17*
X3500000Y-44900000D03*
X3500000Y-50900000D03*
D16*
X11000000Y-60000000D03*
X11000000Y-63800000D03*
D17*
X3500000Y-58900000D03*
X3500000Y-64900000D03*
D15*
X5200000Y-5200000D03*
D18*
X57015000Y-55225001D03*
D19*
X57015000Y-52685001D03*
X57015000Y-50145001D03*
D18*
X54475000Y-55225001D03*
D19*
X54475000Y-52685001D03*
X54475000Y-50145001D03*
D20*
X49750000Y-52000000D03*
X47200000Y-64600000D03*
X50600000Y-28400000D03*
X57250000Y-34250000D03*
X63000000Y-40000000D03*
X53750000Y-35750000D03*
X36000000Y-67000000D03*
X53000000Y-36500000D03*
X36000000Y-60000000D03*
X51000000Y-38500000D03*
X36000000Y-53000000D03*
X50250000Y-39250000D03*
X36000000Y-46000000D03*
X49500000Y-40000000D03*
X36000000Y-38000000D03*
X48750000Y-40750000D03*
X36000000Y-31000000D03*
X53000000Y-45000000D03*
X36000000Y-24000000D03*
X53750000Y-45750000D03*
X36000000Y-17000000D03*
X62800916Y-38728370D03*
X58981873Y-32435634D03*
D21*
X49750000Y-52000000D02*
X47200000Y-54550000D01*
X47200000Y-54550000D02*
X47200000Y-56550000D01*
X47200000Y-64600000D02*
X47200000Y-56550000D01*
X63000000Y-49389636D02*
X64869081Y-49389636D01*
X64869081Y-49389636D02*
X65200000Y-49058717D01*
X65200000Y-49058717D02*
X65200000Y-48950000D01*
X63000000Y-46763042D02*
X63000000Y-40000000D01*
X63000000Y-49389636D02*
X63000000Y-46763042D01*
X57164635Y-55225001D02*
X63000000Y-49389636D01*
X57015000Y-55225001D02*
X57164635Y-55225001D01*
X57015000Y-55225001D02*
X54475000Y-55225001D01*
X63000000Y-40000000D02*
X57250000Y-34250000D01*
X65186958Y-48950000D02*
X65200000Y-48950000D01*
X53750000Y-35750000D02*
X54512242Y-36512242D01*
X54512242Y-36512242D02*
X54512242Y-40449842D01*
X54512242Y-40449842D02*
X39000000Y-55962084D01*
X39000000Y-55962084D02*
X39000000Y-64000000D01*
X39000000Y-64000000D02*
X36000000Y-67000000D01*
X36000000Y-60000000D02*
X36000000Y-57650597D01*
X36000000Y-57650597D02*
X53654458Y-39996139D01*
X53654458Y-39996139D02*
X53654458Y-37154458D01*
X53654458Y-37154458D02*
X53000000Y-36500000D01*
X51000000Y-38500000D02*
X40250000Y-38500000D01*
X40250000Y-38500000D02*
X34186517Y-44563483D01*
X34186517Y-44563483D02*
X34186517Y-51186517D01*
X34186517Y-51186517D02*
X35600001Y-52600001D01*
X35600001Y-52600001D02*
X36000000Y-53000000D01*
X50250000Y-39250000D02*
X42750000Y-39250000D01*
X42750000Y-39250000D02*
X36000000Y-46000000D01*
X49500000Y-40000000D02*
X51084333Y-40000000D01*
X51084333Y-40000000D02*
X51995603Y-39088730D01*
X51995603Y-39088730D02*
X51995603Y-38012348D01*
X51995603Y-38012348D02*
X50233255Y-36250000D01*
X37750000Y-36250000D02*
X36000000Y-38000000D01*
X50233255Y-36250000D02*
X37750000Y-36250000D01*
X48750000Y-40750000D02*
X51582019Y-40750000D01*
X51582019Y-40750000D02*
X52825030Y-39506989D01*
X52825030Y-39506989D02*
X52825030Y-37799029D01*
X52825030Y-37799029D02*
X46026001Y-31000000D01*
X46026001Y-31000000D02*
X36000000Y-31000000D01*
X53000000Y-45000000D02*
X55370431Y-42629569D01*
X55370431Y-42629569D02*
X55370431Y-35977071D01*
X55370431Y-35977071D02*
X43393360Y-24000000D01*
X43393360Y-24000000D02*
X36000000Y-24000000D01*
X53750000Y-45750000D02*
X56224415Y-43275585D01*
X56224415Y-43275585D02*
X56224415Y-35400126D01*
X37824289Y-17000000D02*
X36000000Y-17000000D01*
X56224415Y-35400126D02*
X37824289Y-17000000D01*
X67740000Y-41330000D02*
X66467699Y-40057699D01*
X66467699Y-40057699D02*
X64130245Y-40057699D01*
X64130245Y-40057699D02*
X63200915Y-39128369D01*
X63200915Y-39128369D02*
X62800916Y-38728370D01*
X66465634Y-32435634D02*
X58981873Y-32435634D01*
X67740000Y-33710000D02*
X66465634Y-32435634D01*
G36*
X69950000Y-83950000D02*
X450000Y-83950000D01*
X450000Y-79483779D01*
X1820564Y-79483779D01*
X1940044Y-80134777D01*
X2183696Y-80750170D01*
X2542237Y-81306517D01*
X3002012Y-81782628D01*
X3545507Y-82160367D01*
X4152021Y-82425346D01*
X4798453Y-82567474D01*
X5460180Y-82581335D01*
X6111996Y-82466402D01*
X6729075Y-82227053D01*
X7287911Y-81872405D01*
X7767220Y-81415965D01*
X8148744Y-80875120D01*
X8417952Y-80270470D01*
X8564588Y-79625046D01*
X8575145Y-78869064D01*
X8446586Y-78219798D01*
X8194367Y-77607867D01*
X7847583Y-77085916D01*
X11847100Y-77085916D01*
X11980969Y-78279385D01*
X12344101Y-79424122D01*
X12922664Y-80476524D01*
X13694622Y-81396508D01*
X14630570Y-82149029D01*
X15694858Y-82705426D01*
X16846949Y-83044505D01*
X18042959Y-83153350D01*
X19237333Y-83027816D01*
X20384577Y-82672685D01*
X21440994Y-82101483D01*
X22366344Y-81335967D01*
X23125381Y-80405295D01*
X23689194Y-79344917D01*
X24036308Y-78195221D01*
X24145075Y-77085916D01*
X24847100Y-77085916D01*
X24980969Y-78279385D01*
X25344101Y-79424122D01*
X25922664Y-80476524D01*
X26694622Y-81396508D01*
X27630570Y-82149029D01*
X28694858Y-82705426D01*
X29846949Y-83044505D01*
X31042959Y-83153350D01*
X32237333Y-83027816D01*
X33384577Y-82672685D01*
X34440994Y-82101483D01*
X35366344Y-81335967D01*
X36125381Y-80405295D01*
X36689194Y-79344917D01*
X37036308Y-78195221D01*
X37153500Y-77000000D01*
X37151101Y-76828184D01*
X37000582Y-75636701D01*
X36621502Y-74497146D01*
X36028301Y-73452924D01*
X35399975Y-72725000D01*
X37310716Y-72725000D01*
X37310716Y-80975000D01*
X60289285Y-80975000D01*
X60289285Y-79483779D01*
X61820564Y-79483779D01*
X61940044Y-80134777D01*
X62183696Y-80750170D01*
X62542237Y-81306517D01*
X63002012Y-81782628D01*
X63545507Y-82160367D01*
X64152021Y-82425346D01*
X64798453Y-82567474D01*
X65460180Y-82581335D01*
X66111996Y-82466402D01*
X66729075Y-82227053D01*
X67287911Y-81872405D01*
X67767220Y-81415965D01*
X68148744Y-80875120D01*
X68417952Y-80270470D01*
X68564588Y-79625046D01*
X68575145Y-78869064D01*
X68446586Y-78219798D01*
X68194367Y-77607867D01*
X67828092Y-77056580D01*
X67361715Y-76586935D01*
X66812999Y-76216821D01*
X66202844Y-75960336D01*
X65554491Y-75827248D01*
X64892635Y-75822627D01*
X64242487Y-75946650D01*
X63628810Y-76194591D01*
X63074980Y-76557008D01*
X62602090Y-77020095D01*
X62228155Y-77566214D01*
X61967416Y-78174564D01*
X61829805Y-78821972D01*
X61820564Y-79483779D01*
X60289285Y-79483779D01*
X60289285Y-72725000D01*
X37310716Y-72725000D01*
X35399975Y-72725000D01*
X35243574Y-72543808D01*
X34297210Y-71804428D01*
X33225257Y-71262945D01*
X32068544Y-70939985D01*
X30871131Y-70847850D01*
X29678626Y-70990047D01*
X28536452Y-71361162D01*
X27488114Y-71947058D01*
X26573543Y-72725420D01*
X25827573Y-73666599D01*
X25278620Y-74734746D01*
X24947593Y-75889175D01*
X24847100Y-77085916D01*
X24145075Y-77085916D01*
X24153500Y-77000000D01*
X24151101Y-76828184D01*
X24000582Y-75636701D01*
X23621502Y-74497146D01*
X23028301Y-73452924D01*
X22243574Y-72543808D01*
X21297210Y-71804428D01*
X20225257Y-71262945D01*
X19068544Y-70939985D01*
X17871131Y-70847850D01*
X16678626Y-70990047D01*
X15536452Y-71361162D01*
X14488114Y-71947058D01*
X13573543Y-72725420D01*
X12827573Y-73666599D01*
X12278620Y-74734746D01*
X11947593Y-75889175D01*
X11847100Y-77085916D01*
X7847583Y-77085916D01*
X7828092Y-77056580D01*
X7361715Y-76586935D01*
X6812999Y-76216821D01*
X6202844Y-75960336D01*
X5554491Y-75827248D01*
X4892635Y-75822627D01*
X4242487Y-75946650D01*
X3628810Y-76194591D01*
X3074980Y-76557008D01*
X2602090Y-77020095D01*
X2228155Y-77566214D01*
X1967416Y-78174564D01*
X1829805Y-78821972D01*
X1820564Y-79483779D01*
X450000Y-79483779D01*
X450000Y-65078676D01*
X1372207Y-65078676D01*
X1447435Y-65488563D01*
X1600845Y-65876033D01*
X1826593Y-66226326D01*
X2116081Y-66526099D01*
X2458282Y-66763935D01*
X2840162Y-66930774D01*
X3247174Y-67020261D01*
X3663817Y-67028989D01*
X4074220Y-66956624D01*
X4462751Y-66805922D01*
X4814611Y-66582625D01*
X5116398Y-66295237D01*
X5356617Y-65954705D01*
X5526118Y-65574000D01*
X5618445Y-65167622D01*
X5625091Y-64691633D01*
X5590239Y-64515614D01*
X5623193Y-64515614D01*
X5671870Y-64780835D01*
X5771135Y-65031551D01*
X5917208Y-65258211D01*
X6104523Y-65452182D01*
X6325947Y-65606075D01*
X6573046Y-65714030D01*
X6836407Y-65771934D01*
X7105999Y-65777581D01*
X7371554Y-65730756D01*
X7622956Y-65633244D01*
X7850631Y-65488757D01*
X8045904Y-65302801D01*
X8201340Y-65082456D01*
X8311017Y-64836117D01*
X8370758Y-64573167D01*
X8375059Y-64265174D01*
X8322683Y-64000658D01*
X8304959Y-63957655D01*
X9122536Y-63957655D01*
X9188914Y-64319321D01*
X9324276Y-64661205D01*
X9523465Y-64970287D01*
X9778895Y-65234793D01*
X10080837Y-65444648D01*
X10417790Y-65591859D01*
X10776918Y-65670819D01*
X11144544Y-65678519D01*
X11506664Y-65614668D01*
X11849486Y-65481696D01*
X12159951Y-65284669D01*
X12426233Y-65031091D01*
X12638191Y-64730622D01*
X12787751Y-64394706D01*
X12869216Y-64036137D01*
X12875080Y-63616147D01*
X12803659Y-63255443D01*
X12663537Y-62915482D01*
X12460051Y-62609211D01*
X12200953Y-62348298D01*
X11896110Y-62142679D01*
X11557135Y-62000187D01*
X11196939Y-61926249D01*
X10829242Y-61923682D01*
X10468048Y-61992583D01*
X10127117Y-62130329D01*
X9819433Y-62331671D01*
X9556717Y-62588942D01*
X9348975Y-62892341D01*
X9204120Y-63230313D01*
X9127670Y-63589985D01*
X9122536Y-63957655D01*
X8304959Y-63957655D01*
X8219927Y-63751353D01*
X8070704Y-63526755D01*
X7880699Y-63335418D01*
X7657148Y-63184631D01*
X7408566Y-63080137D01*
X7144422Y-63025916D01*
X6874777Y-63024033D01*
X6609902Y-63074561D01*
X6359886Y-63175574D01*
X6134251Y-63323225D01*
X5941592Y-63511891D01*
X5789248Y-63734384D01*
X5683021Y-63982230D01*
X5626958Y-64245989D01*
X5623193Y-64515614D01*
X5590239Y-64515614D01*
X5544147Y-64282836D01*
X5385342Y-63897546D01*
X5154725Y-63550439D01*
X4861080Y-63254737D01*
X4515592Y-63021702D01*
X4131420Y-62860211D01*
X3723198Y-62776415D01*
X3306474Y-62773506D01*
X2897121Y-62851594D01*
X2510732Y-63007705D01*
X2162024Y-63235894D01*
X1864279Y-63527467D01*
X1628838Y-63871320D01*
X1464669Y-64254355D01*
X1378025Y-64661982D01*
X1372207Y-65078676D01*
X450000Y-65078676D01*
X450000Y-61317870D01*
X9788196Y-61317870D01*
X9954124Y-61567123D01*
X10279950Y-61741051D01*
X10633448Y-61848072D01*
X11001032Y-61884073D01*
X11368577Y-61847670D01*
X11721957Y-61740262D01*
X12045876Y-61567123D01*
X12211804Y-61317870D01*
X11000000Y-60106066D01*
X9788196Y-61317870D01*
X450000Y-61317870D01*
X450000Y-59078676D01*
X1372207Y-59078676D01*
X1447435Y-59488563D01*
X1600845Y-59876033D01*
X1826593Y-60226326D01*
X2116081Y-60526099D01*
X2458282Y-60763935D01*
X2840162Y-60930774D01*
X3247174Y-61020261D01*
X3663817Y-61028989D01*
X4074220Y-60956624D01*
X4462751Y-60805922D01*
X4814611Y-60582625D01*
X5116398Y-60295237D01*
X5356617Y-59954705D01*
X5526118Y-59574000D01*
X5539383Y-59515614D01*
X5623193Y-59515614D01*
X5671870Y-59780835D01*
X5771135Y-60031551D01*
X5917208Y-60258211D01*
X6104523Y-60452182D01*
X6325947Y-60606075D01*
X6573046Y-60714030D01*
X6836407Y-60771934D01*
X7105999Y-60777581D01*
X7371554Y-60730756D01*
X7622956Y-60633244D01*
X7850631Y-60488757D01*
X8045904Y-60302801D01*
X8201340Y-60082456D01*
X8237592Y-60001032D01*
X9115927Y-60001032D01*
X9152330Y-60368577D01*
X9259738Y-60721957D01*
X9432877Y-61045876D01*
X9682130Y-61211804D01*
X10893934Y-60000000D01*
X11106066Y-60000000D01*
X12317870Y-61211804D01*
X12567123Y-61045876D01*
X12741051Y-60720050D01*
X12848072Y-60366552D01*
X12884073Y-59998968D01*
X12847670Y-59631423D01*
X12740262Y-59278043D01*
X12567123Y-58954124D01*
X12317870Y-58788196D01*
X11106066Y-60000000D01*
X10893934Y-60000000D01*
X9682130Y-58788196D01*
X9432877Y-58954124D01*
X9258949Y-59279950D01*
X9151928Y-59633448D01*
X9115927Y-60001032D01*
X8237592Y-60001032D01*
X8311017Y-59836117D01*
X8370758Y-59573167D01*
X8375059Y-59265174D01*
X8322683Y-59000658D01*
X8219927Y-58751353D01*
X8173936Y-58682130D01*
X9788196Y-58682130D01*
X11000000Y-59893934D01*
X12211804Y-58682130D01*
X12045876Y-58432877D01*
X11720050Y-58258949D01*
X11366552Y-58151928D01*
X10998968Y-58115927D01*
X10631423Y-58152330D01*
X10278043Y-58259738D01*
X9954124Y-58432877D01*
X9788196Y-58682130D01*
X8173936Y-58682130D01*
X8070704Y-58526755D01*
X7880699Y-58335418D01*
X7657148Y-58184631D01*
X7408566Y-58080137D01*
X7144422Y-58025916D01*
X6874777Y-58024033D01*
X6609902Y-58074561D01*
X6359886Y-58175574D01*
X6134251Y-58323225D01*
X5941592Y-58511891D01*
X5789248Y-58734384D01*
X5683021Y-58982230D01*
X5626958Y-59245989D01*
X5623193Y-59515614D01*
X5539383Y-59515614D01*
X5618445Y-59167622D01*
X5625091Y-58691633D01*
X5544147Y-58282836D01*
X5385342Y-57897546D01*
X5154725Y-57550439D01*
X4861080Y-57254737D01*
X4515592Y-57021702D01*
X4131420Y-56860211D01*
X3723198Y-56776415D01*
X3306474Y-56773506D01*
X2897121Y-56851594D01*
X2510732Y-57007705D01*
X2162024Y-57235894D01*
X1864279Y-57527467D01*
X1628838Y-57871320D01*
X1464669Y-58254355D01*
X1378025Y-58661982D01*
X1372207Y-59078676D01*
X450000Y-59078676D01*
X450000Y-51078676D01*
X1372207Y-51078676D01*
X1447435Y-51488563D01*
X1600845Y-51876033D01*
X1826593Y-52226326D01*
X2116081Y-52526099D01*
X2458282Y-52763935D01*
X2840162Y-52930774D01*
X3247174Y-53020261D01*
X3663817Y-53028989D01*
X4074220Y-52956624D01*
X4462751Y-52805922D01*
X4814611Y-52582625D01*
X5116398Y-52295237D01*
X5356617Y-51954705D01*
X5526118Y-51574000D01*
X5618445Y-51167622D01*
X5625091Y-50691633D01*
X5590239Y-50515614D01*
X5623193Y-50515614D01*
X5671870Y-50780835D01*
X5771135Y-51031551D01*
X5917208Y-51258211D01*
X6104523Y-51452182D01*
X6325947Y-51606075D01*
X6573046Y-51714030D01*
X6836407Y-51771934D01*
X7105999Y-51777581D01*
X7371554Y-51730756D01*
X7622956Y-51633244D01*
X7850631Y-51488757D01*
X8045904Y-51302801D01*
X8201340Y-51082456D01*
X8311017Y-50836117D01*
X8370758Y-50573167D01*
X8375059Y-50265174D01*
X8322683Y-50000658D01*
X8304959Y-49957655D01*
X9122536Y-49957655D01*
X9188914Y-50319321D01*
X9324276Y-50661205D01*
X9523465Y-50970287D01*
X9778895Y-51234793D01*
X10080837Y-51444648D01*
X10417790Y-51591859D01*
X10776918Y-51670819D01*
X11144544Y-51678519D01*
X11506664Y-51614668D01*
X11849486Y-51481696D01*
X12159951Y-51284669D01*
X12426233Y-51031091D01*
X12638191Y-50730622D01*
X12787751Y-50394706D01*
X12869216Y-50036137D01*
X12875080Y-49616147D01*
X12803659Y-49255443D01*
X12663537Y-48915482D01*
X12460051Y-48609211D01*
X12200953Y-48348298D01*
X11896110Y-48142679D01*
X11557135Y-48000187D01*
X11196939Y-47926249D01*
X10829242Y-47923682D01*
X10468048Y-47992583D01*
X10127117Y-48130329D01*
X9819433Y-48331671D01*
X9556717Y-48588942D01*
X9348975Y-48892341D01*
X9204120Y-49230313D01*
X9127670Y-49589985D01*
X9122536Y-49957655D01*
X8304959Y-49957655D01*
X8219927Y-49751353D01*
X8070704Y-49526755D01*
X7880699Y-49335418D01*
X7657148Y-49184631D01*
X7408566Y-49080137D01*
X7144422Y-49025916D01*
X6874777Y-49024033D01*
X6609902Y-49074561D01*
X6359886Y-49175574D01*
X6134251Y-49323225D01*
X5941592Y-49511891D01*
X5789248Y-49734384D01*
X5683021Y-49982230D01*
X5626958Y-50245989D01*
X5623193Y-50515614D01*
X5590239Y-50515614D01*
X5544147Y-50282836D01*
X5385342Y-49897546D01*
X5154725Y-49550439D01*
X4861080Y-49254737D01*
X4515592Y-49021702D01*
X4131420Y-48860211D01*
X3723198Y-48776415D01*
X3306474Y-48773506D01*
X2897121Y-48851594D01*
X2510732Y-49007705D01*
X2162024Y-49235894D01*
X1864279Y-49527467D01*
X1628838Y-49871320D01*
X1464669Y-50254355D01*
X1378025Y-50661982D01*
X1372207Y-51078676D01*
X450000Y-51078676D01*
X450000Y-47317870D01*
X9788196Y-47317870D01*
X9954124Y-47567123D01*
X10279950Y-47741051D01*
X10633448Y-47848072D01*
X11001032Y-47884073D01*
X11368577Y-47847670D01*
X11721957Y-47740262D01*
X12045876Y-47567123D01*
X12211804Y-47317870D01*
X11000000Y-46106066D01*
X9788196Y-47317870D01*
X450000Y-47317870D01*
X450000Y-45078676D01*
X1372207Y-45078676D01*
X1447435Y-45488563D01*
X1600845Y-45876033D01*
X1826593Y-46226326D01*
X2116081Y-46526099D01*
X2458282Y-46763935D01*
X2840162Y-46930774D01*
X3247174Y-47020261D01*
X3663817Y-47028989D01*
X4074220Y-46956624D01*
X4462751Y-46805922D01*
X4814611Y-46582625D01*
X5116398Y-46295237D01*
X5356617Y-45954705D01*
X5526118Y-45574000D01*
X5539383Y-45515614D01*
X5623193Y-45515614D01*
X5671870Y-45780835D01*
X5771135Y-46031551D01*
X5917208Y-46258211D01*
X6104523Y-46452182D01*
X6325947Y-46606075D01*
X6573046Y-46714030D01*
X6836407Y-46771934D01*
X7105999Y-46777581D01*
X7371554Y-46730756D01*
X7622956Y-46633244D01*
X7850631Y-46488757D01*
X8045904Y-46302801D01*
X8201340Y-46082456D01*
X8237592Y-46001032D01*
X9115927Y-46001032D01*
X9152330Y-46368577D01*
X9259738Y-46721957D01*
X9432877Y-47045876D01*
X9682130Y-47211804D01*
X10893934Y-46000000D01*
X11106066Y-46000000D01*
X12317870Y-47211804D01*
X12567123Y-47045876D01*
X12741051Y-46720050D01*
X12848072Y-46366552D01*
X12884073Y-45998968D01*
X12847670Y-45631423D01*
X12740262Y-45278043D01*
X12567123Y-44954124D01*
X12317870Y-44788196D01*
X11106066Y-46000000D01*
X10893934Y-46000000D01*
X9682130Y-44788196D01*
X9432877Y-44954124D01*
X9258949Y-45279950D01*
X9151928Y-45633448D01*
X9115927Y-46001032D01*
X8237592Y-46001032D01*
X8311017Y-45836117D01*
X8370758Y-45573167D01*
X8375059Y-45265174D01*
X8322683Y-45000658D01*
X8219927Y-44751353D01*
X8173936Y-44682130D01*
X9788196Y-44682130D01*
X11000000Y-45893934D01*
X12211804Y-44682130D01*
X12132821Y-44563483D01*
X33686517Y-44563483D01*
X33686517Y-51186517D01*
X33691022Y-51232461D01*
X33695049Y-51278493D01*
X33695782Y-51281018D01*
X33696039Y-51283634D01*
X33709386Y-51327840D01*
X33722274Y-51372201D01*
X33723484Y-51374536D01*
X33724244Y-51377052D01*
X33745911Y-51417802D01*
X33767181Y-51458837D01*
X33768823Y-51460893D01*
X33770056Y-51463213D01*
X33799245Y-51499002D01*
X33828062Y-51535099D01*
X33831669Y-51538757D01*
X33831732Y-51538834D01*
X33831803Y-51538893D01*
X33832964Y-51540070D01*
X35225827Y-52932934D01*
X35223981Y-53065164D01*
X35251417Y-53214653D01*
X35307367Y-53355965D01*
X35389699Y-53483719D01*
X35495277Y-53593048D01*
X35620079Y-53679788D01*
X35759353Y-53740635D01*
X35907793Y-53773272D01*
X36059745Y-53776455D01*
X36209421Y-53750063D01*
X36351121Y-53695101D01*
X36479446Y-53613663D01*
X36589510Y-53508851D01*
X36677119Y-53384657D01*
X36738937Y-53245812D01*
X36772609Y-53097603D01*
X36775033Y-52924007D01*
X36745513Y-52774916D01*
X36687595Y-52634399D01*
X36603488Y-52507807D01*
X36496394Y-52399963D01*
X36370392Y-52314974D01*
X36230283Y-52256077D01*
X36081402Y-52225516D01*
X35931577Y-52224470D01*
X34686517Y-50979411D01*
X34686517Y-44770589D01*
X40457106Y-39000000D01*
X42292893Y-39000000D01*
X36067475Y-45225419D01*
X35929420Y-45224455D01*
X35780127Y-45252934D01*
X35639208Y-45309869D01*
X35512032Y-45393091D01*
X35403443Y-45499429D01*
X35317576Y-45624834D01*
X35257703Y-45764529D01*
X35226103Y-45913194D01*
X35223981Y-46065164D01*
X35251417Y-46214653D01*
X35307367Y-46355965D01*
X35389699Y-46483719D01*
X35495277Y-46593048D01*
X35620079Y-46679788D01*
X35759353Y-46740635D01*
X35907793Y-46773272D01*
X36059745Y-46776455D01*
X36209421Y-46750063D01*
X36351121Y-46695101D01*
X36479446Y-46613663D01*
X36589510Y-46508851D01*
X36677119Y-46384657D01*
X36738937Y-46245812D01*
X36772609Y-46097603D01*
X36774919Y-45932187D01*
X42957107Y-39750000D01*
X48763930Y-39750000D01*
X48757703Y-39764529D01*
X48726103Y-39913194D01*
X48725243Y-39974775D01*
X48679420Y-39974455D01*
X48530127Y-40002934D01*
X48389208Y-40059869D01*
X48262032Y-40143091D01*
X48153443Y-40249429D01*
X48067576Y-40374834D01*
X48007703Y-40514529D01*
X47976103Y-40663194D01*
X47973981Y-40815164D01*
X48001417Y-40964653D01*
X48057367Y-41105965D01*
X48139699Y-41233719D01*
X48245277Y-41343048D01*
X48370079Y-41429788D01*
X48509353Y-41490635D01*
X48657793Y-41523272D01*
X48809745Y-41526455D01*
X48959421Y-41500063D01*
X49101121Y-41445101D01*
X49229446Y-41363663D01*
X49339510Y-41258851D01*
X49345754Y-41250000D01*
X51582019Y-41250000D01*
X51627963Y-41245495D01*
X51673995Y-41241468D01*
X51676520Y-41240735D01*
X51679136Y-41240478D01*
X51713340Y-41230151D01*
X35646447Y-57297044D01*
X35617168Y-57332689D01*
X35587443Y-57368113D01*
X35586175Y-57370420D01*
X35584508Y-57372449D01*
X35562701Y-57413118D01*
X35540432Y-57453626D01*
X35539637Y-57456133D01*
X35538395Y-57458449D01*
X35524893Y-57502612D01*
X35510926Y-57546641D01*
X35510633Y-57549252D01*
X35509864Y-57551768D01*
X35505194Y-57597744D01*
X35500049Y-57643616D01*
X35500013Y-57648754D01*
X35500003Y-57648852D01*
X35500012Y-57648943D01*
X35500000Y-57650597D01*
X35500000Y-59404874D01*
X35403443Y-59499429D01*
X35317576Y-59624834D01*
X35257703Y-59764529D01*
X35226103Y-59913194D01*
X35223981Y-60065164D01*
X35251417Y-60214653D01*
X35307367Y-60355965D01*
X35389699Y-60483719D01*
X35495277Y-60593048D01*
X35620079Y-60679788D01*
X35759353Y-60740635D01*
X35907793Y-60773272D01*
X36059745Y-60776455D01*
X36209421Y-60750063D01*
X36351121Y-60695101D01*
X36479446Y-60613663D01*
X36589510Y-60508851D01*
X36677119Y-60384657D01*
X36738937Y-60245812D01*
X36772609Y-60097603D01*
X36775033Y-59924007D01*
X36745513Y-59774916D01*
X36687595Y-59634399D01*
X36603488Y-59507807D01*
X36500000Y-59403594D01*
X36500000Y-57857703D01*
X38516200Y-55841503D01*
X38510926Y-55858128D01*
X38510633Y-55860739D01*
X38509864Y-55863255D01*
X38505194Y-55909231D01*
X38500049Y-55955103D01*
X38500013Y-55960241D01*
X38500003Y-55960339D01*
X38500012Y-55960430D01*
X38500000Y-55962084D01*
X38500000Y-63792893D01*
X36067475Y-66225419D01*
X35929420Y-66224455D01*
X35780127Y-66252934D01*
X35639208Y-66309869D01*
X35512032Y-66393091D01*
X35403443Y-66499429D01*
X35317576Y-66624834D01*
X35257703Y-66764529D01*
X35226103Y-66913194D01*
X35223981Y-67065164D01*
X35251417Y-67214653D01*
X35307367Y-67355965D01*
X35389699Y-67483719D01*
X35495277Y-67593048D01*
X35620079Y-67679788D01*
X35759353Y-67740635D01*
X35907793Y-67773272D01*
X36059745Y-67776455D01*
X36209421Y-67750063D01*
X36351121Y-67695101D01*
X36479446Y-67613663D01*
X36589510Y-67508851D01*
X36677119Y-67384657D01*
X36738937Y-67245812D01*
X36772609Y-67097603D01*
X36774919Y-66932187D01*
X39041942Y-64665164D01*
X46423981Y-64665164D01*
X46451417Y-64814653D01*
X46507367Y-64955965D01*
X46589699Y-65083719D01*
X46695277Y-65193048D01*
X46820079Y-65279788D01*
X46959353Y-65340635D01*
X47107793Y-65373272D01*
X47259745Y-65376455D01*
X47409421Y-65350063D01*
X47551121Y-65295101D01*
X47679446Y-65213663D01*
X47789510Y-65108851D01*
X47877119Y-64984657D01*
X47938937Y-64845812D01*
X47972609Y-64697603D01*
X47975033Y-64524007D01*
X47945513Y-64374916D01*
X47887595Y-64234399D01*
X47803488Y-64107807D01*
X47700000Y-64003594D01*
X47700000Y-54757106D01*
X48095705Y-54361401D01*
X53082186Y-54361401D01*
X53082186Y-56088601D01*
X53086948Y-56148318D01*
X53118315Y-56249605D01*
X53176657Y-56338144D01*
X53257357Y-56406923D01*
X53354022Y-56450497D01*
X53459000Y-56465415D01*
X55491000Y-56465415D01*
X55550717Y-56460653D01*
X55652004Y-56429286D01*
X55740543Y-56370944D01*
X55746686Y-56363737D01*
X55797357Y-56406923D01*
X55894022Y-56450497D01*
X55999000Y-56465415D01*
X58031000Y-56465415D01*
X58090717Y-56460653D01*
X58192004Y-56429286D01*
X58280543Y-56370944D01*
X58349322Y-56290244D01*
X58392896Y-56193579D01*
X58407814Y-56088601D01*
X58407814Y-54688928D01*
X63207107Y-49889636D01*
X63969402Y-49889636D01*
X63995715Y-49974604D01*
X64054057Y-50063143D01*
X64134757Y-50131922D01*
X64231422Y-50175496D01*
X64336400Y-50190414D01*
X66063600Y-50190414D01*
X66123317Y-50185652D01*
X66224604Y-50154285D01*
X66313143Y-50095943D01*
X66381922Y-50015243D01*
X66425496Y-49918578D01*
X66440414Y-49813600D01*
X66440414Y-48941353D01*
X66495437Y-48941353D01*
X66517346Y-49182090D01*
X66585597Y-49413988D01*
X66697591Y-49628212D01*
X66849061Y-49816603D01*
X67034239Y-49971986D01*
X67246071Y-50088441D01*
X67476488Y-50161534D01*
X67716713Y-50188479D01*
X67734007Y-50188600D01*
X67745993Y-50188600D01*
X67986572Y-50165011D01*
X68217987Y-50095143D01*
X68431424Y-49981656D01*
X68618753Y-49828874D01*
X68772839Y-49642616D01*
X68887813Y-49429977D01*
X68959295Y-49199055D01*
X68984563Y-48958647D01*
X68962654Y-48717910D01*
X68894403Y-48486012D01*
X68782409Y-48271788D01*
X68630939Y-48083397D01*
X68445761Y-47928014D01*
X68233929Y-47811559D01*
X68003512Y-47738466D01*
X67763287Y-47711521D01*
X67745993Y-47711400D01*
X67734007Y-47711400D01*
X67493428Y-47734989D01*
X67262013Y-47804857D01*
X67048576Y-47918344D01*
X66861247Y-48071126D01*
X66707161Y-48257384D01*
X66592187Y-48470023D01*
X66520705Y-48700945D01*
X66495437Y-48941353D01*
X66440414Y-48941353D01*
X66440414Y-48086400D01*
X66435652Y-48026683D01*
X66404285Y-47925396D01*
X66345943Y-47836857D01*
X66265243Y-47768078D01*
X66168578Y-47724504D01*
X66063600Y-47709586D01*
X64336400Y-47709586D01*
X64276683Y-47714348D01*
X64175396Y-47745715D01*
X64086857Y-47804057D01*
X64018078Y-47884757D01*
X63974504Y-47981422D01*
X63959586Y-48086400D01*
X63959586Y-48889636D01*
X63500000Y-48889636D01*
X63500000Y-46401353D01*
X63955437Y-46401353D01*
X63977346Y-46642090D01*
X64045597Y-46873988D01*
X64157591Y-47088212D01*
X64309061Y-47276603D01*
X64494239Y-47431986D01*
X64706071Y-47548441D01*
X64936488Y-47621534D01*
X65176713Y-47648479D01*
X65194007Y-47648600D01*
X65205993Y-47648600D01*
X65446572Y-47625011D01*
X65677987Y-47555143D01*
X65891424Y-47441656D01*
X66078753Y-47288874D01*
X66232839Y-47102616D01*
X66347813Y-46889977D01*
X66419295Y-46659055D01*
X66444563Y-46418647D01*
X66442990Y-46401353D01*
X66495437Y-46401353D01*
X66517346Y-46642090D01*
X66585597Y-46873988D01*
X66697591Y-47088212D01*
X66849061Y-47276603D01*
X67034239Y-47431986D01*
X67246071Y-47548441D01*
X67476488Y-47621534D01*
X67716713Y-47648479D01*
X67734007Y-47648600D01*
X67745993Y-47648600D01*
X67986572Y-47625011D01*
X68217987Y-47555143D01*
X68431424Y-47441656D01*
X68618753Y-47288874D01*
X68772839Y-47102616D01*
X68887813Y-46889977D01*
X68959295Y-46659055D01*
X68984563Y-46418647D01*
X68962654Y-46177910D01*
X68894403Y-45946012D01*
X68782409Y-45731788D01*
X68630939Y-45543397D01*
X68445761Y-45388014D01*
X68233929Y-45271559D01*
X68003512Y-45198466D01*
X67763287Y-45171521D01*
X67745993Y-45171400D01*
X67734007Y-45171400D01*
X67493428Y-45194989D01*
X67262013Y-45264857D01*
X67048576Y-45378344D01*
X66861247Y-45531126D01*
X66707161Y-45717384D01*
X66592187Y-45930023D01*
X66520705Y-46160945D01*
X66495437Y-46401353D01*
X66442990Y-46401353D01*
X66422654Y-46177910D01*
X66354403Y-45946012D01*
X66242409Y-45731788D01*
X66090939Y-45543397D01*
X65905761Y-45388014D01*
X65693929Y-45271559D01*
X65463512Y-45198466D01*
X65223287Y-45171521D01*
X65205993Y-45171400D01*
X65194007Y-45171400D01*
X64953428Y-45194989D01*
X64722013Y-45264857D01*
X64508576Y-45378344D01*
X64321247Y-45531126D01*
X64167161Y-45717384D01*
X64052187Y-45930023D01*
X63980705Y-46160945D01*
X63955437Y-46401353D01*
X63500000Y-46401353D01*
X63500000Y-43861353D01*
X63955437Y-43861353D01*
X63977346Y-44102090D01*
X64045597Y-44333988D01*
X64157591Y-44548212D01*
X64309061Y-44736603D01*
X64494239Y-44891986D01*
X64706071Y-45008441D01*
X64936488Y-45081534D01*
X65176713Y-45108479D01*
X65194007Y-45108600D01*
X65205993Y-45108600D01*
X65446572Y-45085011D01*
X65677987Y-45015143D01*
X65891424Y-44901656D01*
X66078753Y-44748874D01*
X66232839Y-44562616D01*
X66347813Y-44349977D01*
X66419295Y-44119055D01*
X66444563Y-43878647D01*
X66442990Y-43861353D01*
X66495437Y-43861353D01*
X66517346Y-44102090D01*
X66585597Y-44333988D01*
X66697591Y-44548212D01*
X66849061Y-44736603D01*
X67034239Y-44891986D01*
X67246071Y-45008441D01*
X67476488Y-45081534D01*
X67716713Y-45108479D01*
X67734007Y-45108600D01*
X67745993Y-45108600D01*
X67986572Y-45085011D01*
X68217987Y-45015143D01*
X68431424Y-44901656D01*
X68618753Y-44748874D01*
X68772839Y-44562616D01*
X68887813Y-44349977D01*
X68959295Y-44119055D01*
X68984563Y-43878647D01*
X68962654Y-43637910D01*
X68894403Y-43406012D01*
X68782409Y-43191788D01*
X68630939Y-43003397D01*
X68445761Y-42848014D01*
X68233929Y-42731559D01*
X68003512Y-42658466D01*
X67763287Y-42631521D01*
X67745993Y-42631400D01*
X67734007Y-42631400D01*
X67493428Y-42654989D01*
X67262013Y-42724857D01*
X67048576Y-42838344D01*
X66861247Y-42991126D01*
X66707161Y-43177384D01*
X66592187Y-43390023D01*
X66520705Y-43620945D01*
X66495437Y-43861353D01*
X66442990Y-43861353D01*
X66422654Y-43637910D01*
X66354403Y-43406012D01*
X66242409Y-43191788D01*
X66090939Y-43003397D01*
X65905761Y-42848014D01*
X65693929Y-42731559D01*
X65463512Y-42658466D01*
X65223287Y-42631521D01*
X65205993Y-42631400D01*
X65194007Y-42631400D01*
X64953428Y-42654989D01*
X64722013Y-42724857D01*
X64508576Y-42838344D01*
X64321247Y-42991126D01*
X64167161Y-43177384D01*
X64052187Y-43390023D01*
X63980705Y-43620945D01*
X63955437Y-43861353D01*
X63500000Y-43861353D01*
X63500000Y-40594090D01*
X63589510Y-40508851D01*
X63677119Y-40384657D01*
X63699601Y-40334161D01*
X63776692Y-40411252D01*
X63812337Y-40440531D01*
X63847761Y-40470256D01*
X63850068Y-40471524D01*
X63852097Y-40473191D01*
X63892766Y-40494998D01*
X63933274Y-40517267D01*
X63935781Y-40518062D01*
X63938097Y-40519304D01*
X63982260Y-40532806D01*
X64026289Y-40546773D01*
X64028900Y-40547066D01*
X64031416Y-40547835D01*
X64077392Y-40552505D01*
X64123264Y-40557650D01*
X64128402Y-40557686D01*
X64128500Y-40557696D01*
X64128591Y-40557687D01*
X64130245Y-40557699D01*
X64233082Y-40557699D01*
X64167161Y-40637384D01*
X64052187Y-40850023D01*
X63980705Y-41080945D01*
X63955437Y-41321353D01*
X63977346Y-41562090D01*
X64045597Y-41793988D01*
X64157591Y-42008212D01*
X64309061Y-42196603D01*
X64494239Y-42351986D01*
X64706071Y-42468441D01*
X64936488Y-42541534D01*
X65176713Y-42568479D01*
X65194007Y-42568600D01*
X65205993Y-42568600D01*
X65446572Y-42545011D01*
X65677987Y-42475143D01*
X65891424Y-42361656D01*
X66078753Y-42208874D01*
X66232839Y-42022616D01*
X66347813Y-41809977D01*
X66419295Y-41579055D01*
X66444563Y-41338647D01*
X66422654Y-41097910D01*
X66354403Y-40866012D01*
X66242409Y-40651788D01*
X66166760Y-40557699D01*
X66260593Y-40557699D01*
X66582904Y-40880011D01*
X66520705Y-41080945D01*
X66495437Y-41321353D01*
X66517346Y-41562090D01*
X66585597Y-41793988D01*
X66697591Y-42008212D01*
X66849061Y-42196603D01*
X67034239Y-42351986D01*
X67246071Y-42468441D01*
X67476488Y-42541534D01*
X67716713Y-42568479D01*
X67734007Y-42568600D01*
X67745993Y-42568600D01*
X67986572Y-42545011D01*
X68217987Y-42475143D01*
X68431424Y-42361656D01*
X68618753Y-42208874D01*
X68772839Y-42022616D01*
X68887813Y-41809977D01*
X68959295Y-41579055D01*
X68984563Y-41338647D01*
X68962654Y-41097910D01*
X68894403Y-40866012D01*
X68782409Y-40651788D01*
X68630939Y-40463397D01*
X68445761Y-40308014D01*
X68233929Y-40191559D01*
X68003512Y-40118466D01*
X67763287Y-40091521D01*
X67745993Y-40091400D01*
X67734007Y-40091400D01*
X67493428Y-40114989D01*
X67292699Y-40175592D01*
X66821252Y-39704146D01*
X66785607Y-39674867D01*
X66750183Y-39645142D01*
X66747876Y-39643874D01*
X66745847Y-39642207D01*
X66705178Y-39620400D01*
X66664670Y-39598131D01*
X66662163Y-39597336D01*
X66659847Y-39596094D01*
X66615684Y-39582592D01*
X66571655Y-39568625D01*
X66569044Y-39568332D01*
X66566528Y-39567563D01*
X66520552Y-39562893D01*
X66474680Y-39557748D01*
X66469542Y-39557712D01*
X66469444Y-39557702D01*
X66469353Y-39557711D01*
X66467699Y-39557699D01*
X66170725Y-39557699D01*
X66232839Y-39482616D01*
X66347813Y-39269977D01*
X66419295Y-39039055D01*
X66444563Y-38798647D01*
X66442990Y-38781353D01*
X66495437Y-38781353D01*
X66517346Y-39022090D01*
X66585597Y-39253988D01*
X66697591Y-39468212D01*
X66849061Y-39656603D01*
X67034239Y-39811986D01*
X67246071Y-39928441D01*
X67476488Y-40001534D01*
X67716713Y-40028479D01*
X67734007Y-40028600D01*
X67745993Y-40028600D01*
X67986572Y-40005011D01*
X68217987Y-39935143D01*
X68431424Y-39821656D01*
X68618753Y-39668874D01*
X68772839Y-39482616D01*
X68887813Y-39269977D01*
X68959295Y-39039055D01*
X68984563Y-38798647D01*
X68962654Y-38557910D01*
X68894403Y-38326012D01*
X68782409Y-38111788D01*
X68630939Y-37923397D01*
X68445761Y-37768014D01*
X68233929Y-37651559D01*
X68003512Y-37578466D01*
X67763287Y-37551521D01*
X67745993Y-37551400D01*
X67734007Y-37551400D01*
X67493428Y-37574989D01*
X67262013Y-37644857D01*
X67048576Y-37758344D01*
X66861247Y-37911126D01*
X66707161Y-38097384D01*
X66592187Y-38310023D01*
X66520705Y-38540945D01*
X66495437Y-38781353D01*
X66442990Y-38781353D01*
X66422654Y-38557910D01*
X66354403Y-38326012D01*
X66242409Y-38111788D01*
X66090939Y-37923397D01*
X65905761Y-37768014D01*
X65693929Y-37651559D01*
X65463512Y-37578466D01*
X65223287Y-37551521D01*
X65205993Y-37551400D01*
X65194007Y-37551400D01*
X64953428Y-37574989D01*
X64722013Y-37644857D01*
X64508576Y-37758344D01*
X64321247Y-37911126D01*
X64167161Y-38097384D01*
X64052187Y-38310023D01*
X63980705Y-38540945D01*
X63955437Y-38781353D01*
X63977346Y-39022090D01*
X64045597Y-39253988D01*
X64058696Y-39279044D01*
X63573967Y-38794315D01*
X63575949Y-38652377D01*
X63546429Y-38503286D01*
X63488511Y-38362769D01*
X63404404Y-38236177D01*
X63297310Y-38128333D01*
X63171308Y-38043344D01*
X63031199Y-37984447D01*
X62882318Y-37953886D01*
X62730336Y-37952825D01*
X62581043Y-37981304D01*
X62440124Y-38038239D01*
X62312948Y-38121461D01*
X62204359Y-38227799D01*
X62118492Y-38353204D01*
X62101037Y-38393931D01*
X59948459Y-36241353D01*
X63955437Y-36241353D01*
X63977346Y-36482090D01*
X64045597Y-36713988D01*
X64157591Y-36928212D01*
X64309061Y-37116603D01*
X64494239Y-37271986D01*
X64706071Y-37388441D01*
X64936488Y-37461534D01*
X65176713Y-37488479D01*
X65194007Y-37488600D01*
X65205993Y-37488600D01*
X65446572Y-37465011D01*
X65677987Y-37395143D01*
X65891424Y-37281656D01*
X66078753Y-37128874D01*
X66232839Y-36942616D01*
X66347813Y-36729977D01*
X66419295Y-36499055D01*
X66444563Y-36258647D01*
X66442990Y-36241353D01*
X66495437Y-36241353D01*
X66517346Y-36482090D01*
X66585597Y-36713988D01*
X66697591Y-36928212D01*
X66849061Y-37116603D01*
X67034239Y-37271986D01*
X67246071Y-37388441D01*
X67476488Y-37461534D01*
X67716713Y-37488479D01*
X67734007Y-37488600D01*
X67745993Y-37488600D01*
X67986572Y-37465011D01*
X68217987Y-37395143D01*
X68431424Y-37281656D01*
X68618753Y-37128874D01*
X68772839Y-36942616D01*
X68887813Y-36729977D01*
X68959295Y-36499055D01*
X68984563Y-36258647D01*
X68962654Y-36017910D01*
X68894403Y-35786012D01*
X68782409Y-35571788D01*
X68630939Y-35383397D01*
X68445761Y-35228014D01*
X68233929Y-35111559D01*
X68003512Y-35038466D01*
X67763287Y-35011521D01*
X67745993Y-35011400D01*
X67734007Y-35011400D01*
X67493428Y-35034989D01*
X67262013Y-35104857D01*
X67048576Y-35218344D01*
X66861247Y-35371126D01*
X66707161Y-35557384D01*
X66592187Y-35770023D01*
X66520705Y-36000945D01*
X66495437Y-36241353D01*
X66442990Y-36241353D01*
X66422654Y-36017910D01*
X66354403Y-35786012D01*
X66242409Y-35571788D01*
X66090939Y-35383397D01*
X65905761Y-35228014D01*
X65693929Y-35111559D01*
X65463512Y-35038466D01*
X65223287Y-35011521D01*
X65205993Y-35011400D01*
X65194007Y-35011400D01*
X64953428Y-35034989D01*
X64722013Y-35104857D01*
X64508576Y-35218344D01*
X64321247Y-35371126D01*
X64167161Y-35557384D01*
X64052187Y-35770023D01*
X63980705Y-36000945D01*
X63955437Y-36241353D01*
X59948459Y-36241353D01*
X58023051Y-34315945D01*
X58025033Y-34174007D01*
X57995513Y-34024916D01*
X57937595Y-33884399D01*
X57853488Y-33757807D01*
X57746394Y-33649963D01*
X57620392Y-33564974D01*
X57480283Y-33506077D01*
X57331402Y-33475516D01*
X57179420Y-33474455D01*
X57030127Y-33502934D01*
X56889208Y-33559869D01*
X56762032Y-33643091D01*
X56653443Y-33749429D01*
X56567576Y-33874834D01*
X56507703Y-34014529D01*
X56476103Y-34163194D01*
X56473981Y-34315164D01*
X56501417Y-34464653D01*
X56557367Y-34605965D01*
X56639699Y-34733719D01*
X56745277Y-34843048D01*
X56870079Y-34929788D01*
X57009353Y-34990635D01*
X57157793Y-35023272D01*
X57309745Y-35026455D01*
X57317909Y-35025015D01*
X62225827Y-39932933D01*
X62223981Y-40065164D01*
X62251417Y-40214653D01*
X62307367Y-40355965D01*
X62389699Y-40483719D01*
X62495277Y-40593048D01*
X62500000Y-40596331D01*
X62500000Y-49182529D01*
X57697943Y-53984587D01*
X55999000Y-53984587D01*
X55939283Y-53989349D01*
X55837996Y-54020716D01*
X55749457Y-54079058D01*
X55743314Y-54086265D01*
X55692643Y-54043079D01*
X55595978Y-53999505D01*
X55491000Y-53984587D01*
X53459000Y-53984587D01*
X53399283Y-53989349D01*
X53297996Y-54020716D01*
X53209457Y-54079058D01*
X53140678Y-54159758D01*
X53097104Y-54256423D01*
X53082186Y-54361401D01*
X48095705Y-54361401D01*
X49683301Y-52773806D01*
X49809745Y-52776455D01*
X49959421Y-52750063D01*
X50101121Y-52695101D01*
X50130661Y-52676354D01*
X53077300Y-52676354D01*
X53099209Y-52917091D01*
X53167460Y-53148989D01*
X53279454Y-53363213D01*
X53430924Y-53551604D01*
X53616102Y-53706987D01*
X53827934Y-53823442D01*
X54058351Y-53896535D01*
X54298576Y-53923480D01*
X54315870Y-53923601D01*
X54634130Y-53923601D01*
X54874709Y-53900012D01*
X55106124Y-53830144D01*
X55319561Y-53716657D01*
X55506890Y-53563875D01*
X55660976Y-53377617D01*
X55745378Y-53221519D01*
X55819454Y-53363213D01*
X55970924Y-53551604D01*
X56156102Y-53706987D01*
X56367934Y-53823442D01*
X56598351Y-53896535D01*
X56838576Y-53923480D01*
X56855870Y-53923601D01*
X57174130Y-53923601D01*
X57414709Y-53900012D01*
X57646124Y-53830144D01*
X57859561Y-53716657D01*
X58046890Y-53563875D01*
X58200976Y-53377617D01*
X58315950Y-53164978D01*
X58387432Y-52934056D01*
X58412700Y-52693648D01*
X58390791Y-52452911D01*
X58322540Y-52221013D01*
X58210546Y-52006789D01*
X58059076Y-51818398D01*
X57873898Y-51663015D01*
X57662066Y-51546560D01*
X57431649Y-51473467D01*
X57191424Y-51446522D01*
X57174130Y-51446401D01*
X56855870Y-51446401D01*
X56615291Y-51469990D01*
X56383876Y-51539858D01*
X56170439Y-51653345D01*
X55983110Y-51806127D01*
X55829024Y-51992385D01*
X55744622Y-52148483D01*
X55670546Y-52006789D01*
X55519076Y-51818398D01*
X55333898Y-51663015D01*
X55122066Y-51546560D01*
X54891649Y-51473467D01*
X54651424Y-51446522D01*
X54634130Y-51446401D01*
X54315870Y-51446401D01*
X54075291Y-51469990D01*
X53843876Y-51539858D01*
X53630439Y-51653345D01*
X53443110Y-51806127D01*
X53289024Y-51992385D01*
X53174050Y-52205024D01*
X53102568Y-52435946D01*
X53077300Y-52676354D01*
X50130661Y-52676354D01*
X50229446Y-52613663D01*
X50339510Y-52508851D01*
X50427119Y-52384657D01*
X50488937Y-52245812D01*
X50522609Y-52097603D01*
X50525033Y-51924007D01*
X50495513Y-51774916D01*
X50437595Y-51634399D01*
X50353488Y-51507807D01*
X50246394Y-51399963D01*
X50120392Y-51314974D01*
X49980283Y-51256077D01*
X49831402Y-51225516D01*
X49679420Y-51224455D01*
X49530127Y-51252934D01*
X49389208Y-51309869D01*
X49262032Y-51393091D01*
X49153443Y-51499429D01*
X49067576Y-51624834D01*
X49007703Y-51764529D01*
X48976103Y-51913194D01*
X48973981Y-52065164D01*
X48974562Y-52068331D01*
X46846447Y-54196447D01*
X46817168Y-54232092D01*
X46787443Y-54267516D01*
X46786175Y-54269823D01*
X46784508Y-54271852D01*
X46762701Y-54312521D01*
X46740432Y-54353029D01*
X46739637Y-54355536D01*
X46738395Y-54357852D01*
X46724893Y-54402015D01*
X46710926Y-54446044D01*
X46710633Y-54448655D01*
X46709864Y-54451171D01*
X46705194Y-54497147D01*
X46700049Y-54543019D01*
X46700013Y-54548157D01*
X46700003Y-54548255D01*
X46700012Y-54548346D01*
X46700000Y-54550000D01*
X46700000Y-64004874D01*
X46603443Y-64099429D01*
X46517576Y-64224834D01*
X46457703Y-64364529D01*
X46426103Y-64513194D01*
X46423981Y-64665164D01*
X39041942Y-64665164D01*
X39353554Y-64353553D01*
X39382880Y-64317852D01*
X39412557Y-64282484D01*
X39413823Y-64280181D01*
X39415493Y-64278148D01*
X39437320Y-64237440D01*
X39459568Y-64196971D01*
X39460363Y-64194464D01*
X39461605Y-64192148D01*
X39475107Y-64147985D01*
X39489074Y-64103956D01*
X39489367Y-64101345D01*
X39490136Y-64098829D01*
X39494806Y-64052853D01*
X39499951Y-64006981D01*
X39499987Y-64001843D01*
X39499997Y-64001745D01*
X39499988Y-64001654D01*
X39500000Y-64000000D01*
X39500000Y-56169190D01*
X45256708Y-50412482D01*
X53113227Y-50412482D01*
X53149582Y-50549702D01*
X53251074Y-50770770D01*
X53393744Y-50967790D01*
X53572110Y-51133191D01*
X53779317Y-51260617D01*
X54007402Y-51345170D01*
X54247600Y-51383601D01*
X54400000Y-51383601D01*
X54400000Y-50220001D01*
X54550000Y-50220001D01*
X54550000Y-51383601D01*
X54702400Y-51383601D01*
X54942598Y-51345170D01*
X55170683Y-51260617D01*
X55377890Y-51133191D01*
X55556256Y-50967790D01*
X55698926Y-50770770D01*
X55745000Y-50670412D01*
X55791074Y-50770770D01*
X55933744Y-50967790D01*
X56112110Y-51133191D01*
X56319317Y-51260617D01*
X56547402Y-51345170D01*
X56787600Y-51383601D01*
X56940000Y-51383601D01*
X56940000Y-50220001D01*
X57090000Y-50220001D01*
X57090000Y-51383601D01*
X57242400Y-51383601D01*
X57482598Y-51345170D01*
X57710683Y-51260617D01*
X57917890Y-51133191D01*
X58096256Y-50967790D01*
X58238926Y-50770770D01*
X58340418Y-50549702D01*
X58376773Y-50412482D01*
X58309791Y-50220001D01*
X57090000Y-50220001D01*
X56940000Y-50220001D01*
X54550000Y-50220001D01*
X54400000Y-50220001D01*
X53180209Y-50220001D01*
X53113227Y-50412482D01*
X45256708Y-50412482D01*
X45791670Y-49877520D01*
X53113227Y-49877520D01*
X53180209Y-50070001D01*
X54400000Y-50070001D01*
X54400000Y-48906401D01*
X54550000Y-48906401D01*
X54550000Y-50070001D01*
X56940000Y-50070001D01*
X56940000Y-48906401D01*
X57090000Y-48906401D01*
X57090000Y-50070001D01*
X58309791Y-50070001D01*
X58376773Y-49877520D01*
X58340418Y-49740300D01*
X58238926Y-49519232D01*
X58096256Y-49322212D01*
X57917890Y-49156811D01*
X57710683Y-49029385D01*
X57482598Y-48944832D01*
X57242400Y-48906401D01*
X57090000Y-48906401D01*
X56940000Y-48906401D01*
X56787600Y-48906401D01*
X56547402Y-48944832D01*
X56319317Y-49029385D01*
X56112110Y-49156811D01*
X55933744Y-49322212D01*
X55791074Y-49519232D01*
X55745000Y-49619590D01*
X55698926Y-49519232D01*
X55556256Y-49322212D01*
X55377890Y-49156811D01*
X55170683Y-49029385D01*
X54942598Y-48944832D01*
X54702400Y-48906401D01*
X54550000Y-48906401D01*
X54400000Y-48906401D01*
X54247600Y-48906401D01*
X54007402Y-48944832D01*
X53779317Y-49029385D01*
X53572110Y-49156811D01*
X53393744Y-49322212D01*
X53251074Y-49519232D01*
X53149582Y-49740300D01*
X53113227Y-49877520D01*
X45791670Y-49877520D01*
X54865795Y-40803395D01*
X54870431Y-40797751D01*
X54870431Y-42422462D01*
X53067475Y-44225419D01*
X52929420Y-44224455D01*
X52780127Y-44252934D01*
X52639208Y-44309869D01*
X52512032Y-44393091D01*
X52403443Y-44499429D01*
X52317576Y-44624834D01*
X52257703Y-44764529D01*
X52226103Y-44913194D01*
X52223981Y-45065164D01*
X52251417Y-45214653D01*
X52307367Y-45355965D01*
X52389699Y-45483719D01*
X52495277Y-45593048D01*
X52620079Y-45679788D01*
X52759353Y-45740635D01*
X52907793Y-45773272D01*
X52974546Y-45774670D01*
X52973981Y-45815164D01*
X53001417Y-45964653D01*
X53057367Y-46105965D01*
X53139699Y-46233719D01*
X53245277Y-46343048D01*
X53370079Y-46429788D01*
X53509353Y-46490635D01*
X53657793Y-46523272D01*
X53809745Y-46526455D01*
X53959421Y-46500063D01*
X54101121Y-46445101D01*
X54229446Y-46363663D01*
X54339510Y-46258851D01*
X54427119Y-46134657D01*
X54488937Y-45995812D01*
X54522609Y-45847603D01*
X54524919Y-45682187D01*
X56577968Y-43629139D01*
X56607268Y-43593469D01*
X56636972Y-43558069D01*
X56638240Y-43555762D01*
X56639907Y-43553733D01*
X56661714Y-43513064D01*
X56683983Y-43472556D01*
X56684778Y-43470049D01*
X56686020Y-43467733D01*
X56699522Y-43423570D01*
X56713489Y-43379541D01*
X56713782Y-43376930D01*
X56714551Y-43374414D01*
X56719216Y-43328482D01*
X56724366Y-43282566D01*
X56724402Y-43277417D01*
X56724411Y-43277330D01*
X56724403Y-43277249D01*
X56724415Y-43275585D01*
X56724415Y-35400126D01*
X56719910Y-35354174D01*
X56715883Y-35308151D01*
X56715150Y-35305627D01*
X56714893Y-35303009D01*
X56701542Y-35258791D01*
X56688658Y-35214442D01*
X56687448Y-35212107D01*
X56686688Y-35209591D01*
X56665010Y-35168820D01*
X56643751Y-35127807D01*
X56642111Y-35125752D01*
X56640876Y-35123430D01*
X56611669Y-35087620D01*
X56582870Y-35051544D01*
X56579259Y-35047882D01*
X56579200Y-35047809D01*
X56579133Y-35047753D01*
X56577969Y-35046573D01*
X54032194Y-32500798D01*
X58205854Y-32500798D01*
X58233290Y-32650287D01*
X58289240Y-32791599D01*
X58371572Y-32919353D01*
X58477150Y-33028682D01*
X58601952Y-33115422D01*
X58741226Y-33176269D01*
X58889666Y-33208906D01*
X59041618Y-33212089D01*
X59191294Y-33185697D01*
X59332994Y-33130735D01*
X59461319Y-33049297D01*
X59571383Y-32944485D01*
X59577627Y-32935634D01*
X64234790Y-32935634D01*
X64167161Y-33017384D01*
X64052187Y-33230023D01*
X63980705Y-33460945D01*
X63955437Y-33701353D01*
X63977346Y-33942090D01*
X64045597Y-34173988D01*
X64157591Y-34388212D01*
X64309061Y-34576603D01*
X64494239Y-34731986D01*
X64706071Y-34848441D01*
X64936488Y-34921534D01*
X65176713Y-34948479D01*
X65194007Y-34948600D01*
X65205993Y-34948600D01*
X65446572Y-34925011D01*
X65677987Y-34855143D01*
X65891424Y-34741656D01*
X66078753Y-34588874D01*
X66232839Y-34402616D01*
X66347813Y-34189977D01*
X66419295Y-33959055D01*
X66444563Y-33718647D01*
X66422654Y-33477910D01*
X66354403Y-33246012D01*
X66242409Y-33031788D01*
X66165099Y-32935634D01*
X66258528Y-32935634D01*
X66582904Y-33260011D01*
X66520705Y-33460945D01*
X66495437Y-33701353D01*
X66517346Y-33942090D01*
X66585597Y-34173988D01*
X66697591Y-34388212D01*
X66849061Y-34576603D01*
X67034239Y-34731986D01*
X67246071Y-34848441D01*
X67476488Y-34921534D01*
X67716713Y-34948479D01*
X67734007Y-34948600D01*
X67745993Y-34948600D01*
X67986572Y-34925011D01*
X68217987Y-34855143D01*
X68431424Y-34741656D01*
X68618753Y-34588874D01*
X68772839Y-34402616D01*
X68887813Y-34189977D01*
X68959295Y-33959055D01*
X68984563Y-33718647D01*
X68962654Y-33477910D01*
X68894403Y-33246012D01*
X68782409Y-33031788D01*
X68630939Y-32843397D01*
X68445761Y-32688014D01*
X68233929Y-32571559D01*
X68003512Y-32498466D01*
X67763287Y-32471521D01*
X67745993Y-32471400D01*
X67734007Y-32471400D01*
X67493428Y-32494989D01*
X67292699Y-32555592D01*
X66819187Y-32082081D01*
X66783542Y-32052802D01*
X66748118Y-32023077D01*
X66745811Y-32021809D01*
X66743782Y-32020142D01*
X66703113Y-31998335D01*
X66662605Y-31976066D01*
X66660098Y-31975271D01*
X66657782Y-31974029D01*
X66613619Y-31960527D01*
X66569590Y-31946560D01*
X66566979Y-31946267D01*
X66564463Y-31945498D01*
X66518487Y-31940828D01*
X66472615Y-31935683D01*
X66467477Y-31935647D01*
X66467379Y-31935637D01*
X66467288Y-31935646D01*
X66465634Y-31935634D01*
X66172433Y-31935634D01*
X66232839Y-31862616D01*
X66347813Y-31649977D01*
X66419295Y-31419055D01*
X66444563Y-31178647D01*
X66442990Y-31161353D01*
X66495437Y-31161353D01*
X66517346Y-31402090D01*
X66585597Y-31633988D01*
X66697591Y-31848212D01*
X66849061Y-32036603D01*
X67034239Y-32191986D01*
X67246071Y-32308441D01*
X67476488Y-32381534D01*
X67716713Y-32408479D01*
X67734007Y-32408600D01*
X67745993Y-32408600D01*
X67986572Y-32385011D01*
X68217987Y-32315143D01*
X68431424Y-32201656D01*
X68618753Y-32048874D01*
X68772839Y-31862616D01*
X68887813Y-31649977D01*
X68959295Y-31419055D01*
X68984563Y-31178647D01*
X68962654Y-30937910D01*
X68894403Y-30706012D01*
X68782409Y-30491788D01*
X68630939Y-30303397D01*
X68445761Y-30148014D01*
X68233929Y-30031559D01*
X68003512Y-29958466D01*
X67763287Y-29931521D01*
X67745993Y-29931400D01*
X67734007Y-29931400D01*
X67493428Y-29954989D01*
X67262013Y-30024857D01*
X67048576Y-30138344D01*
X66861247Y-30291126D01*
X66707161Y-30477384D01*
X66592187Y-30690023D01*
X66520705Y-30920945D01*
X66495437Y-31161353D01*
X66442990Y-31161353D01*
X66422654Y-30937910D01*
X66354403Y-30706012D01*
X66242409Y-30491788D01*
X66090939Y-30303397D01*
X65905761Y-30148014D01*
X65693929Y-30031559D01*
X65463512Y-29958466D01*
X65223287Y-29931521D01*
X65205993Y-29931400D01*
X65194007Y-29931400D01*
X64953428Y-29954989D01*
X64722013Y-30024857D01*
X64508576Y-30138344D01*
X64321247Y-30291126D01*
X64167161Y-30477384D01*
X64052187Y-30690023D01*
X63980705Y-30920945D01*
X63955437Y-31161353D01*
X63977346Y-31402090D01*
X64045597Y-31633988D01*
X64157591Y-31848212D01*
X64227880Y-31935634D01*
X59577608Y-31935634D01*
X59478267Y-31835597D01*
X59352265Y-31750608D01*
X59212156Y-31691711D01*
X59063275Y-31661150D01*
X58911293Y-31660089D01*
X58762000Y-31688568D01*
X58621081Y-31745503D01*
X58493905Y-31828725D01*
X58385316Y-31935063D01*
X58299449Y-32060468D01*
X58239576Y-32200163D01*
X58207976Y-32348828D01*
X58205854Y-32500798D01*
X54032194Y-32500798D01*
X50152749Y-28621353D01*
X63955437Y-28621353D01*
X63977346Y-28862090D01*
X64045597Y-29093988D01*
X64157591Y-29308212D01*
X64309061Y-29496603D01*
X64494239Y-29651986D01*
X64706071Y-29768441D01*
X64936488Y-29841534D01*
X65176713Y-29868479D01*
X65194007Y-29868600D01*
X65205993Y-29868600D01*
X65446572Y-29845011D01*
X65677987Y-29775143D01*
X65891424Y-29661656D01*
X66078753Y-29508874D01*
X66232839Y-29322616D01*
X66347813Y-29109977D01*
X66419295Y-28879055D01*
X66444563Y-28638647D01*
X66442990Y-28621353D01*
X66495437Y-28621353D01*
X66517346Y-28862090D01*
X66585597Y-29093988D01*
X66697591Y-29308212D01*
X66849061Y-29496603D01*
X67034239Y-29651986D01*
X67246071Y-29768441D01*
X67476488Y-29841534D01*
X67716713Y-29868479D01*
X67734007Y-29868600D01*
X67745993Y-29868600D01*
X67986572Y-29845011D01*
X68217987Y-29775143D01*
X68431424Y-29661656D01*
X68618753Y-29508874D01*
X68772839Y-29322616D01*
X68887813Y-29109977D01*
X68959295Y-28879055D01*
X68984563Y-28638647D01*
X68962654Y-28397910D01*
X68894403Y-28166012D01*
X68782409Y-27951788D01*
X68630939Y-27763397D01*
X68445761Y-27608014D01*
X68233929Y-27491559D01*
X68003512Y-27418466D01*
X67763287Y-27391521D01*
X67745993Y-27391400D01*
X67734007Y-27391400D01*
X67493428Y-27414989D01*
X67262013Y-27484857D01*
X67048576Y-27598344D01*
X66861247Y-27751126D01*
X66707161Y-27937384D01*
X66592187Y-28150023D01*
X66520705Y-28380945D01*
X66495437Y-28621353D01*
X66442990Y-28621353D01*
X66422654Y-28397910D01*
X66354403Y-28166012D01*
X66242409Y-27951788D01*
X66090939Y-27763397D01*
X65905761Y-27608014D01*
X65693929Y-27491559D01*
X65463512Y-27418466D01*
X65223287Y-27391521D01*
X65205993Y-27391400D01*
X65194007Y-27391400D01*
X64953428Y-27414989D01*
X64722013Y-27484857D01*
X64508576Y-27598344D01*
X64321247Y-27751126D01*
X64167161Y-27937384D01*
X64052187Y-28150023D01*
X63980705Y-28380945D01*
X63955437Y-28621353D01*
X50152749Y-28621353D01*
X47612749Y-26081353D01*
X63955437Y-26081353D01*
X63977346Y-26322090D01*
X64045597Y-26553988D01*
X64157591Y-26768212D01*
X64309061Y-26956603D01*
X64494239Y-27111986D01*
X64706071Y-27228441D01*
X64936488Y-27301534D01*
X65176713Y-27328479D01*
X65194007Y-27328600D01*
X65205993Y-27328600D01*
X65446572Y-27305011D01*
X65677987Y-27235143D01*
X65891424Y-27121656D01*
X66078753Y-26968874D01*
X66232839Y-26782616D01*
X66347813Y-26569977D01*
X66419295Y-26339055D01*
X66444563Y-26098647D01*
X66442990Y-26081353D01*
X66495437Y-26081353D01*
X66517346Y-26322090D01*
X66585597Y-26553988D01*
X66697591Y-26768212D01*
X66849061Y-26956603D01*
X67034239Y-27111986D01*
X67246071Y-27228441D01*
X67476488Y-27301534D01*
X67716713Y-27328479D01*
X67734007Y-27328600D01*
X67745993Y-27328600D01*
X67986572Y-27305011D01*
X68217987Y-27235143D01*
X68431424Y-27121656D01*
X68618753Y-26968874D01*
X68772839Y-26782616D01*
X68887813Y-26569977D01*
X68959295Y-26339055D01*
X68984563Y-26098647D01*
X68962654Y-25857910D01*
X68894403Y-25626012D01*
X68782409Y-25411788D01*
X68630939Y-25223397D01*
X68445761Y-25068014D01*
X68233929Y-24951559D01*
X68003512Y-24878466D01*
X67763287Y-24851521D01*
X67745993Y-24851400D01*
X67734007Y-24851400D01*
X67493428Y-24874989D01*
X67262013Y-24944857D01*
X67048576Y-25058344D01*
X66861247Y-25211126D01*
X66707161Y-25397384D01*
X66592187Y-25610023D01*
X66520705Y-25840945D01*
X66495437Y-26081353D01*
X66442990Y-26081353D01*
X66422654Y-25857910D01*
X66354403Y-25626012D01*
X66242409Y-25411788D01*
X66090939Y-25223397D01*
X65905761Y-25068014D01*
X65693929Y-24951559D01*
X65463512Y-24878466D01*
X65223287Y-24851521D01*
X65205993Y-24851400D01*
X65194007Y-24851400D01*
X64953428Y-24874989D01*
X64722013Y-24944857D01*
X64508576Y-25058344D01*
X64321247Y-25211126D01*
X64167161Y-25397384D01*
X64052187Y-25610023D01*
X63980705Y-25840945D01*
X63955437Y-26081353D01*
X47612749Y-26081353D01*
X45348877Y-23817481D01*
X63990627Y-23817481D01*
X64045836Y-23999492D01*
X64155704Y-24216021D01*
X64305704Y-24406956D01*
X64490071Y-24564958D01*
X64701721Y-24683956D01*
X64932519Y-24759377D01*
X65125000Y-24692581D01*
X65125000Y-23625000D01*
X65275000Y-23625000D01*
X65275000Y-24692581D01*
X65467481Y-24759377D01*
X65698279Y-24683956D01*
X65909929Y-24564958D01*
X66094296Y-24406956D01*
X66244296Y-24216021D01*
X66354164Y-23999492D01*
X66409373Y-23817481D01*
X66530627Y-23817481D01*
X66585836Y-23999492D01*
X66695704Y-24216021D01*
X66845704Y-24406956D01*
X67030071Y-24564958D01*
X67241721Y-24683956D01*
X67472519Y-24759377D01*
X67665000Y-24692581D01*
X67665000Y-23625000D01*
X67815000Y-23625000D01*
X67815000Y-24692581D01*
X68007481Y-24759377D01*
X68238279Y-24683956D01*
X68449929Y-24564958D01*
X68634296Y-24406956D01*
X68784296Y-24216021D01*
X68894164Y-23999492D01*
X68949373Y-23817481D01*
X68882391Y-23625000D01*
X67815000Y-23625000D01*
X67665000Y-23625000D01*
X66597609Y-23625000D01*
X66530627Y-23817481D01*
X66409373Y-23817481D01*
X66342391Y-23625000D01*
X65275000Y-23625000D01*
X65125000Y-23625000D01*
X64057609Y-23625000D01*
X63990627Y-23817481D01*
X45348877Y-23817481D01*
X44813915Y-23282519D01*
X63990627Y-23282519D01*
X64057609Y-23475000D01*
X65125000Y-23475000D01*
X65125000Y-22407419D01*
X65275000Y-22407419D01*
X65275000Y-23475000D01*
X66342391Y-23475000D01*
X66409373Y-23282519D01*
X66530627Y-23282519D01*
X66597609Y-23475000D01*
X67665000Y-23475000D01*
X67665000Y-22407419D01*
X67815000Y-22407419D01*
X67815000Y-23475000D01*
X68882391Y-23475000D01*
X68949373Y-23282519D01*
X68894164Y-23100508D01*
X68784296Y-22883979D01*
X68634296Y-22693044D01*
X68449929Y-22535042D01*
X68238279Y-22416044D01*
X68007481Y-22340623D01*
X67815000Y-22407419D01*
X67665000Y-22407419D01*
X67472519Y-22340623D01*
X67241721Y-22416044D01*
X67030071Y-22535042D01*
X66845704Y-22693044D01*
X66695704Y-22883979D01*
X66585836Y-23100508D01*
X66530627Y-23282519D01*
X66409373Y-23282519D01*
X66354164Y-23100508D01*
X66244296Y-22883979D01*
X66094296Y-22693044D01*
X65909929Y-22535042D01*
X65698279Y-22416044D01*
X65467481Y-22340623D01*
X65275000Y-22407419D01*
X65125000Y-22407419D01*
X64932519Y-22340623D01*
X64701721Y-22416044D01*
X64490071Y-22535042D01*
X64305704Y-22693044D01*
X64155704Y-22883979D01*
X64045836Y-23100508D01*
X63990627Y-23282519D01*
X44813915Y-23282519D01*
X38177842Y-16646447D01*
X38142197Y-16617168D01*
X38106773Y-16587443D01*
X38104466Y-16586175D01*
X38102437Y-16584508D01*
X38061768Y-16562701D01*
X38021260Y-16540432D01*
X38018753Y-16539637D01*
X38016437Y-16538395D01*
X37972274Y-16524893D01*
X37928245Y-16510926D01*
X37925634Y-16510633D01*
X37923118Y-16509864D01*
X37877142Y-16505194D01*
X37831270Y-16500049D01*
X37826132Y-16500013D01*
X37826034Y-16500003D01*
X37825943Y-16500012D01*
X37824289Y-16500000D01*
X36595735Y-16500000D01*
X36496394Y-16399963D01*
X36370392Y-16314974D01*
X36230283Y-16256077D01*
X36081402Y-16225516D01*
X35929420Y-16224455D01*
X35780127Y-16252934D01*
X35639208Y-16309869D01*
X35512032Y-16393091D01*
X35403443Y-16499429D01*
X35317576Y-16624834D01*
X35257703Y-16764529D01*
X35226103Y-16913194D01*
X35223981Y-17065164D01*
X35251417Y-17214653D01*
X35307367Y-17355965D01*
X35389699Y-17483719D01*
X35495277Y-17593048D01*
X35620079Y-17679788D01*
X35759353Y-17740635D01*
X35907793Y-17773272D01*
X36059745Y-17776455D01*
X36209421Y-17750063D01*
X36351121Y-17695101D01*
X36479446Y-17613663D01*
X36589510Y-17508851D01*
X36595754Y-17500000D01*
X37617183Y-17500000D01*
X55724415Y-35607233D01*
X55724415Y-35623954D01*
X55723984Y-35623517D01*
X43746913Y-23646447D01*
X43711268Y-23617168D01*
X43675844Y-23587443D01*
X43673537Y-23586175D01*
X43671508Y-23584508D01*
X43630839Y-23562701D01*
X43590331Y-23540432D01*
X43587824Y-23539637D01*
X43585508Y-23538395D01*
X43541345Y-23524893D01*
X43497316Y-23510926D01*
X43494705Y-23510633D01*
X43492189Y-23509864D01*
X43446213Y-23505194D01*
X43400341Y-23500049D01*
X43395203Y-23500013D01*
X43395105Y-23500003D01*
X43395014Y-23500012D01*
X43393360Y-23500000D01*
X36595735Y-23500000D01*
X36496394Y-23399963D01*
X36370392Y-23314974D01*
X36230283Y-23256077D01*
X36081402Y-23225516D01*
X35929420Y-23224455D01*
X35780127Y-23252934D01*
X35639208Y-23309869D01*
X35512032Y-23393091D01*
X35403443Y-23499429D01*
X35317576Y-23624834D01*
X35257703Y-23764529D01*
X35226103Y-23913194D01*
X35223981Y-24065164D01*
X35251417Y-24214653D01*
X35307367Y-24355965D01*
X35389699Y-24483719D01*
X35495277Y-24593048D01*
X35620079Y-24679788D01*
X35759353Y-24740635D01*
X35907793Y-24773272D01*
X36059745Y-24776455D01*
X36209421Y-24750063D01*
X36351121Y-24695101D01*
X36479446Y-24613663D01*
X36589510Y-24508851D01*
X36595754Y-24500000D01*
X43186254Y-24500000D01*
X53663706Y-34977453D01*
X53530127Y-35002934D01*
X53389208Y-35059869D01*
X53262032Y-35143091D01*
X53153443Y-35249429D01*
X53067576Y-35374834D01*
X53007703Y-35514529D01*
X52976103Y-35663194D01*
X52975243Y-35724775D01*
X52929420Y-35724455D01*
X52780127Y-35752934D01*
X52639208Y-35809869D01*
X52512032Y-35893091D01*
X52403443Y-35999429D01*
X52317576Y-36124834D01*
X52257703Y-36264529D01*
X52226103Y-36413194D01*
X52225004Y-36491897D01*
X46379554Y-30646447D01*
X46343909Y-30617168D01*
X46308485Y-30587443D01*
X46306178Y-30586175D01*
X46304149Y-30584508D01*
X46263480Y-30562701D01*
X46222972Y-30540432D01*
X46220465Y-30539637D01*
X46218149Y-30538395D01*
X46173986Y-30524893D01*
X46129957Y-30510926D01*
X46127346Y-30510633D01*
X46124830Y-30509864D01*
X46078854Y-30505194D01*
X46032982Y-30500049D01*
X46027844Y-30500013D01*
X46027746Y-30500003D01*
X46027655Y-30500012D01*
X46026001Y-30500000D01*
X36595735Y-30500000D01*
X36496394Y-30399963D01*
X36370392Y-30314974D01*
X36230283Y-30256077D01*
X36081402Y-30225516D01*
X35929420Y-30224455D01*
X35780127Y-30252934D01*
X35639208Y-30309869D01*
X35512032Y-30393091D01*
X35403443Y-30499429D01*
X35317576Y-30624834D01*
X35257703Y-30764529D01*
X35226103Y-30913194D01*
X35223981Y-31065164D01*
X35251417Y-31214653D01*
X35307367Y-31355965D01*
X35389699Y-31483719D01*
X35495277Y-31593048D01*
X35620079Y-31679788D01*
X35759353Y-31740635D01*
X35907793Y-31773272D01*
X36059745Y-31776455D01*
X36209421Y-31750063D01*
X36351121Y-31695101D01*
X36479446Y-31613663D01*
X36589510Y-31508851D01*
X36595754Y-31500000D01*
X45818895Y-31500000D01*
X50068895Y-35750000D01*
X37750000Y-35750000D01*
X37704048Y-35754505D01*
X37658025Y-35758532D01*
X37655501Y-35759265D01*
X37652883Y-35759522D01*
X37608665Y-35772873D01*
X37564316Y-35785757D01*
X37561981Y-35786967D01*
X37559465Y-35787727D01*
X37518694Y-35809405D01*
X37477681Y-35830664D01*
X37475626Y-35832304D01*
X37473304Y-35833539D01*
X37437494Y-35862746D01*
X37401418Y-35891545D01*
X37397756Y-35895156D01*
X37397683Y-35895215D01*
X37397627Y-35895282D01*
X37396447Y-35896446D01*
X36067475Y-37225419D01*
X35929420Y-37224455D01*
X35780127Y-37252934D01*
X35639208Y-37309869D01*
X35512032Y-37393091D01*
X35403443Y-37499429D01*
X35317576Y-37624834D01*
X35257703Y-37764529D01*
X35226103Y-37913194D01*
X35223981Y-38065164D01*
X35251417Y-38214653D01*
X35307367Y-38355965D01*
X35389699Y-38483719D01*
X35495277Y-38593048D01*
X35620079Y-38679788D01*
X35759353Y-38740635D01*
X35907793Y-38773272D01*
X36059745Y-38776455D01*
X36209421Y-38750063D01*
X36351121Y-38695101D01*
X36479446Y-38613663D01*
X36589510Y-38508851D01*
X36677119Y-38384657D01*
X36738937Y-38245812D01*
X36772609Y-38097603D01*
X36774919Y-37932187D01*
X37957107Y-36750000D01*
X50026149Y-36750000D01*
X51001104Y-37724955D01*
X50929420Y-37724455D01*
X50780127Y-37752934D01*
X50639208Y-37809869D01*
X50512032Y-37893091D01*
X50403443Y-37999429D01*
X50403052Y-38000000D01*
X40250000Y-38000000D01*
X40204052Y-38004505D01*
X40158025Y-38008532D01*
X40155501Y-38009265D01*
X40152883Y-38009522D01*
X40108665Y-38022873D01*
X40064316Y-38035757D01*
X40061981Y-38036967D01*
X40059465Y-38037727D01*
X40018694Y-38059405D01*
X39977681Y-38080664D01*
X39975626Y-38082304D01*
X39973304Y-38083539D01*
X39937494Y-38112746D01*
X39901418Y-38141545D01*
X39897760Y-38145152D01*
X39897683Y-38145215D01*
X39897624Y-38145286D01*
X39896447Y-38146447D01*
X33832964Y-44209930D01*
X33803685Y-44245575D01*
X33773960Y-44280999D01*
X33772692Y-44283306D01*
X33771025Y-44285335D01*
X33749218Y-44326004D01*
X33726949Y-44366512D01*
X33726154Y-44369019D01*
X33724912Y-44371335D01*
X33711410Y-44415498D01*
X33697443Y-44459527D01*
X33697150Y-44462138D01*
X33696381Y-44464654D01*
X33691711Y-44510630D01*
X33686566Y-44556502D01*
X33686530Y-44561640D01*
X33686520Y-44561738D01*
X33686529Y-44561829D01*
X33686517Y-44563483D01*
X12132821Y-44563483D01*
X12045876Y-44432877D01*
X11720050Y-44258949D01*
X11366552Y-44151928D01*
X10998968Y-44115927D01*
X10631423Y-44152330D01*
X10278043Y-44259738D01*
X9954124Y-44432877D01*
X9788196Y-44682130D01*
X8173936Y-44682130D01*
X8070704Y-44526755D01*
X7880699Y-44335418D01*
X7657148Y-44184631D01*
X7408566Y-44080137D01*
X7144422Y-44025916D01*
X6874777Y-44024033D01*
X6609902Y-44074561D01*
X6359886Y-44175574D01*
X6134251Y-44323225D01*
X5941592Y-44511891D01*
X5789248Y-44734384D01*
X5683021Y-44982230D01*
X5626958Y-45245989D01*
X5623193Y-45515614D01*
X5539383Y-45515614D01*
X5618445Y-45167622D01*
X5625091Y-44691633D01*
X5544147Y-44282836D01*
X5385342Y-43897546D01*
X5154725Y-43550439D01*
X4861080Y-43254737D01*
X4515592Y-43021702D01*
X4131420Y-42860211D01*
X3723198Y-42776415D01*
X3306474Y-42773506D01*
X2897121Y-42851594D01*
X2510732Y-43007705D01*
X2162024Y-43235894D01*
X1864279Y-43527467D01*
X1628838Y-43871320D01*
X1464669Y-44254355D01*
X1378025Y-44661982D01*
X1372207Y-45078676D01*
X450000Y-45078676D01*
X450000Y-36178676D01*
X1372207Y-36178676D01*
X1447435Y-36588563D01*
X1600845Y-36976033D01*
X1826593Y-37326326D01*
X2116081Y-37626099D01*
X2458282Y-37863935D01*
X2840162Y-38030774D01*
X3247174Y-38120261D01*
X3663817Y-38128989D01*
X4074220Y-38056624D01*
X4462751Y-37905922D01*
X4814611Y-37682625D01*
X5116398Y-37395237D01*
X5356617Y-37054705D01*
X5526118Y-36674000D01*
X5618445Y-36267622D01*
X5625091Y-35791633D01*
X5590239Y-35615614D01*
X5623193Y-35615614D01*
X5671870Y-35880835D01*
X5771135Y-36131551D01*
X5917208Y-36358211D01*
X6104523Y-36552182D01*
X6325947Y-36706075D01*
X6573046Y-36814030D01*
X6836407Y-36871934D01*
X7105999Y-36877581D01*
X7371554Y-36830756D01*
X7622956Y-36733244D01*
X7850631Y-36588757D01*
X8045904Y-36402801D01*
X8201340Y-36182456D01*
X8311017Y-35936117D01*
X8370758Y-35673167D01*
X8375059Y-35365174D01*
X8322683Y-35100658D01*
X8304959Y-35057655D01*
X9122536Y-35057655D01*
X9188914Y-35419321D01*
X9324276Y-35761205D01*
X9523465Y-36070287D01*
X9778895Y-36334793D01*
X10080837Y-36544648D01*
X10417790Y-36691859D01*
X10776918Y-36770819D01*
X11144544Y-36778519D01*
X11506664Y-36714668D01*
X11849486Y-36581696D01*
X12159951Y-36384669D01*
X12426233Y-36131091D01*
X12638191Y-35830622D01*
X12787751Y-35494706D01*
X12869216Y-35136137D01*
X12875080Y-34716147D01*
X12803659Y-34355443D01*
X12663537Y-34015482D01*
X12460051Y-33709211D01*
X12200953Y-33448298D01*
X11896110Y-33242679D01*
X11557135Y-33100187D01*
X11196939Y-33026249D01*
X10829242Y-33023682D01*
X10468048Y-33092583D01*
X10127117Y-33230329D01*
X9819433Y-33431671D01*
X9556717Y-33688942D01*
X9348975Y-33992341D01*
X9204120Y-34330313D01*
X9127670Y-34689985D01*
X9122536Y-35057655D01*
X8304959Y-35057655D01*
X8219927Y-34851353D01*
X8070704Y-34626755D01*
X7880699Y-34435418D01*
X7657148Y-34284631D01*
X7408566Y-34180137D01*
X7144422Y-34125916D01*
X6874777Y-34124033D01*
X6609902Y-34174561D01*
X6359886Y-34275574D01*
X6134251Y-34423225D01*
X5941592Y-34611891D01*
X5789248Y-34834384D01*
X5683021Y-35082230D01*
X5626958Y-35345989D01*
X5623193Y-35615614D01*
X5590239Y-35615614D01*
X5544147Y-35382836D01*
X5385342Y-34997546D01*
X5154725Y-34650439D01*
X4861080Y-34354737D01*
X4515592Y-34121702D01*
X4131420Y-33960211D01*
X3723198Y-33876415D01*
X3306474Y-33873506D01*
X2897121Y-33951594D01*
X2510732Y-34107705D01*
X2162024Y-34335894D01*
X1864279Y-34627467D01*
X1628838Y-34971320D01*
X1464669Y-35354355D01*
X1378025Y-35761982D01*
X1372207Y-36178676D01*
X450000Y-36178676D01*
X450000Y-32417870D01*
X9788196Y-32417870D01*
X9954124Y-32667123D01*
X10279950Y-32841051D01*
X10633448Y-32948072D01*
X11001032Y-32984073D01*
X11368577Y-32947670D01*
X11721957Y-32840262D01*
X12045876Y-32667123D01*
X12211804Y-32417870D01*
X11000000Y-31206066D01*
X9788196Y-32417870D01*
X450000Y-32417870D01*
X450000Y-30178676D01*
X1372207Y-30178676D01*
X1447435Y-30588563D01*
X1600845Y-30976033D01*
X1826593Y-31326326D01*
X2116081Y-31626099D01*
X2458282Y-31863935D01*
X2840162Y-32030774D01*
X3247174Y-32120261D01*
X3663817Y-32128989D01*
X4074220Y-32056624D01*
X4462751Y-31905922D01*
X4814611Y-31682625D01*
X5116398Y-31395237D01*
X5356617Y-31054705D01*
X5526118Y-30674000D01*
X5539383Y-30615614D01*
X5623193Y-30615614D01*
X5671870Y-30880835D01*
X5771135Y-31131551D01*
X5917208Y-31358211D01*
X6104523Y-31552182D01*
X6325947Y-31706075D01*
X6573046Y-31814030D01*
X6836407Y-31871934D01*
X7105999Y-31877581D01*
X7371554Y-31830756D01*
X7622956Y-31733244D01*
X7850631Y-31588757D01*
X8045904Y-31402801D01*
X8201340Y-31182456D01*
X8237592Y-31101032D01*
X9115927Y-31101032D01*
X9152330Y-31468577D01*
X9259738Y-31821957D01*
X9432877Y-32145876D01*
X9682130Y-32311804D01*
X10893934Y-31100000D01*
X11106066Y-31100000D01*
X12317870Y-32311804D01*
X12567123Y-32145876D01*
X12741051Y-31820050D01*
X12848072Y-31466552D01*
X12884073Y-31098968D01*
X12847670Y-30731423D01*
X12740262Y-30378043D01*
X12567123Y-30054124D01*
X12317870Y-29888196D01*
X11106066Y-31100000D01*
X10893934Y-31100000D01*
X9682130Y-29888196D01*
X9432877Y-30054124D01*
X9258949Y-30379950D01*
X9151928Y-30733448D01*
X9115927Y-31101032D01*
X8237592Y-31101032D01*
X8311017Y-30936117D01*
X8370758Y-30673167D01*
X8375059Y-30365174D01*
X8322683Y-30100658D01*
X8219927Y-29851353D01*
X8173936Y-29782130D01*
X9788196Y-29782130D01*
X11000000Y-30993934D01*
X12211804Y-29782130D01*
X12045876Y-29532877D01*
X11720050Y-29358949D01*
X11366552Y-29251928D01*
X10998968Y-29215927D01*
X10631423Y-29252330D01*
X10278043Y-29359738D01*
X9954124Y-29532877D01*
X9788196Y-29782130D01*
X8173936Y-29782130D01*
X8070704Y-29626755D01*
X7880699Y-29435418D01*
X7657148Y-29284631D01*
X7408566Y-29180137D01*
X7144422Y-29125916D01*
X6874777Y-29124033D01*
X6609902Y-29174561D01*
X6359886Y-29275574D01*
X6134251Y-29423225D01*
X5941592Y-29611891D01*
X5789248Y-29834384D01*
X5683021Y-30082230D01*
X5626958Y-30345989D01*
X5623193Y-30615614D01*
X5539383Y-30615614D01*
X5618445Y-30267622D01*
X5625091Y-29791633D01*
X5544147Y-29382836D01*
X5385342Y-28997546D01*
X5154725Y-28650439D01*
X4861080Y-28354737D01*
X4515592Y-28121702D01*
X4131420Y-27960211D01*
X3723198Y-27876415D01*
X3306474Y-27873506D01*
X2897121Y-27951594D01*
X2510732Y-28107705D01*
X2162024Y-28335894D01*
X1864279Y-28627467D01*
X1628838Y-28971320D01*
X1464669Y-29354355D01*
X1378025Y-29761982D01*
X1372207Y-30178676D01*
X450000Y-30178676D01*
X450000Y-22078676D01*
X1372207Y-22078676D01*
X1447435Y-22488563D01*
X1600845Y-22876033D01*
X1826593Y-23226326D01*
X2116081Y-23526099D01*
X2458282Y-23763935D01*
X2840162Y-23930774D01*
X3247174Y-24020261D01*
X3663817Y-24028989D01*
X4074220Y-23956624D01*
X4462751Y-23805922D01*
X4814611Y-23582625D01*
X5116398Y-23295237D01*
X5356617Y-22954705D01*
X5526118Y-22574000D01*
X5618445Y-22167622D01*
X5625091Y-21691633D01*
X5590239Y-21515614D01*
X5623193Y-21515614D01*
X5671870Y-21780835D01*
X5771135Y-22031551D01*
X5917208Y-22258211D01*
X6104523Y-22452182D01*
X6325947Y-22606075D01*
X6573046Y-22714030D01*
X6836407Y-22771934D01*
X7105999Y-22777581D01*
X7371554Y-22730756D01*
X7622956Y-22633244D01*
X7850631Y-22488757D01*
X8045904Y-22302801D01*
X8201340Y-22082456D01*
X8311017Y-21836117D01*
X8370758Y-21573167D01*
X8375059Y-21265174D01*
X8322683Y-21000658D01*
X8304959Y-20957655D01*
X9122536Y-20957655D01*
X9188914Y-21319321D01*
X9324276Y-21661205D01*
X9523465Y-21970287D01*
X9778895Y-22234793D01*
X10080837Y-22444648D01*
X10417790Y-22591859D01*
X10776918Y-22670819D01*
X11144544Y-22678519D01*
X11506664Y-22614668D01*
X11849486Y-22481696D01*
X12159951Y-22284669D01*
X12426233Y-22031091D01*
X12638191Y-21730622D01*
X12787751Y-21394706D01*
X12869216Y-21036137D01*
X12875080Y-20616147D01*
X12803659Y-20255443D01*
X12663537Y-19915482D01*
X12460051Y-19609211D01*
X12200953Y-19348298D01*
X11896110Y-19142679D01*
X11557135Y-19000187D01*
X11196939Y-18926249D01*
X10829242Y-18923682D01*
X10468048Y-18992583D01*
X10127117Y-19130329D01*
X9819433Y-19331671D01*
X9556717Y-19588942D01*
X9348975Y-19892341D01*
X9204120Y-20230313D01*
X9127670Y-20589985D01*
X9122536Y-20957655D01*
X8304959Y-20957655D01*
X8219927Y-20751353D01*
X8070704Y-20526755D01*
X7880699Y-20335418D01*
X7657148Y-20184631D01*
X7408566Y-20080137D01*
X7144422Y-20025916D01*
X6874777Y-20024033D01*
X6609902Y-20074561D01*
X6359886Y-20175574D01*
X6134251Y-20323225D01*
X5941592Y-20511891D01*
X5789248Y-20734384D01*
X5683021Y-20982230D01*
X5626958Y-21245989D01*
X5623193Y-21515614D01*
X5590239Y-21515614D01*
X5544147Y-21282836D01*
X5385342Y-20897546D01*
X5154725Y-20550439D01*
X4861080Y-20254737D01*
X4515592Y-20021702D01*
X4131420Y-19860211D01*
X3723198Y-19776415D01*
X3306474Y-19773506D01*
X2897121Y-19851594D01*
X2510732Y-20007705D01*
X2162024Y-20235894D01*
X1864279Y-20527467D01*
X1628838Y-20871320D01*
X1464669Y-21254355D01*
X1378025Y-21661982D01*
X1372207Y-22078676D01*
X450000Y-22078676D01*
X450000Y-18317870D01*
X9788196Y-18317870D01*
X9954124Y-18567123D01*
X10279950Y-18741051D01*
X10633448Y-18848072D01*
X11001032Y-18884073D01*
X11368577Y-18847670D01*
X11721957Y-18740262D01*
X12045876Y-18567123D01*
X12211804Y-18317870D01*
X11000000Y-17106066D01*
X9788196Y-18317870D01*
X450000Y-18317870D01*
X450000Y-16078676D01*
X1372207Y-16078676D01*
X1447435Y-16488563D01*
X1600845Y-16876033D01*
X1826593Y-17226326D01*
X2116081Y-17526099D01*
X2458282Y-17763935D01*
X2840162Y-17930774D01*
X3247174Y-18020261D01*
X3663817Y-18028989D01*
X4074220Y-17956624D01*
X4462751Y-17805922D01*
X4814611Y-17582625D01*
X5116398Y-17295237D01*
X5356617Y-16954705D01*
X5526118Y-16574000D01*
X5539383Y-16515614D01*
X5623193Y-16515614D01*
X5671870Y-16780835D01*
X5771135Y-17031551D01*
X5917208Y-17258211D01*
X6104523Y-17452182D01*
X6325947Y-17606075D01*
X6573046Y-17714030D01*
X6836407Y-17771934D01*
X7105999Y-17777581D01*
X7371554Y-17730756D01*
X7622956Y-17633244D01*
X7850631Y-17488757D01*
X8045904Y-17302801D01*
X8201340Y-17082456D01*
X8237592Y-17001032D01*
X9115927Y-17001032D01*
X9152330Y-17368577D01*
X9259738Y-17721957D01*
X9432877Y-18045876D01*
X9682130Y-18211804D01*
X10893934Y-17000000D01*
X11106066Y-17000000D01*
X12317870Y-18211804D01*
X12567123Y-18045876D01*
X12741051Y-17720050D01*
X12848072Y-17366552D01*
X12884073Y-16998968D01*
X12847670Y-16631423D01*
X12740262Y-16278043D01*
X12567123Y-15954124D01*
X12317870Y-15788196D01*
X11106066Y-17000000D01*
X10893934Y-17000000D01*
X9682130Y-15788196D01*
X9432877Y-15954124D01*
X9258949Y-16279950D01*
X9151928Y-16633448D01*
X9115927Y-17001032D01*
X8237592Y-17001032D01*
X8311017Y-16836117D01*
X8370758Y-16573167D01*
X8375059Y-16265174D01*
X8322683Y-16000658D01*
X8219927Y-15751353D01*
X8173936Y-15682130D01*
X9788196Y-15682130D01*
X11000000Y-16893934D01*
X12211804Y-15682130D01*
X12045876Y-15432877D01*
X11720050Y-15258949D01*
X11366552Y-15151928D01*
X10998968Y-15115927D01*
X10631423Y-15152330D01*
X10278043Y-15259738D01*
X9954124Y-15432877D01*
X9788196Y-15682130D01*
X8173936Y-15682130D01*
X8070704Y-15526755D01*
X7880699Y-15335418D01*
X7657148Y-15184631D01*
X7408566Y-15080137D01*
X7144422Y-15025916D01*
X6874777Y-15024033D01*
X6609902Y-15074561D01*
X6359886Y-15175574D01*
X6134251Y-15323225D01*
X5941592Y-15511891D01*
X5789248Y-15734384D01*
X5683021Y-15982230D01*
X5626958Y-16245989D01*
X5623193Y-16515614D01*
X5539383Y-16515614D01*
X5618445Y-16167622D01*
X5625091Y-15691633D01*
X5544147Y-15282836D01*
X5385342Y-14897546D01*
X5154725Y-14550439D01*
X4861080Y-14254737D01*
X4515592Y-14021702D01*
X4131420Y-13860211D01*
X3723198Y-13776415D01*
X3306474Y-13773506D01*
X2897121Y-13851594D01*
X2510732Y-14007705D01*
X2162024Y-14235894D01*
X1864279Y-14527467D01*
X1628838Y-14871320D01*
X1464669Y-15254355D01*
X1378025Y-15661982D01*
X1372207Y-16078676D01*
X450000Y-16078676D01*
X450000Y-5483779D01*
X1820564Y-5483779D01*
X1940044Y-6134777D01*
X2183696Y-6750170D01*
X2542237Y-7306517D01*
X3002012Y-7782628D01*
X3545507Y-8160367D01*
X4152021Y-8425346D01*
X4798453Y-8567474D01*
X5460180Y-8581335D01*
X6111996Y-8466402D01*
X6729075Y-8227053D01*
X7287911Y-7872405D01*
X7767220Y-7415965D01*
X8148744Y-6875120D01*
X8417952Y-6270470D01*
X8564588Y-5625046D01*
X8566560Y-5483779D01*
X61820564Y-5483779D01*
X61940044Y-6134777D01*
X62183696Y-6750170D01*
X62542237Y-7306517D01*
X63002012Y-7782628D01*
X63545507Y-8160367D01*
X64152021Y-8425346D01*
X64798453Y-8567474D01*
X65460180Y-8581335D01*
X66111996Y-8466402D01*
X66729075Y-8227053D01*
X67287911Y-7872405D01*
X67767220Y-7415965D01*
X68148744Y-6875120D01*
X68417952Y-6270470D01*
X68564588Y-5625046D01*
X68575145Y-4869064D01*
X68446586Y-4219798D01*
X68194367Y-3607867D01*
X67828092Y-3056580D01*
X67361715Y-2586935D01*
X66812999Y-2216821D01*
X66202844Y-1960336D01*
X65554491Y-1827248D01*
X64892635Y-1822627D01*
X64242487Y-1946650D01*
X63628810Y-2194591D01*
X63074980Y-2557008D01*
X62602090Y-3020095D01*
X62228155Y-3566214D01*
X61967416Y-4174564D01*
X61829805Y-4821972D01*
X61820564Y-5483779D01*
X8566560Y-5483779D01*
X8575145Y-4869064D01*
X8446586Y-4219798D01*
X8194367Y-3607867D01*
X7828092Y-3056580D01*
X7361715Y-2586935D01*
X6812999Y-2216821D01*
X6202844Y-1960336D01*
X5554491Y-1827248D01*
X4892635Y-1822627D01*
X4242487Y-1946650D01*
X3628810Y-2194591D01*
X3074980Y-2557008D01*
X2602090Y-3020095D01*
X2228155Y-3566214D01*
X1967416Y-4174564D01*
X1829805Y-4821972D01*
X1820564Y-5483779D01*
X450000Y-5483779D01*
X450000Y-450000D01*
X69950000Y-450000D01*
X69950000Y-83950000D01*
X69950000Y-83950000D01*
G37*
X69950000Y-83950000D02*
X450000Y-83950000D01*
X450000Y-79483779D01*
X1820564Y-79483779D01*
X1940044Y-80134777D01*
X2183696Y-80750170D01*
X2542237Y-81306517D01*
X3002012Y-81782628D01*
X3545507Y-82160367D01*
X4152021Y-82425346D01*
X4798453Y-82567474D01*
X5460180Y-82581335D01*
X6111996Y-82466402D01*
X6729075Y-82227053D01*
X7287911Y-81872405D01*
X7767220Y-81415965D01*
X8148744Y-80875120D01*
X8417952Y-80270470D01*
X8564588Y-79625046D01*
X8575145Y-78869064D01*
X8446586Y-78219798D01*
X8194367Y-77607867D01*
X7847583Y-77085916D01*
X11847100Y-77085916D01*
X11980969Y-78279385D01*
X12344101Y-79424122D01*
X12922664Y-80476524D01*
X13694622Y-81396508D01*
X14630570Y-82149029D01*
X15694858Y-82705426D01*
X16846949Y-83044505D01*
X18042959Y-83153350D01*
X19237333Y-83027816D01*
X20384577Y-82672685D01*
X21440994Y-82101483D01*
X22366344Y-81335967D01*
X23125381Y-80405295D01*
X23689194Y-79344917D01*
X24036308Y-78195221D01*
X24145075Y-77085916D01*
X24847100Y-77085916D01*
X24980969Y-78279385D01*
X25344101Y-79424122D01*
X25922664Y-80476524D01*
X26694622Y-81396508D01*
X27630570Y-82149029D01*
X28694858Y-82705426D01*
X29846949Y-83044505D01*
X31042959Y-83153350D01*
X32237333Y-83027816D01*
X33384577Y-82672685D01*
X34440994Y-82101483D01*
X35366344Y-81335967D01*
X36125381Y-80405295D01*
X36689194Y-79344917D01*
X37036308Y-78195221D01*
X37153500Y-77000000D01*
X37151101Y-76828184D01*
X37000582Y-75636701D01*
X36621502Y-74497146D01*
X36028301Y-73452924D01*
X35399975Y-72725000D01*
X37310716Y-72725000D01*
X37310716Y-80975000D01*
X60289285Y-80975000D01*
X60289285Y-79483779D01*
X61820564Y-79483779D01*
X61940044Y-80134777D01*
X62183696Y-80750170D01*
X62542237Y-81306517D01*
X63002012Y-81782628D01*
X63545507Y-82160367D01*
X64152021Y-82425346D01*
X64798453Y-82567474D01*
X65460180Y-82581335D01*
X66111996Y-82466402D01*
X66729075Y-82227053D01*
X67287911Y-81872405D01*
X67767220Y-81415965D01*
X68148744Y-80875120D01*
X68417952Y-80270470D01*
X68564588Y-79625046D01*
X68575145Y-78869064D01*
X68446586Y-78219798D01*
X68194367Y-77607867D01*
X67828092Y-77056580D01*
X67361715Y-76586935D01*
X66812999Y-76216821D01*
X66202844Y-75960336D01*
X65554491Y-75827248D01*
X64892635Y-75822627D01*
X64242487Y-75946650D01*
X63628810Y-76194591D01*
X63074980Y-76557008D01*
X62602090Y-77020095D01*
X62228155Y-77566214D01*
X61967416Y-78174564D01*
X61829805Y-78821972D01*
X61820564Y-79483779D01*
X60289285Y-79483779D01*
X60289285Y-72725000D01*
X37310716Y-72725000D01*
X35399975Y-72725000D01*
X35243574Y-72543808D01*
X34297210Y-71804428D01*
X33225257Y-71262945D01*
X32068544Y-70939985D01*
X30871131Y-70847850D01*
X29678626Y-70990047D01*
X28536452Y-71361162D01*
X27488114Y-71947058D01*
X26573543Y-72725420D01*
X25827573Y-73666599D01*
X25278620Y-74734746D01*
X24947593Y-75889175D01*
X24847100Y-77085916D01*
X24145075Y-77085916D01*
X24153500Y-77000000D01*
X24151101Y-76828184D01*
X24000582Y-75636701D01*
X23621502Y-74497146D01*
X23028301Y-73452924D01*
X22243574Y-72543808D01*
X21297210Y-71804428D01*
X20225257Y-71262945D01*
X19068544Y-70939985D01*
X17871131Y-70847850D01*
X16678626Y-70990047D01*
X15536452Y-71361162D01*
X14488114Y-71947058D01*
X13573543Y-72725420D01*
X12827573Y-73666599D01*
X12278620Y-74734746D01*
X11947593Y-75889175D01*
X11847100Y-77085916D01*
X7847583Y-77085916D01*
X7828092Y-77056580D01*
X7361715Y-76586935D01*
X6812999Y-76216821D01*
X6202844Y-75960336D01*
X5554491Y-75827248D01*
X4892635Y-75822627D01*
X4242487Y-75946650D01*
X3628810Y-76194591D01*
X3074980Y-76557008D01*
X2602090Y-77020095D01*
X2228155Y-77566214D01*
X1967416Y-78174564D01*
X1829805Y-78821972D01*
X1820564Y-79483779D01*
X450000Y-79483779D01*
X450000Y-65078676D01*
X1372207Y-65078676D01*
X1447435Y-65488563D01*
X1600845Y-65876033D01*
X1826593Y-66226326D01*
X2116081Y-66526099D01*
X2458282Y-66763935D01*
X2840162Y-66930774D01*
X3247174Y-67020261D01*
X3663817Y-67028989D01*
X4074220Y-66956624D01*
X4462751Y-66805922D01*
X4814611Y-66582625D01*
X5116398Y-66295237D01*
X5356617Y-65954705D01*
X5526118Y-65574000D01*
X5618445Y-65167622D01*
X5625091Y-64691633D01*
X5590239Y-64515614D01*
X5623193Y-64515614D01*
X5671870Y-64780835D01*
X5771135Y-65031551D01*
X5917208Y-65258211D01*
X6104523Y-65452182D01*
X6325947Y-65606075D01*
X6573046Y-65714030D01*
X6836407Y-65771934D01*
X7105999Y-65777581D01*
X7371554Y-65730756D01*
X7622956Y-65633244D01*
X7850631Y-65488757D01*
X8045904Y-65302801D01*
X8201340Y-65082456D01*
X8311017Y-64836117D01*
X8370758Y-64573167D01*
X8375059Y-64265174D01*
X8322683Y-64000658D01*
X8304959Y-63957655D01*
X9122536Y-63957655D01*
X9188914Y-64319321D01*
X9324276Y-64661205D01*
X9523465Y-64970287D01*
X9778895Y-65234793D01*
X10080837Y-65444648D01*
X10417790Y-65591859D01*
X10776918Y-65670819D01*
X11144544Y-65678519D01*
X11506664Y-65614668D01*
X11849486Y-65481696D01*
X12159951Y-65284669D01*
X12426233Y-65031091D01*
X12638191Y-64730622D01*
X12787751Y-64394706D01*
X12869216Y-64036137D01*
X12875080Y-63616147D01*
X12803659Y-63255443D01*
X12663537Y-62915482D01*
X12460051Y-62609211D01*
X12200953Y-62348298D01*
X11896110Y-62142679D01*
X11557135Y-62000187D01*
X11196939Y-61926249D01*
X10829242Y-61923682D01*
X10468048Y-61992583D01*
X10127117Y-62130329D01*
X9819433Y-62331671D01*
X9556717Y-62588942D01*
X9348975Y-62892341D01*
X9204120Y-63230313D01*
X9127670Y-63589985D01*
X9122536Y-63957655D01*
X8304959Y-63957655D01*
X8219927Y-63751353D01*
X8070704Y-63526755D01*
X7880699Y-63335418D01*
X7657148Y-63184631D01*
X7408566Y-63080137D01*
X7144422Y-63025916D01*
X6874777Y-63024033D01*
X6609902Y-63074561D01*
X6359886Y-63175574D01*
X6134251Y-63323225D01*
X5941592Y-63511891D01*
X5789248Y-63734384D01*
X5683021Y-63982230D01*
X5626958Y-64245989D01*
X5623193Y-64515614D01*
X5590239Y-64515614D01*
X5544147Y-64282836D01*
X5385342Y-63897546D01*
X5154725Y-63550439D01*
X4861080Y-63254737D01*
X4515592Y-63021702D01*
X4131420Y-62860211D01*
X3723198Y-62776415D01*
X3306474Y-62773506D01*
X2897121Y-62851594D01*
X2510732Y-63007705D01*
X2162024Y-63235894D01*
X1864279Y-63527467D01*
X1628838Y-63871320D01*
X1464669Y-64254355D01*
X1378025Y-64661982D01*
X1372207Y-65078676D01*
X450000Y-65078676D01*
X450000Y-61317870D01*
X9788196Y-61317870D01*
X9954124Y-61567123D01*
X10279950Y-61741051D01*
X10633448Y-61848072D01*
X11001032Y-61884073D01*
X11368577Y-61847670D01*
X11721957Y-61740262D01*
X12045876Y-61567123D01*
X12211804Y-61317870D01*
X11000000Y-60106066D01*
X9788196Y-61317870D01*
X450000Y-61317870D01*
X450000Y-59078676D01*
X1372207Y-59078676D01*
X1447435Y-59488563D01*
X1600845Y-59876033D01*
X1826593Y-60226326D01*
X2116081Y-60526099D01*
X2458282Y-60763935D01*
X2840162Y-60930774D01*
X3247174Y-61020261D01*
X3663817Y-61028989D01*
X4074220Y-60956624D01*
X4462751Y-60805922D01*
X4814611Y-60582625D01*
X5116398Y-60295237D01*
X5356617Y-59954705D01*
X5526118Y-59574000D01*
X5539383Y-59515614D01*
X5623193Y-59515614D01*
X5671870Y-59780835D01*
X5771135Y-60031551D01*
X5917208Y-60258211D01*
X6104523Y-60452182D01*
X6325947Y-60606075D01*
X6573046Y-60714030D01*
X6836407Y-60771934D01*
X7105999Y-60777581D01*
X7371554Y-60730756D01*
X7622956Y-60633244D01*
X7850631Y-60488757D01*
X8045904Y-60302801D01*
X8201340Y-60082456D01*
X8237592Y-60001032D01*
X9115927Y-60001032D01*
X9152330Y-60368577D01*
X9259738Y-60721957D01*
X9432877Y-61045876D01*
X9682130Y-61211804D01*
X10893934Y-60000000D01*
X11106066Y-60000000D01*
X12317870Y-61211804D01*
X12567123Y-61045876D01*
X12741051Y-60720050D01*
X12848072Y-60366552D01*
X12884073Y-59998968D01*
X12847670Y-59631423D01*
X12740262Y-59278043D01*
X12567123Y-58954124D01*
X12317870Y-58788196D01*
X11106066Y-60000000D01*
X10893934Y-60000000D01*
X9682130Y-58788196D01*
X9432877Y-58954124D01*
X9258949Y-59279950D01*
X9151928Y-59633448D01*
X9115927Y-60001032D01*
X8237592Y-60001032D01*
X8311017Y-59836117D01*
X8370758Y-59573167D01*
X8375059Y-59265174D01*
X8322683Y-59000658D01*
X8219927Y-58751353D01*
X8173936Y-58682130D01*
X9788196Y-58682130D01*
X11000000Y-59893934D01*
X12211804Y-58682130D01*
X12045876Y-58432877D01*
X11720050Y-58258949D01*
X11366552Y-58151928D01*
X10998968Y-58115927D01*
X10631423Y-58152330D01*
X10278043Y-58259738D01*
X9954124Y-58432877D01*
X9788196Y-58682130D01*
X8173936Y-58682130D01*
X8070704Y-58526755D01*
X7880699Y-58335418D01*
X7657148Y-58184631D01*
X7408566Y-58080137D01*
X7144422Y-58025916D01*
X6874777Y-58024033D01*
X6609902Y-58074561D01*
X6359886Y-58175574D01*
X6134251Y-58323225D01*
X5941592Y-58511891D01*
X5789248Y-58734384D01*
X5683021Y-58982230D01*
X5626958Y-59245989D01*
X5623193Y-59515614D01*
X5539383Y-59515614D01*
X5618445Y-59167622D01*
X5625091Y-58691633D01*
X5544147Y-58282836D01*
X5385342Y-57897546D01*
X5154725Y-57550439D01*
X4861080Y-57254737D01*
X4515592Y-57021702D01*
X4131420Y-56860211D01*
X3723198Y-56776415D01*
X3306474Y-56773506D01*
X2897121Y-56851594D01*
X2510732Y-57007705D01*
X2162024Y-57235894D01*
X1864279Y-57527467D01*
X1628838Y-57871320D01*
X1464669Y-58254355D01*
X1378025Y-58661982D01*
X1372207Y-59078676D01*
X450000Y-59078676D01*
X450000Y-51078676D01*
X1372207Y-51078676D01*
X1447435Y-51488563D01*
X1600845Y-51876033D01*
X1826593Y-52226326D01*
X2116081Y-52526099D01*
X2458282Y-52763935D01*
X2840162Y-52930774D01*
X3247174Y-53020261D01*
X3663817Y-53028989D01*
X4074220Y-52956624D01*
X4462751Y-52805922D01*
X4814611Y-52582625D01*
X5116398Y-52295237D01*
X5356617Y-51954705D01*
X5526118Y-51574000D01*
X5618445Y-51167622D01*
X5625091Y-50691633D01*
X5590239Y-50515614D01*
X5623193Y-50515614D01*
X5671870Y-50780835D01*
X5771135Y-51031551D01*
X5917208Y-51258211D01*
X6104523Y-51452182D01*
X6325947Y-51606075D01*
X6573046Y-51714030D01*
X6836407Y-51771934D01*
X7105999Y-51777581D01*
X7371554Y-51730756D01*
X7622956Y-51633244D01*
X7850631Y-51488757D01*
X8045904Y-51302801D01*
X8201340Y-51082456D01*
X8311017Y-50836117D01*
X8370758Y-50573167D01*
X8375059Y-50265174D01*
X8322683Y-50000658D01*
X8304959Y-49957655D01*
X9122536Y-49957655D01*
X9188914Y-50319321D01*
X9324276Y-50661205D01*
X9523465Y-50970287D01*
X9778895Y-51234793D01*
X10080837Y-51444648D01*
X10417790Y-51591859D01*
X10776918Y-51670819D01*
X11144544Y-51678519D01*
X11506664Y-51614668D01*
X11849486Y-51481696D01*
X12159951Y-51284669D01*
X12426233Y-51031091D01*
X12638191Y-50730622D01*
X12787751Y-50394706D01*
X12869216Y-50036137D01*
X12875080Y-49616147D01*
X12803659Y-49255443D01*
X12663537Y-48915482D01*
X12460051Y-48609211D01*
X12200953Y-48348298D01*
X11896110Y-48142679D01*
X11557135Y-48000187D01*
X11196939Y-47926249D01*
X10829242Y-47923682D01*
X10468048Y-47992583D01*
X10127117Y-48130329D01*
X9819433Y-48331671D01*
X9556717Y-48588942D01*
X9348975Y-48892341D01*
X9204120Y-49230313D01*
X9127670Y-49589985D01*
X9122536Y-49957655D01*
X8304959Y-49957655D01*
X8219927Y-49751353D01*
X8070704Y-49526755D01*
X7880699Y-49335418D01*
X7657148Y-49184631D01*
X7408566Y-49080137D01*
X7144422Y-49025916D01*
X6874777Y-49024033D01*
X6609902Y-49074561D01*
X6359886Y-49175574D01*
X6134251Y-49323225D01*
X5941592Y-49511891D01*
X5789248Y-49734384D01*
X5683021Y-49982230D01*
X5626958Y-50245989D01*
X5623193Y-50515614D01*
X5590239Y-50515614D01*
X5544147Y-50282836D01*
X5385342Y-49897546D01*
X5154725Y-49550439D01*
X4861080Y-49254737D01*
X4515592Y-49021702D01*
X4131420Y-48860211D01*
X3723198Y-48776415D01*
X3306474Y-48773506D01*
X2897121Y-48851594D01*
X2510732Y-49007705D01*
X2162024Y-49235894D01*
X1864279Y-49527467D01*
X1628838Y-49871320D01*
X1464669Y-50254355D01*
X1378025Y-50661982D01*
X1372207Y-51078676D01*
X450000Y-51078676D01*
X450000Y-47317870D01*
X9788196Y-47317870D01*
X9954124Y-47567123D01*
X10279950Y-47741051D01*
X10633448Y-47848072D01*
X11001032Y-47884073D01*
X11368577Y-47847670D01*
X11721957Y-47740262D01*
X12045876Y-47567123D01*
X12211804Y-47317870D01*
X11000000Y-46106066D01*
X9788196Y-47317870D01*
X450000Y-47317870D01*
X450000Y-45078676D01*
X1372207Y-45078676D01*
X1447435Y-45488563D01*
X1600845Y-45876033D01*
X1826593Y-46226326D01*
X2116081Y-46526099D01*
X2458282Y-46763935D01*
X2840162Y-46930774D01*
X3247174Y-47020261D01*
X3663817Y-47028989D01*
X4074220Y-46956624D01*
X4462751Y-46805922D01*
X4814611Y-46582625D01*
X5116398Y-46295237D01*
X5356617Y-45954705D01*
X5526118Y-45574000D01*
X5539383Y-45515614D01*
X5623193Y-45515614D01*
X5671870Y-45780835D01*
X5771135Y-46031551D01*
X5917208Y-46258211D01*
X6104523Y-46452182D01*
X6325947Y-46606075D01*
X6573046Y-46714030D01*
X6836407Y-46771934D01*
X7105999Y-46777581D01*
X7371554Y-46730756D01*
X7622956Y-46633244D01*
X7850631Y-46488757D01*
X8045904Y-46302801D01*
X8201340Y-46082456D01*
X8237592Y-46001032D01*
X9115927Y-46001032D01*
X9152330Y-46368577D01*
X9259738Y-46721957D01*
X9432877Y-47045876D01*
X9682130Y-47211804D01*
X10893934Y-46000000D01*
X11106066Y-46000000D01*
X12317870Y-47211804D01*
X12567123Y-47045876D01*
X12741051Y-46720050D01*
X12848072Y-46366552D01*
X12884073Y-45998968D01*
X12847670Y-45631423D01*
X12740262Y-45278043D01*
X12567123Y-44954124D01*
X12317870Y-44788196D01*
X11106066Y-46000000D01*
X10893934Y-46000000D01*
X9682130Y-44788196D01*
X9432877Y-44954124D01*
X9258949Y-45279950D01*
X9151928Y-45633448D01*
X9115927Y-46001032D01*
X8237592Y-46001032D01*
X8311017Y-45836117D01*
X8370758Y-45573167D01*
X8375059Y-45265174D01*
X8322683Y-45000658D01*
X8219927Y-44751353D01*
X8173936Y-44682130D01*
X9788196Y-44682130D01*
X11000000Y-45893934D01*
X12211804Y-44682130D01*
X12132821Y-44563483D01*
X33686517Y-44563483D01*
X33686517Y-51186517D01*
X33691022Y-51232461D01*
X33695049Y-51278493D01*
X33695782Y-51281018D01*
X33696039Y-51283634D01*
X33709386Y-51327840D01*
X33722274Y-51372201D01*
X33723484Y-51374536D01*
X33724244Y-51377052D01*
X33745911Y-51417802D01*
X33767181Y-51458837D01*
X33768823Y-51460893D01*
X33770056Y-51463213D01*
X33799245Y-51499002D01*
X33828062Y-51535099D01*
X33831669Y-51538757D01*
X33831732Y-51538834D01*
X33831803Y-51538893D01*
X33832964Y-51540070D01*
X35225827Y-52932934D01*
X35223981Y-53065164D01*
X35251417Y-53214653D01*
X35307367Y-53355965D01*
X35389699Y-53483719D01*
X35495277Y-53593048D01*
X35620079Y-53679788D01*
X35759353Y-53740635D01*
X35907793Y-53773272D01*
X36059745Y-53776455D01*
X36209421Y-53750063D01*
X36351121Y-53695101D01*
X36479446Y-53613663D01*
X36589510Y-53508851D01*
X36677119Y-53384657D01*
X36738937Y-53245812D01*
X36772609Y-53097603D01*
X36775033Y-52924007D01*
X36745513Y-52774916D01*
X36687595Y-52634399D01*
X36603488Y-52507807D01*
X36496394Y-52399963D01*
X36370392Y-52314974D01*
X36230283Y-52256077D01*
X36081402Y-52225516D01*
X35931577Y-52224470D01*
X34686517Y-50979411D01*
X34686517Y-44770589D01*
X40457106Y-39000000D01*
X42292893Y-39000000D01*
X36067475Y-45225419D01*
X35929420Y-45224455D01*
X35780127Y-45252934D01*
X35639208Y-45309869D01*
X35512032Y-45393091D01*
X35403443Y-45499429D01*
X35317576Y-45624834D01*
X35257703Y-45764529D01*
X35226103Y-45913194D01*
X35223981Y-46065164D01*
X35251417Y-46214653D01*
X35307367Y-46355965D01*
X35389699Y-46483719D01*
X35495277Y-46593048D01*
X35620079Y-46679788D01*
X35759353Y-46740635D01*
X35907793Y-46773272D01*
X36059745Y-46776455D01*
X36209421Y-46750063D01*
X36351121Y-46695101D01*
X36479446Y-46613663D01*
X36589510Y-46508851D01*
X36677119Y-46384657D01*
X36738937Y-46245812D01*
X36772609Y-46097603D01*
X36774919Y-45932187D01*
X42957107Y-39750000D01*
X48763930Y-39750000D01*
X48757703Y-39764529D01*
X48726103Y-39913194D01*
X48725243Y-39974775D01*
X48679420Y-39974455D01*
X48530127Y-40002934D01*
X48389208Y-40059869D01*
X48262032Y-40143091D01*
X48153443Y-40249429D01*
X48067576Y-40374834D01*
X48007703Y-40514529D01*
X47976103Y-40663194D01*
X47973981Y-40815164D01*
X48001417Y-40964653D01*
X48057367Y-41105965D01*
X48139699Y-41233719D01*
X48245277Y-41343048D01*
X48370079Y-41429788D01*
X48509353Y-41490635D01*
X48657793Y-41523272D01*
X48809745Y-41526455D01*
X48959421Y-41500063D01*
X49101121Y-41445101D01*
X49229446Y-41363663D01*
X49339510Y-41258851D01*
X49345754Y-41250000D01*
X51582019Y-41250000D01*
X51627963Y-41245495D01*
X51673995Y-41241468D01*
X51676520Y-41240735D01*
X51679136Y-41240478D01*
X51713340Y-41230151D01*
X35646447Y-57297044D01*
X35617168Y-57332689D01*
X35587443Y-57368113D01*
X35586175Y-57370420D01*
X35584508Y-57372449D01*
X35562701Y-57413118D01*
X35540432Y-57453626D01*
X35539637Y-57456133D01*
X35538395Y-57458449D01*
X35524893Y-57502612D01*
X35510926Y-57546641D01*
X35510633Y-57549252D01*
X35509864Y-57551768D01*
X35505194Y-57597744D01*
X35500049Y-57643616D01*
X35500013Y-57648754D01*
X35500003Y-57648852D01*
X35500012Y-57648943D01*
X35500000Y-57650597D01*
X35500000Y-59404874D01*
X35403443Y-59499429D01*
X35317576Y-59624834D01*
X35257703Y-59764529D01*
X35226103Y-59913194D01*
X35223981Y-60065164D01*
X35251417Y-60214653D01*
X35307367Y-60355965D01*
X35389699Y-60483719D01*
X35495277Y-60593048D01*
X35620079Y-60679788D01*
X35759353Y-60740635D01*
X35907793Y-60773272D01*
X36059745Y-60776455D01*
X36209421Y-60750063D01*
X36351121Y-60695101D01*
X36479446Y-60613663D01*
X36589510Y-60508851D01*
X36677119Y-60384657D01*
X36738937Y-60245812D01*
X36772609Y-60097603D01*
X36775033Y-59924007D01*
X36745513Y-59774916D01*
X36687595Y-59634399D01*
X36603488Y-59507807D01*
X36500000Y-59403594D01*
X36500000Y-57857703D01*
X38516200Y-55841503D01*
X38510926Y-55858128D01*
X38510633Y-55860739D01*
X38509864Y-55863255D01*
X38505194Y-55909231D01*
X38500049Y-55955103D01*
X38500013Y-55960241D01*
X38500003Y-55960339D01*
X38500012Y-55960430D01*
X38500000Y-55962084D01*
X38500000Y-63792893D01*
X36067475Y-66225419D01*
X35929420Y-66224455D01*
X35780127Y-66252934D01*
X35639208Y-66309869D01*
X35512032Y-66393091D01*
X35403443Y-66499429D01*
X35317576Y-66624834D01*
X35257703Y-66764529D01*
X35226103Y-66913194D01*
X35223981Y-67065164D01*
X35251417Y-67214653D01*
X35307367Y-67355965D01*
X35389699Y-67483719D01*
X35495277Y-67593048D01*
X35620079Y-67679788D01*
X35759353Y-67740635D01*
X35907793Y-67773272D01*
X36059745Y-67776455D01*
X36209421Y-67750063D01*
X36351121Y-67695101D01*
X36479446Y-67613663D01*
X36589510Y-67508851D01*
X36677119Y-67384657D01*
X36738937Y-67245812D01*
X36772609Y-67097603D01*
X36774919Y-66932187D01*
X39041942Y-64665164D01*
X46423981Y-64665164D01*
X46451417Y-64814653D01*
X46507367Y-64955965D01*
X46589699Y-65083719D01*
X46695277Y-65193048D01*
X46820079Y-65279788D01*
X46959353Y-65340635D01*
X47107793Y-65373272D01*
X47259745Y-65376455D01*
X47409421Y-65350063D01*
X47551121Y-65295101D01*
X47679446Y-65213663D01*
X47789510Y-65108851D01*
X47877119Y-64984657D01*
X47938937Y-64845812D01*
X47972609Y-64697603D01*
X47975033Y-64524007D01*
X47945513Y-64374916D01*
X47887595Y-64234399D01*
X47803488Y-64107807D01*
X47700000Y-64003594D01*
X47700000Y-54757106D01*
X48095705Y-54361401D01*
X53082186Y-54361401D01*
X53082186Y-56088601D01*
X53086948Y-56148318D01*
X53118315Y-56249605D01*
X53176657Y-56338144D01*
X53257357Y-56406923D01*
X53354022Y-56450497D01*
X53459000Y-56465415D01*
X55491000Y-56465415D01*
X55550717Y-56460653D01*
X55652004Y-56429286D01*
X55740543Y-56370944D01*
X55746686Y-56363737D01*
X55797357Y-56406923D01*
X55894022Y-56450497D01*
X55999000Y-56465415D01*
X58031000Y-56465415D01*
X58090717Y-56460653D01*
X58192004Y-56429286D01*
X58280543Y-56370944D01*
X58349322Y-56290244D01*
X58392896Y-56193579D01*
X58407814Y-56088601D01*
X58407814Y-54688928D01*
X63207107Y-49889636D01*
X63969402Y-49889636D01*
X63995715Y-49974604D01*
X64054057Y-50063143D01*
X64134757Y-50131922D01*
X64231422Y-50175496D01*
X64336400Y-50190414D01*
X66063600Y-50190414D01*
X66123317Y-50185652D01*
X66224604Y-50154285D01*
X66313143Y-50095943D01*
X66381922Y-50015243D01*
X66425496Y-49918578D01*
X66440414Y-49813600D01*
X66440414Y-48941353D01*
X66495437Y-48941353D01*
X66517346Y-49182090D01*
X66585597Y-49413988D01*
X66697591Y-49628212D01*
X66849061Y-49816603D01*
X67034239Y-49971986D01*
X67246071Y-50088441D01*
X67476488Y-50161534D01*
X67716713Y-50188479D01*
X67734007Y-50188600D01*
X67745993Y-50188600D01*
X67986572Y-50165011D01*
X68217987Y-50095143D01*
X68431424Y-49981656D01*
X68618753Y-49828874D01*
X68772839Y-49642616D01*
X68887813Y-49429977D01*
X68959295Y-49199055D01*
X68984563Y-48958647D01*
X68962654Y-48717910D01*
X68894403Y-48486012D01*
X68782409Y-48271788D01*
X68630939Y-48083397D01*
X68445761Y-47928014D01*
X68233929Y-47811559D01*
X68003512Y-47738466D01*
X67763287Y-47711521D01*
X67745993Y-47711400D01*
X67734007Y-47711400D01*
X67493428Y-47734989D01*
X67262013Y-47804857D01*
X67048576Y-47918344D01*
X66861247Y-48071126D01*
X66707161Y-48257384D01*
X66592187Y-48470023D01*
X66520705Y-48700945D01*
X66495437Y-48941353D01*
X66440414Y-48941353D01*
X66440414Y-48086400D01*
X66435652Y-48026683D01*
X66404285Y-47925396D01*
X66345943Y-47836857D01*
X66265243Y-47768078D01*
X66168578Y-47724504D01*
X66063600Y-47709586D01*
X64336400Y-47709586D01*
X64276683Y-47714348D01*
X64175396Y-47745715D01*
X64086857Y-47804057D01*
X64018078Y-47884757D01*
X63974504Y-47981422D01*
X63959586Y-48086400D01*
X63959586Y-48889636D01*
X63500000Y-48889636D01*
X63500000Y-46401353D01*
X63955437Y-46401353D01*
X63977346Y-46642090D01*
X64045597Y-46873988D01*
X64157591Y-47088212D01*
X64309061Y-47276603D01*
X64494239Y-47431986D01*
X64706071Y-47548441D01*
X64936488Y-47621534D01*
X65176713Y-47648479D01*
X65194007Y-47648600D01*
X65205993Y-47648600D01*
X65446572Y-47625011D01*
X65677987Y-47555143D01*
X65891424Y-47441656D01*
X66078753Y-47288874D01*
X66232839Y-47102616D01*
X66347813Y-46889977D01*
X66419295Y-46659055D01*
X66444563Y-46418647D01*
X66442990Y-46401353D01*
X66495437Y-46401353D01*
X66517346Y-46642090D01*
X66585597Y-46873988D01*
X66697591Y-47088212D01*
X66849061Y-47276603D01*
X67034239Y-47431986D01*
X67246071Y-47548441D01*
X67476488Y-47621534D01*
X67716713Y-47648479D01*
X67734007Y-47648600D01*
X67745993Y-47648600D01*
X67986572Y-47625011D01*
X68217987Y-47555143D01*
X68431424Y-47441656D01*
X68618753Y-47288874D01*
X68772839Y-47102616D01*
X68887813Y-46889977D01*
X68959295Y-46659055D01*
X68984563Y-46418647D01*
X68962654Y-46177910D01*
X68894403Y-45946012D01*
X68782409Y-45731788D01*
X68630939Y-45543397D01*
X68445761Y-45388014D01*
X68233929Y-45271559D01*
X68003512Y-45198466D01*
X67763287Y-45171521D01*
X67745993Y-45171400D01*
X67734007Y-45171400D01*
X67493428Y-45194989D01*
X67262013Y-45264857D01*
X67048576Y-45378344D01*
X66861247Y-45531126D01*
X66707161Y-45717384D01*
X66592187Y-45930023D01*
X66520705Y-46160945D01*
X66495437Y-46401353D01*
X66442990Y-46401353D01*
X66422654Y-46177910D01*
X66354403Y-45946012D01*
X66242409Y-45731788D01*
X66090939Y-45543397D01*
X65905761Y-45388014D01*
X65693929Y-45271559D01*
X65463512Y-45198466D01*
X65223287Y-45171521D01*
X65205993Y-45171400D01*
X65194007Y-45171400D01*
X64953428Y-45194989D01*
X64722013Y-45264857D01*
X64508576Y-45378344D01*
X64321247Y-45531126D01*
X64167161Y-45717384D01*
X64052187Y-45930023D01*
X63980705Y-46160945D01*
X63955437Y-46401353D01*
X63500000Y-46401353D01*
X63500000Y-43861353D01*
X63955437Y-43861353D01*
X63977346Y-44102090D01*
X64045597Y-44333988D01*
X64157591Y-44548212D01*
X64309061Y-44736603D01*
X64494239Y-44891986D01*
X64706071Y-45008441D01*
X64936488Y-45081534D01*
X65176713Y-45108479D01*
X65194007Y-45108600D01*
X65205993Y-45108600D01*
X65446572Y-45085011D01*
X65677987Y-45015143D01*
X65891424Y-44901656D01*
X66078753Y-44748874D01*
X66232839Y-44562616D01*
X66347813Y-44349977D01*
X66419295Y-44119055D01*
X66444563Y-43878647D01*
X66442990Y-43861353D01*
X66495437Y-43861353D01*
X66517346Y-44102090D01*
X66585597Y-44333988D01*
X66697591Y-44548212D01*
X66849061Y-44736603D01*
X67034239Y-44891986D01*
X67246071Y-45008441D01*
X67476488Y-45081534D01*
X67716713Y-45108479D01*
X67734007Y-45108600D01*
X67745993Y-45108600D01*
X67986572Y-45085011D01*
X68217987Y-45015143D01*
X68431424Y-44901656D01*
X68618753Y-44748874D01*
X68772839Y-44562616D01*
X68887813Y-44349977D01*
X68959295Y-44119055D01*
X68984563Y-43878647D01*
X68962654Y-43637910D01*
X68894403Y-43406012D01*
X68782409Y-43191788D01*
X68630939Y-43003397D01*
X68445761Y-42848014D01*
X68233929Y-42731559D01*
X68003512Y-42658466D01*
X67763287Y-42631521D01*
X67745993Y-42631400D01*
X67734007Y-42631400D01*
X67493428Y-42654989D01*
X67262013Y-42724857D01*
X67048576Y-42838344D01*
X66861247Y-42991126D01*
X66707161Y-43177384D01*
X66592187Y-43390023D01*
X66520705Y-43620945D01*
X66495437Y-43861353D01*
X66442990Y-43861353D01*
X66422654Y-43637910D01*
X66354403Y-43406012D01*
X66242409Y-43191788D01*
X66090939Y-43003397D01*
X65905761Y-42848014D01*
X65693929Y-42731559D01*
X65463512Y-42658466D01*
X65223287Y-42631521D01*
X65205993Y-42631400D01*
X65194007Y-42631400D01*
X64953428Y-42654989D01*
X64722013Y-42724857D01*
X64508576Y-42838344D01*
X64321247Y-42991126D01*
X64167161Y-43177384D01*
X64052187Y-43390023D01*
X63980705Y-43620945D01*
X63955437Y-43861353D01*
X63500000Y-43861353D01*
X63500000Y-40594090D01*
X63589510Y-40508851D01*
X63677119Y-40384657D01*
X63699601Y-40334161D01*
X63776692Y-40411252D01*
X63812337Y-40440531D01*
X63847761Y-40470256D01*
X63850068Y-40471524D01*
X63852097Y-40473191D01*
X63892766Y-40494998D01*
X63933274Y-40517267D01*
X63935781Y-40518062D01*
X63938097Y-40519304D01*
X63982260Y-40532806D01*
X64026289Y-40546773D01*
X64028900Y-40547066D01*
X64031416Y-40547835D01*
X64077392Y-40552505D01*
X64123264Y-40557650D01*
X64128402Y-40557686D01*
X64128500Y-40557696D01*
X64128591Y-40557687D01*
X64130245Y-40557699D01*
X64233082Y-40557699D01*
X64167161Y-40637384D01*
X64052187Y-40850023D01*
X63980705Y-41080945D01*
X63955437Y-41321353D01*
X63977346Y-41562090D01*
X64045597Y-41793988D01*
X64157591Y-42008212D01*
X64309061Y-42196603D01*
X64494239Y-42351986D01*
X64706071Y-42468441D01*
X64936488Y-42541534D01*
X65176713Y-42568479D01*
X65194007Y-42568600D01*
X65205993Y-42568600D01*
X65446572Y-42545011D01*
X65677987Y-42475143D01*
X65891424Y-42361656D01*
X66078753Y-42208874D01*
X66232839Y-42022616D01*
X66347813Y-41809977D01*
X66419295Y-41579055D01*
X66444563Y-41338647D01*
X66422654Y-41097910D01*
X66354403Y-40866012D01*
X66242409Y-40651788D01*
X66166760Y-40557699D01*
X66260593Y-40557699D01*
X66582904Y-40880011D01*
X66520705Y-41080945D01*
X66495437Y-41321353D01*
X66517346Y-41562090D01*
X66585597Y-41793988D01*
X66697591Y-42008212D01*
X66849061Y-42196603D01*
X67034239Y-42351986D01*
X67246071Y-42468441D01*
X67476488Y-42541534D01*
X67716713Y-42568479D01*
X67734007Y-42568600D01*
X67745993Y-42568600D01*
X67986572Y-42545011D01*
X68217987Y-42475143D01*
X68431424Y-42361656D01*
X68618753Y-42208874D01*
X68772839Y-42022616D01*
X68887813Y-41809977D01*
X68959295Y-41579055D01*
X68984563Y-41338647D01*
X68962654Y-41097910D01*
X68894403Y-40866012D01*
X68782409Y-40651788D01*
X68630939Y-40463397D01*
X68445761Y-40308014D01*
X68233929Y-40191559D01*
X68003512Y-40118466D01*
X67763287Y-40091521D01*
X67745993Y-40091400D01*
X67734007Y-40091400D01*
X67493428Y-40114989D01*
X67292699Y-40175592D01*
X66821252Y-39704146D01*
X66785607Y-39674867D01*
X66750183Y-39645142D01*
X66747876Y-39643874D01*
X66745847Y-39642207D01*
X66705178Y-39620400D01*
X66664670Y-39598131D01*
X66662163Y-39597336D01*
X66659847Y-39596094D01*
X66615684Y-39582592D01*
X66571655Y-39568625D01*
X66569044Y-39568332D01*
X66566528Y-39567563D01*
X66520552Y-39562893D01*
X66474680Y-39557748D01*
X66469542Y-39557712D01*
X66469444Y-39557702D01*
X66469353Y-39557711D01*
X66467699Y-39557699D01*
X66170725Y-39557699D01*
X66232839Y-39482616D01*
X66347813Y-39269977D01*
X66419295Y-39039055D01*
X66444563Y-38798647D01*
X66442990Y-38781353D01*
X66495437Y-38781353D01*
X66517346Y-39022090D01*
X66585597Y-39253988D01*
X66697591Y-39468212D01*
X66849061Y-39656603D01*
X67034239Y-39811986D01*
X67246071Y-39928441D01*
X67476488Y-40001534D01*
X67716713Y-40028479D01*
X67734007Y-40028600D01*
X67745993Y-40028600D01*
X67986572Y-40005011D01*
X68217987Y-39935143D01*
X68431424Y-39821656D01*
X68618753Y-39668874D01*
X68772839Y-39482616D01*
X68887813Y-39269977D01*
X68959295Y-39039055D01*
X68984563Y-38798647D01*
X68962654Y-38557910D01*
X68894403Y-38326012D01*
X68782409Y-38111788D01*
X68630939Y-37923397D01*
X68445761Y-37768014D01*
X68233929Y-37651559D01*
X68003512Y-37578466D01*
X67763287Y-37551521D01*
X67745993Y-37551400D01*
X67734007Y-37551400D01*
X67493428Y-37574989D01*
X67262013Y-37644857D01*
X67048576Y-37758344D01*
X66861247Y-37911126D01*
X66707161Y-38097384D01*
X66592187Y-38310023D01*
X66520705Y-38540945D01*
X66495437Y-38781353D01*
X66442990Y-38781353D01*
X66422654Y-38557910D01*
X66354403Y-38326012D01*
X66242409Y-38111788D01*
X66090939Y-37923397D01*
X65905761Y-37768014D01*
X65693929Y-37651559D01*
X65463512Y-37578466D01*
X65223287Y-37551521D01*
X65205993Y-37551400D01*
X65194007Y-37551400D01*
X64953428Y-37574989D01*
X64722013Y-37644857D01*
X64508576Y-37758344D01*
X64321247Y-37911126D01*
X64167161Y-38097384D01*
X64052187Y-38310023D01*
X63980705Y-38540945D01*
X63955437Y-38781353D01*
X63977346Y-39022090D01*
X64045597Y-39253988D01*
X64058696Y-39279044D01*
X63573967Y-38794315D01*
X63575949Y-38652377D01*
X63546429Y-38503286D01*
X63488511Y-38362769D01*
X63404404Y-38236177D01*
X63297310Y-38128333D01*
X63171308Y-38043344D01*
X63031199Y-37984447D01*
X62882318Y-37953886D01*
X62730336Y-37952825D01*
X62581043Y-37981304D01*
X62440124Y-38038239D01*
X62312948Y-38121461D01*
X62204359Y-38227799D01*
X62118492Y-38353204D01*
X62101037Y-38393931D01*
X59948459Y-36241353D01*
X63955437Y-36241353D01*
X63977346Y-36482090D01*
X64045597Y-36713988D01*
X64157591Y-36928212D01*
X64309061Y-37116603D01*
X64494239Y-37271986D01*
X64706071Y-37388441D01*
X64936488Y-37461534D01*
X65176713Y-37488479D01*
X65194007Y-37488600D01*
X65205993Y-37488600D01*
X65446572Y-37465011D01*
X65677987Y-37395143D01*
X65891424Y-37281656D01*
X66078753Y-37128874D01*
X66232839Y-36942616D01*
X66347813Y-36729977D01*
X66419295Y-36499055D01*
X66444563Y-36258647D01*
X66442990Y-36241353D01*
X66495437Y-36241353D01*
X66517346Y-36482090D01*
X66585597Y-36713988D01*
X66697591Y-36928212D01*
X66849061Y-37116603D01*
X67034239Y-37271986D01*
X67246071Y-37388441D01*
X67476488Y-37461534D01*
X67716713Y-37488479D01*
X67734007Y-37488600D01*
X67745993Y-37488600D01*
X67986572Y-37465011D01*
X68217987Y-37395143D01*
X68431424Y-37281656D01*
X68618753Y-37128874D01*
X68772839Y-36942616D01*
X68887813Y-36729977D01*
X68959295Y-36499055D01*
X68984563Y-36258647D01*
X68962654Y-36017910D01*
X68894403Y-35786012D01*
X68782409Y-35571788D01*
X68630939Y-35383397D01*
X68445761Y-35228014D01*
X68233929Y-35111559D01*
X68003512Y-35038466D01*
X67763287Y-35011521D01*
X67745993Y-35011400D01*
X67734007Y-35011400D01*
X67493428Y-35034989D01*
X67262013Y-35104857D01*
X67048576Y-35218344D01*
X66861247Y-35371126D01*
X66707161Y-35557384D01*
X66592187Y-35770023D01*
X66520705Y-36000945D01*
X66495437Y-36241353D01*
X66442990Y-36241353D01*
X66422654Y-36017910D01*
X66354403Y-35786012D01*
X66242409Y-35571788D01*
X66090939Y-35383397D01*
X65905761Y-35228014D01*
X65693929Y-35111559D01*
X65463512Y-35038466D01*
X65223287Y-35011521D01*
X65205993Y-35011400D01*
X65194007Y-35011400D01*
X64953428Y-35034989D01*
X64722013Y-35104857D01*
X64508576Y-35218344D01*
X64321247Y-35371126D01*
X64167161Y-35557384D01*
X64052187Y-35770023D01*
X63980705Y-36000945D01*
X63955437Y-36241353D01*
X59948459Y-36241353D01*
X58023051Y-34315945D01*
X58025033Y-34174007D01*
X57995513Y-34024916D01*
X57937595Y-33884399D01*
X57853488Y-33757807D01*
X57746394Y-33649963D01*
X57620392Y-33564974D01*
X57480283Y-33506077D01*
X57331402Y-33475516D01*
X57179420Y-33474455D01*
X57030127Y-33502934D01*
X56889208Y-33559869D01*
X56762032Y-33643091D01*
X56653443Y-33749429D01*
X56567576Y-33874834D01*
X56507703Y-34014529D01*
X56476103Y-34163194D01*
X56473981Y-34315164D01*
X56501417Y-34464653D01*
X56557367Y-34605965D01*
X56639699Y-34733719D01*
X56745277Y-34843048D01*
X56870079Y-34929788D01*
X57009353Y-34990635D01*
X57157793Y-35023272D01*
X57309745Y-35026455D01*
X57317909Y-35025015D01*
X62225827Y-39932933D01*
X62223981Y-40065164D01*
X62251417Y-40214653D01*
X62307367Y-40355965D01*
X62389699Y-40483719D01*
X62495277Y-40593048D01*
X62500000Y-40596331D01*
X62500000Y-49182529D01*
X57697943Y-53984587D01*
X55999000Y-53984587D01*
X55939283Y-53989349D01*
X55837996Y-54020716D01*
X55749457Y-54079058D01*
X55743314Y-54086265D01*
X55692643Y-54043079D01*
X55595978Y-53999505D01*
X55491000Y-53984587D01*
X53459000Y-53984587D01*
X53399283Y-53989349D01*
X53297996Y-54020716D01*
X53209457Y-54079058D01*
X53140678Y-54159758D01*
X53097104Y-54256423D01*
X53082186Y-54361401D01*
X48095705Y-54361401D01*
X49683301Y-52773806D01*
X49809745Y-52776455D01*
X49959421Y-52750063D01*
X50101121Y-52695101D01*
X50130661Y-52676354D01*
X53077300Y-52676354D01*
X53099209Y-52917091D01*
X53167460Y-53148989D01*
X53279454Y-53363213D01*
X53430924Y-53551604D01*
X53616102Y-53706987D01*
X53827934Y-53823442D01*
X54058351Y-53896535D01*
X54298576Y-53923480D01*
X54315870Y-53923601D01*
X54634130Y-53923601D01*
X54874709Y-53900012D01*
X55106124Y-53830144D01*
X55319561Y-53716657D01*
X55506890Y-53563875D01*
X55660976Y-53377617D01*
X55745378Y-53221519D01*
X55819454Y-53363213D01*
X55970924Y-53551604D01*
X56156102Y-53706987D01*
X56367934Y-53823442D01*
X56598351Y-53896535D01*
X56838576Y-53923480D01*
X56855870Y-53923601D01*
X57174130Y-53923601D01*
X57414709Y-53900012D01*
X57646124Y-53830144D01*
X57859561Y-53716657D01*
X58046890Y-53563875D01*
X58200976Y-53377617D01*
X58315950Y-53164978D01*
X58387432Y-52934056D01*
X58412700Y-52693648D01*
X58390791Y-52452911D01*
X58322540Y-52221013D01*
X58210546Y-52006789D01*
X58059076Y-51818398D01*
X57873898Y-51663015D01*
X57662066Y-51546560D01*
X57431649Y-51473467D01*
X57191424Y-51446522D01*
X57174130Y-51446401D01*
X56855870Y-51446401D01*
X56615291Y-51469990D01*
X56383876Y-51539858D01*
X56170439Y-51653345D01*
X55983110Y-51806127D01*
X55829024Y-51992385D01*
X55744622Y-52148483D01*
X55670546Y-52006789D01*
X55519076Y-51818398D01*
X55333898Y-51663015D01*
X55122066Y-51546560D01*
X54891649Y-51473467D01*
X54651424Y-51446522D01*
X54634130Y-51446401D01*
X54315870Y-51446401D01*
X54075291Y-51469990D01*
X53843876Y-51539858D01*
X53630439Y-51653345D01*
X53443110Y-51806127D01*
X53289024Y-51992385D01*
X53174050Y-52205024D01*
X53102568Y-52435946D01*
X53077300Y-52676354D01*
X50130661Y-52676354D01*
X50229446Y-52613663D01*
X50339510Y-52508851D01*
X50427119Y-52384657D01*
X50488937Y-52245812D01*
X50522609Y-52097603D01*
X50525033Y-51924007D01*
X50495513Y-51774916D01*
X50437595Y-51634399D01*
X50353488Y-51507807D01*
X50246394Y-51399963D01*
X50120392Y-51314974D01*
X49980283Y-51256077D01*
X49831402Y-51225516D01*
X49679420Y-51224455D01*
X49530127Y-51252934D01*
X49389208Y-51309869D01*
X49262032Y-51393091D01*
X49153443Y-51499429D01*
X49067576Y-51624834D01*
X49007703Y-51764529D01*
X48976103Y-51913194D01*
X48973981Y-52065164D01*
X48974562Y-52068331D01*
X46846447Y-54196447D01*
X46817168Y-54232092D01*
X46787443Y-54267516D01*
X46786175Y-54269823D01*
X46784508Y-54271852D01*
X46762701Y-54312521D01*
X46740432Y-54353029D01*
X46739637Y-54355536D01*
X46738395Y-54357852D01*
X46724893Y-54402015D01*
X46710926Y-54446044D01*
X46710633Y-54448655D01*
X46709864Y-54451171D01*
X46705194Y-54497147D01*
X46700049Y-54543019D01*
X46700013Y-54548157D01*
X46700003Y-54548255D01*
X46700012Y-54548346D01*
X46700000Y-54550000D01*
X46700000Y-64004874D01*
X46603443Y-64099429D01*
X46517576Y-64224834D01*
X46457703Y-64364529D01*
X46426103Y-64513194D01*
X46423981Y-64665164D01*
X39041942Y-64665164D01*
X39353554Y-64353553D01*
X39382880Y-64317852D01*
X39412557Y-64282484D01*
X39413823Y-64280181D01*
X39415493Y-64278148D01*
X39437320Y-64237440D01*
X39459568Y-64196971D01*
X39460363Y-64194464D01*
X39461605Y-64192148D01*
X39475107Y-64147985D01*
X39489074Y-64103956D01*
X39489367Y-64101345D01*
X39490136Y-64098829D01*
X39494806Y-64052853D01*
X39499951Y-64006981D01*
X39499987Y-64001843D01*
X39499997Y-64001745D01*
X39499988Y-64001654D01*
X39500000Y-64000000D01*
X39500000Y-56169190D01*
X45256708Y-50412482D01*
X53113227Y-50412482D01*
X53149582Y-50549702D01*
X53251074Y-50770770D01*
X53393744Y-50967790D01*
X53572110Y-51133191D01*
X53779317Y-51260617D01*
X54007402Y-51345170D01*
X54247600Y-51383601D01*
X54400000Y-51383601D01*
X54400000Y-50220001D01*
X54550000Y-50220001D01*
X54550000Y-51383601D01*
X54702400Y-51383601D01*
X54942598Y-51345170D01*
X55170683Y-51260617D01*
X55377890Y-51133191D01*
X55556256Y-50967790D01*
X55698926Y-50770770D01*
X55745000Y-50670412D01*
X55791074Y-50770770D01*
X55933744Y-50967790D01*
X56112110Y-51133191D01*
X56319317Y-51260617D01*
X56547402Y-51345170D01*
X56787600Y-51383601D01*
X56940000Y-51383601D01*
X56940000Y-50220001D01*
X57090000Y-50220001D01*
X57090000Y-51383601D01*
X57242400Y-51383601D01*
X57482598Y-51345170D01*
X57710683Y-51260617D01*
X57917890Y-51133191D01*
X58096256Y-50967790D01*
X58238926Y-50770770D01*
X58340418Y-50549702D01*
X58376773Y-50412482D01*
X58309791Y-50220001D01*
X57090000Y-50220001D01*
X56940000Y-50220001D01*
X54550000Y-50220001D01*
X54400000Y-50220001D01*
X53180209Y-50220001D01*
X53113227Y-50412482D01*
X45256708Y-50412482D01*
X45791670Y-49877520D01*
X53113227Y-49877520D01*
X53180209Y-50070001D01*
X54400000Y-50070001D01*
X54400000Y-48906401D01*
X54550000Y-48906401D01*
X54550000Y-50070001D01*
X56940000Y-50070001D01*
X56940000Y-48906401D01*
X57090000Y-48906401D01*
X57090000Y-50070001D01*
X58309791Y-50070001D01*
X58376773Y-49877520D01*
X58340418Y-49740300D01*
X58238926Y-49519232D01*
X58096256Y-49322212D01*
X57917890Y-49156811D01*
X57710683Y-49029385D01*
X57482598Y-48944832D01*
X57242400Y-48906401D01*
X57090000Y-48906401D01*
X56940000Y-48906401D01*
X56787600Y-48906401D01*
X56547402Y-48944832D01*
X56319317Y-49029385D01*
X56112110Y-49156811D01*
X55933744Y-49322212D01*
X55791074Y-49519232D01*
X55745000Y-49619590D01*
X55698926Y-49519232D01*
X55556256Y-49322212D01*
X55377890Y-49156811D01*
X55170683Y-49029385D01*
X54942598Y-48944832D01*
X54702400Y-48906401D01*
X54550000Y-48906401D01*
X54400000Y-48906401D01*
X54247600Y-48906401D01*
X54007402Y-48944832D01*
X53779317Y-49029385D01*
X53572110Y-49156811D01*
X53393744Y-49322212D01*
X53251074Y-49519232D01*
X53149582Y-49740300D01*
X53113227Y-49877520D01*
X45791670Y-49877520D01*
X54865795Y-40803395D01*
X54870431Y-40797751D01*
X54870431Y-42422462D01*
X53067475Y-44225419D01*
X52929420Y-44224455D01*
X52780127Y-44252934D01*
X52639208Y-44309869D01*
X52512032Y-44393091D01*
X52403443Y-44499429D01*
X52317576Y-44624834D01*
X52257703Y-44764529D01*
X52226103Y-44913194D01*
X52223981Y-45065164D01*
X52251417Y-45214653D01*
X52307367Y-45355965D01*
X52389699Y-45483719D01*
X52495277Y-45593048D01*
X52620079Y-45679788D01*
X52759353Y-45740635D01*
X52907793Y-45773272D01*
X52974546Y-45774670D01*
X52973981Y-45815164D01*
X53001417Y-45964653D01*
X53057367Y-46105965D01*
X53139699Y-46233719D01*
X53245277Y-46343048D01*
X53370079Y-46429788D01*
X53509353Y-46490635D01*
X53657793Y-46523272D01*
X53809745Y-46526455D01*
X53959421Y-46500063D01*
X54101121Y-46445101D01*
X54229446Y-46363663D01*
X54339510Y-46258851D01*
X54427119Y-46134657D01*
X54488937Y-45995812D01*
X54522609Y-45847603D01*
X54524919Y-45682187D01*
X56577968Y-43629139D01*
X56607268Y-43593469D01*
X56636972Y-43558069D01*
X56638240Y-43555762D01*
X56639907Y-43553733D01*
X56661714Y-43513064D01*
X56683983Y-43472556D01*
X56684778Y-43470049D01*
X56686020Y-43467733D01*
X56699522Y-43423570D01*
X56713489Y-43379541D01*
X56713782Y-43376930D01*
X56714551Y-43374414D01*
X56719216Y-43328482D01*
X56724366Y-43282566D01*
X56724402Y-43277417D01*
X56724411Y-43277330D01*
X56724403Y-43277249D01*
X56724415Y-43275585D01*
X56724415Y-35400126D01*
X56719910Y-35354174D01*
X56715883Y-35308151D01*
X56715150Y-35305627D01*
X56714893Y-35303009D01*
X56701542Y-35258791D01*
X56688658Y-35214442D01*
X56687448Y-35212107D01*
X56686688Y-35209591D01*
X56665010Y-35168820D01*
X56643751Y-35127807D01*
X56642111Y-35125752D01*
X56640876Y-35123430D01*
X56611669Y-35087620D01*
X56582870Y-35051544D01*
X56579259Y-35047882D01*
X56579200Y-35047809D01*
X56579133Y-35047753D01*
X56577969Y-35046573D01*
X54032194Y-32500798D01*
X58205854Y-32500798D01*
X58233290Y-32650287D01*
X58289240Y-32791599D01*
X58371572Y-32919353D01*
X58477150Y-33028682D01*
X58601952Y-33115422D01*
X58741226Y-33176269D01*
X58889666Y-33208906D01*
X59041618Y-33212089D01*
X59191294Y-33185697D01*
X59332994Y-33130735D01*
X59461319Y-33049297D01*
X59571383Y-32944485D01*
X59577627Y-32935634D01*
X64234790Y-32935634D01*
X64167161Y-33017384D01*
X64052187Y-33230023D01*
X63980705Y-33460945D01*
X63955437Y-33701353D01*
X63977346Y-33942090D01*
X64045597Y-34173988D01*
X64157591Y-34388212D01*
X64309061Y-34576603D01*
X64494239Y-34731986D01*
X64706071Y-34848441D01*
X64936488Y-34921534D01*
X65176713Y-34948479D01*
X65194007Y-34948600D01*
X65205993Y-34948600D01*
X65446572Y-34925011D01*
X65677987Y-34855143D01*
X65891424Y-34741656D01*
X66078753Y-34588874D01*
X66232839Y-34402616D01*
X66347813Y-34189977D01*
X66419295Y-33959055D01*
X66444563Y-33718647D01*
X66422654Y-33477910D01*
X66354403Y-33246012D01*
X66242409Y-33031788D01*
X66165099Y-32935634D01*
X66258528Y-32935634D01*
X66582904Y-33260011D01*
X66520705Y-33460945D01*
X66495437Y-33701353D01*
X66517346Y-33942090D01*
X66585597Y-34173988D01*
X66697591Y-34388212D01*
X66849061Y-34576603D01*
X67034239Y-34731986D01*
X67246071Y-34848441D01*
X67476488Y-34921534D01*
X67716713Y-34948479D01*
X67734007Y-34948600D01*
X67745993Y-34948600D01*
X67986572Y-34925011D01*
X68217987Y-34855143D01*
X68431424Y-34741656D01*
X68618753Y-34588874D01*
X68772839Y-34402616D01*
X68887813Y-34189977D01*
X68959295Y-33959055D01*
X68984563Y-33718647D01*
X68962654Y-33477910D01*
X68894403Y-33246012D01*
X68782409Y-33031788D01*
X68630939Y-32843397D01*
X68445761Y-32688014D01*
X68233929Y-32571559D01*
X68003512Y-32498466D01*
X67763287Y-32471521D01*
X67745993Y-32471400D01*
X67734007Y-32471400D01*
X67493428Y-32494989D01*
X67292699Y-32555592D01*
X66819187Y-32082081D01*
X66783542Y-32052802D01*
X66748118Y-32023077D01*
X66745811Y-32021809D01*
X66743782Y-32020142D01*
X66703113Y-31998335D01*
X66662605Y-31976066D01*
X66660098Y-31975271D01*
X66657782Y-31974029D01*
X66613619Y-31960527D01*
X66569590Y-31946560D01*
X66566979Y-31946267D01*
X66564463Y-31945498D01*
X66518487Y-31940828D01*
X66472615Y-31935683D01*
X66467477Y-31935647D01*
X66467379Y-31935637D01*
X66467288Y-31935646D01*
X66465634Y-31935634D01*
X66172433Y-31935634D01*
X66232839Y-31862616D01*
X66347813Y-31649977D01*
X66419295Y-31419055D01*
X66444563Y-31178647D01*
X66442990Y-31161353D01*
X66495437Y-31161353D01*
X66517346Y-31402090D01*
X66585597Y-31633988D01*
X66697591Y-31848212D01*
X66849061Y-32036603D01*
X67034239Y-32191986D01*
X67246071Y-32308441D01*
X67476488Y-32381534D01*
X67716713Y-32408479D01*
X67734007Y-32408600D01*
X67745993Y-32408600D01*
X67986572Y-32385011D01*
X68217987Y-32315143D01*
X68431424Y-32201656D01*
X68618753Y-32048874D01*
X68772839Y-31862616D01*
X68887813Y-31649977D01*
X68959295Y-31419055D01*
X68984563Y-31178647D01*
X68962654Y-30937910D01*
X68894403Y-30706012D01*
X68782409Y-30491788D01*
X68630939Y-30303397D01*
X68445761Y-30148014D01*
X68233929Y-30031559D01*
X68003512Y-29958466D01*
X67763287Y-29931521D01*
X67745993Y-29931400D01*
X67734007Y-29931400D01*
X67493428Y-29954989D01*
X67262013Y-30024857D01*
X67048576Y-30138344D01*
X66861247Y-30291126D01*
X66707161Y-30477384D01*
X66592187Y-30690023D01*
X66520705Y-30920945D01*
X66495437Y-31161353D01*
X66442990Y-31161353D01*
X66422654Y-30937910D01*
X66354403Y-30706012D01*
X66242409Y-30491788D01*
X66090939Y-30303397D01*
X65905761Y-30148014D01*
X65693929Y-30031559D01*
X65463512Y-29958466D01*
X65223287Y-29931521D01*
X65205993Y-29931400D01*
X65194007Y-29931400D01*
X64953428Y-29954989D01*
X64722013Y-30024857D01*
X64508576Y-30138344D01*
X64321247Y-30291126D01*
X64167161Y-30477384D01*
X64052187Y-30690023D01*
X63980705Y-30920945D01*
X63955437Y-31161353D01*
X63977346Y-31402090D01*
X64045597Y-31633988D01*
X64157591Y-31848212D01*
X64227880Y-31935634D01*
X59577608Y-31935634D01*
X59478267Y-31835597D01*
X59352265Y-31750608D01*
X59212156Y-31691711D01*
X59063275Y-31661150D01*
X58911293Y-31660089D01*
X58762000Y-31688568D01*
X58621081Y-31745503D01*
X58493905Y-31828725D01*
X58385316Y-31935063D01*
X58299449Y-32060468D01*
X58239576Y-32200163D01*
X58207976Y-32348828D01*
X58205854Y-32500798D01*
X54032194Y-32500798D01*
X50152749Y-28621353D01*
X63955437Y-28621353D01*
X63977346Y-28862090D01*
X64045597Y-29093988D01*
X64157591Y-29308212D01*
X64309061Y-29496603D01*
X64494239Y-29651986D01*
X64706071Y-29768441D01*
X64936488Y-29841534D01*
X65176713Y-29868479D01*
X65194007Y-29868600D01*
X65205993Y-29868600D01*
X65446572Y-29845011D01*
X65677987Y-29775143D01*
X65891424Y-29661656D01*
X66078753Y-29508874D01*
X66232839Y-29322616D01*
X66347813Y-29109977D01*
X66419295Y-28879055D01*
X66444563Y-28638647D01*
X66442990Y-28621353D01*
X66495437Y-28621353D01*
X66517346Y-28862090D01*
X66585597Y-29093988D01*
X66697591Y-29308212D01*
X66849061Y-29496603D01*
X67034239Y-29651986D01*
X67246071Y-29768441D01*
X67476488Y-29841534D01*
X67716713Y-29868479D01*
X67734007Y-29868600D01*
X67745993Y-29868600D01*
X67986572Y-29845011D01*
X68217987Y-29775143D01*
X68431424Y-29661656D01*
X68618753Y-29508874D01*
X68772839Y-29322616D01*
X68887813Y-29109977D01*
X68959295Y-28879055D01*
X68984563Y-28638647D01*
X68962654Y-28397910D01*
X68894403Y-28166012D01*
X68782409Y-27951788D01*
X68630939Y-27763397D01*
X68445761Y-27608014D01*
X68233929Y-27491559D01*
X68003512Y-27418466D01*
X67763287Y-27391521D01*
X67745993Y-27391400D01*
X67734007Y-27391400D01*
X67493428Y-27414989D01*
X67262013Y-27484857D01*
X67048576Y-27598344D01*
X66861247Y-27751126D01*
X66707161Y-27937384D01*
X66592187Y-28150023D01*
X66520705Y-28380945D01*
X66495437Y-28621353D01*
X66442990Y-28621353D01*
X66422654Y-28397910D01*
X66354403Y-28166012D01*
X66242409Y-27951788D01*
X66090939Y-27763397D01*
X65905761Y-27608014D01*
X65693929Y-27491559D01*
X65463512Y-27418466D01*
X65223287Y-27391521D01*
X65205993Y-27391400D01*
X65194007Y-27391400D01*
X64953428Y-27414989D01*
X64722013Y-27484857D01*
X64508576Y-27598344D01*
X64321247Y-27751126D01*
X64167161Y-27937384D01*
X64052187Y-28150023D01*
X63980705Y-28380945D01*
X63955437Y-28621353D01*
X50152749Y-28621353D01*
X47612749Y-26081353D01*
X63955437Y-26081353D01*
X63977346Y-26322090D01*
X64045597Y-26553988D01*
X64157591Y-26768212D01*
X64309061Y-26956603D01*
X64494239Y-27111986D01*
X64706071Y-27228441D01*
X64936488Y-27301534D01*
X65176713Y-27328479D01*
X65194007Y-27328600D01*
X65205993Y-27328600D01*
X65446572Y-27305011D01*
X65677987Y-27235143D01*
X65891424Y-27121656D01*
X66078753Y-26968874D01*
X66232839Y-26782616D01*
X66347813Y-26569977D01*
X66419295Y-26339055D01*
X66444563Y-26098647D01*
X66442990Y-26081353D01*
X66495437Y-26081353D01*
X66517346Y-26322090D01*
X66585597Y-26553988D01*
X66697591Y-26768212D01*
X66849061Y-26956603D01*
X67034239Y-27111986D01*
X67246071Y-27228441D01*
X67476488Y-27301534D01*
X67716713Y-27328479D01*
X67734007Y-27328600D01*
X67745993Y-27328600D01*
X67986572Y-27305011D01*
X68217987Y-27235143D01*
X68431424Y-27121656D01*
X68618753Y-26968874D01*
X68772839Y-26782616D01*
X68887813Y-26569977D01*
X68959295Y-26339055D01*
X68984563Y-26098647D01*
X68962654Y-25857910D01*
X68894403Y-25626012D01*
X68782409Y-25411788D01*
X68630939Y-25223397D01*
X68445761Y-25068014D01*
X68233929Y-24951559D01*
X68003512Y-24878466D01*
X67763287Y-24851521D01*
X67745993Y-24851400D01*
X67734007Y-24851400D01*
X67493428Y-24874989D01*
X67262013Y-24944857D01*
X67048576Y-25058344D01*
X66861247Y-25211126D01*
X66707161Y-25397384D01*
X66592187Y-25610023D01*
X66520705Y-25840945D01*
X66495437Y-26081353D01*
X66442990Y-26081353D01*
X66422654Y-25857910D01*
X66354403Y-25626012D01*
X66242409Y-25411788D01*
X66090939Y-25223397D01*
X65905761Y-25068014D01*
X65693929Y-24951559D01*
X65463512Y-24878466D01*
X65223287Y-24851521D01*
X65205993Y-24851400D01*
X65194007Y-24851400D01*
X64953428Y-24874989D01*
X64722013Y-24944857D01*
X64508576Y-25058344D01*
X64321247Y-25211126D01*
X64167161Y-25397384D01*
X64052187Y-25610023D01*
X63980705Y-25840945D01*
X63955437Y-26081353D01*
X47612749Y-26081353D01*
X45348877Y-23817481D01*
X63990627Y-23817481D01*
X64045836Y-23999492D01*
X64155704Y-24216021D01*
X64305704Y-24406956D01*
X64490071Y-24564958D01*
X64701721Y-24683956D01*
X64932519Y-24759377D01*
X65125000Y-24692581D01*
X65125000Y-23625000D01*
X65275000Y-23625000D01*
X65275000Y-24692581D01*
X65467481Y-24759377D01*
X65698279Y-24683956D01*
X65909929Y-24564958D01*
X66094296Y-24406956D01*
X66244296Y-24216021D01*
X66354164Y-23999492D01*
X66409373Y-23817481D01*
X66530627Y-23817481D01*
X66585836Y-23999492D01*
X66695704Y-24216021D01*
X66845704Y-24406956D01*
X67030071Y-24564958D01*
X67241721Y-24683956D01*
X67472519Y-24759377D01*
X67665000Y-24692581D01*
X67665000Y-23625000D01*
X67815000Y-23625000D01*
X67815000Y-24692581D01*
X68007481Y-24759377D01*
X68238279Y-24683956D01*
X68449929Y-24564958D01*
X68634296Y-24406956D01*
X68784296Y-24216021D01*
X68894164Y-23999492D01*
X68949373Y-23817481D01*
X68882391Y-23625000D01*
X67815000Y-23625000D01*
X67665000Y-23625000D01*
X66597609Y-23625000D01*
X66530627Y-23817481D01*
X66409373Y-23817481D01*
X66342391Y-23625000D01*
X65275000Y-23625000D01*
X65125000Y-23625000D01*
X64057609Y-23625000D01*
X63990627Y-23817481D01*
X45348877Y-23817481D01*
X44813915Y-23282519D01*
X63990627Y-23282519D01*
X64057609Y-23475000D01*
X65125000Y-23475000D01*
X65125000Y-22407419D01*
X65275000Y-22407419D01*
X65275000Y-23475000D01*
X66342391Y-23475000D01*
X66409373Y-23282519D01*
X66530627Y-23282519D01*
X66597609Y-23475000D01*
X67665000Y-23475000D01*
X67665000Y-22407419D01*
X67815000Y-22407419D01*
X67815000Y-23475000D01*
X68882391Y-23475000D01*
X68949373Y-23282519D01*
X68894164Y-23100508D01*
X68784296Y-22883979D01*
X68634296Y-22693044D01*
X68449929Y-22535042D01*
X68238279Y-22416044D01*
X68007481Y-22340623D01*
X67815000Y-22407419D01*
X67665000Y-22407419D01*
X67472519Y-22340623D01*
X67241721Y-22416044D01*
X67030071Y-22535042D01*
X66845704Y-22693044D01*
X66695704Y-22883979D01*
X66585836Y-23100508D01*
X66530627Y-23282519D01*
X66409373Y-23282519D01*
X66354164Y-23100508D01*
X66244296Y-22883979D01*
X66094296Y-22693044D01*
X65909929Y-22535042D01*
X65698279Y-22416044D01*
X65467481Y-22340623D01*
X65275000Y-22407419D01*
X65125000Y-22407419D01*
X64932519Y-22340623D01*
X64701721Y-22416044D01*
X64490071Y-22535042D01*
X64305704Y-22693044D01*
X64155704Y-22883979D01*
X64045836Y-23100508D01*
X63990627Y-23282519D01*
X44813915Y-23282519D01*
X38177842Y-16646447D01*
X38142197Y-16617168D01*
X38106773Y-16587443D01*
X38104466Y-16586175D01*
X38102437Y-16584508D01*
X38061768Y-16562701D01*
X38021260Y-16540432D01*
X38018753Y-16539637D01*
X38016437Y-16538395D01*
X37972274Y-16524893D01*
X37928245Y-16510926D01*
X37925634Y-16510633D01*
X37923118Y-16509864D01*
X37877142Y-16505194D01*
X37831270Y-16500049D01*
X37826132Y-16500013D01*
X37826034Y-16500003D01*
X37825943Y-16500012D01*
X37824289Y-16500000D01*
X36595735Y-16500000D01*
X36496394Y-16399963D01*
X36370392Y-16314974D01*
X36230283Y-16256077D01*
X36081402Y-16225516D01*
X35929420Y-16224455D01*
X35780127Y-16252934D01*
X35639208Y-16309869D01*
X35512032Y-16393091D01*
X35403443Y-16499429D01*
X35317576Y-16624834D01*
X35257703Y-16764529D01*
X35226103Y-16913194D01*
X35223981Y-17065164D01*
X35251417Y-17214653D01*
X35307367Y-17355965D01*
X35389699Y-17483719D01*
X35495277Y-17593048D01*
X35620079Y-17679788D01*
X35759353Y-17740635D01*
X35907793Y-17773272D01*
X36059745Y-17776455D01*
X36209421Y-17750063D01*
X36351121Y-17695101D01*
X36479446Y-17613663D01*
X36589510Y-17508851D01*
X36595754Y-17500000D01*
X37617183Y-17500000D01*
X55724415Y-35607233D01*
X55724415Y-35623954D01*
X55723984Y-35623517D01*
X43746913Y-23646447D01*
X43711268Y-23617168D01*
X43675844Y-23587443D01*
X43673537Y-23586175D01*
X43671508Y-23584508D01*
X43630839Y-23562701D01*
X43590331Y-23540432D01*
X43587824Y-23539637D01*
X43585508Y-23538395D01*
X43541345Y-23524893D01*
X43497316Y-23510926D01*
X43494705Y-23510633D01*
X43492189Y-23509864D01*
X43446213Y-23505194D01*
X43400341Y-23500049D01*
X43395203Y-23500013D01*
X43395105Y-23500003D01*
X43395014Y-23500012D01*
X43393360Y-23500000D01*
X36595735Y-23500000D01*
X36496394Y-23399963D01*
X36370392Y-23314974D01*
X36230283Y-23256077D01*
X36081402Y-23225516D01*
X35929420Y-23224455D01*
X35780127Y-23252934D01*
X35639208Y-23309869D01*
X35512032Y-23393091D01*
X35403443Y-23499429D01*
X35317576Y-23624834D01*
X35257703Y-23764529D01*
X35226103Y-23913194D01*
X35223981Y-24065164D01*
X35251417Y-24214653D01*
X35307367Y-24355965D01*
X35389699Y-24483719D01*
X35495277Y-24593048D01*
X35620079Y-24679788D01*
X35759353Y-24740635D01*
X35907793Y-24773272D01*
X36059745Y-24776455D01*
X36209421Y-24750063D01*
X36351121Y-24695101D01*
X36479446Y-24613663D01*
X36589510Y-24508851D01*
X36595754Y-24500000D01*
X43186254Y-24500000D01*
X53663706Y-34977453D01*
X53530127Y-35002934D01*
X53389208Y-35059869D01*
X53262032Y-35143091D01*
X53153443Y-35249429D01*
X53067576Y-35374834D01*
X53007703Y-35514529D01*
X52976103Y-35663194D01*
X52975243Y-35724775D01*
X52929420Y-35724455D01*
X52780127Y-35752934D01*
X52639208Y-35809869D01*
X52512032Y-35893091D01*
X52403443Y-35999429D01*
X52317576Y-36124834D01*
X52257703Y-36264529D01*
X52226103Y-36413194D01*
X52225004Y-36491897D01*
X46379554Y-30646447D01*
X46343909Y-30617168D01*
X46308485Y-30587443D01*
X46306178Y-30586175D01*
X46304149Y-30584508D01*
X46263480Y-30562701D01*
X46222972Y-30540432D01*
X46220465Y-30539637D01*
X46218149Y-30538395D01*
X46173986Y-30524893D01*
X46129957Y-30510926D01*
X46127346Y-30510633D01*
X46124830Y-30509864D01*
X46078854Y-30505194D01*
X46032982Y-30500049D01*
X46027844Y-30500013D01*
X46027746Y-30500003D01*
X46027655Y-30500012D01*
X46026001Y-30500000D01*
X36595735Y-30500000D01*
X36496394Y-30399963D01*
X36370392Y-30314974D01*
X36230283Y-30256077D01*
X36081402Y-30225516D01*
X35929420Y-30224455D01*
X35780127Y-30252934D01*
X35639208Y-30309869D01*
X35512032Y-30393091D01*
X35403443Y-30499429D01*
X35317576Y-30624834D01*
X35257703Y-30764529D01*
X35226103Y-30913194D01*
X35223981Y-31065164D01*
X35251417Y-31214653D01*
X35307367Y-31355965D01*
X35389699Y-31483719D01*
X35495277Y-31593048D01*
X35620079Y-31679788D01*
X35759353Y-31740635D01*
X35907793Y-31773272D01*
X36059745Y-31776455D01*
X36209421Y-31750063D01*
X36351121Y-31695101D01*
X36479446Y-31613663D01*
X36589510Y-31508851D01*
X36595754Y-31500000D01*
X45818895Y-31500000D01*
X50068895Y-35750000D01*
X37750000Y-35750000D01*
X37704048Y-35754505D01*
X37658025Y-35758532D01*
X37655501Y-35759265D01*
X37652883Y-35759522D01*
X37608665Y-35772873D01*
X37564316Y-35785757D01*
X37561981Y-35786967D01*
X37559465Y-35787727D01*
X37518694Y-35809405D01*
X37477681Y-35830664D01*
X37475626Y-35832304D01*
X37473304Y-35833539D01*
X37437494Y-35862746D01*
X37401418Y-35891545D01*
X37397756Y-35895156D01*
X37397683Y-35895215D01*
X37397627Y-35895282D01*
X37396447Y-35896446D01*
X36067475Y-37225419D01*
X35929420Y-37224455D01*
X35780127Y-37252934D01*
X35639208Y-37309869D01*
X35512032Y-37393091D01*
X35403443Y-37499429D01*
X35317576Y-37624834D01*
X35257703Y-37764529D01*
X35226103Y-37913194D01*
X35223981Y-38065164D01*
X35251417Y-38214653D01*
X35307367Y-38355965D01*
X35389699Y-38483719D01*
X35495277Y-38593048D01*
X35620079Y-38679788D01*
X35759353Y-38740635D01*
X35907793Y-38773272D01*
X36059745Y-38776455D01*
X36209421Y-38750063D01*
X36351121Y-38695101D01*
X36479446Y-38613663D01*
X36589510Y-38508851D01*
X36677119Y-38384657D01*
X36738937Y-38245812D01*
X36772609Y-38097603D01*
X36774919Y-37932187D01*
X37957107Y-36750000D01*
X50026149Y-36750000D01*
X51001104Y-37724955D01*
X50929420Y-37724455D01*
X50780127Y-37752934D01*
X50639208Y-37809869D01*
X50512032Y-37893091D01*
X50403443Y-37999429D01*
X50403052Y-38000000D01*
X40250000Y-38000000D01*
X40204052Y-38004505D01*
X40158025Y-38008532D01*
X40155501Y-38009265D01*
X40152883Y-38009522D01*
X40108665Y-38022873D01*
X40064316Y-38035757D01*
X40061981Y-38036967D01*
X40059465Y-38037727D01*
X40018694Y-38059405D01*
X39977681Y-38080664D01*
X39975626Y-38082304D01*
X39973304Y-38083539D01*
X39937494Y-38112746D01*
X39901418Y-38141545D01*
X39897760Y-38145152D01*
X39897683Y-38145215D01*
X39897624Y-38145286D01*
X39896447Y-38146447D01*
X33832964Y-44209930D01*
X33803685Y-44245575D01*
X33773960Y-44280999D01*
X33772692Y-44283306D01*
X33771025Y-44285335D01*
X33749218Y-44326004D01*
X33726949Y-44366512D01*
X33726154Y-44369019D01*
X33724912Y-44371335D01*
X33711410Y-44415498D01*
X33697443Y-44459527D01*
X33697150Y-44462138D01*
X33696381Y-44464654D01*
X33691711Y-44510630D01*
X33686566Y-44556502D01*
X33686530Y-44561640D01*
X33686520Y-44561738D01*
X33686529Y-44561829D01*
X33686517Y-44563483D01*
X12132821Y-44563483D01*
X12045876Y-44432877D01*
X11720050Y-44258949D01*
X11366552Y-44151928D01*
X10998968Y-44115927D01*
X10631423Y-44152330D01*
X10278043Y-44259738D01*
X9954124Y-44432877D01*
X9788196Y-44682130D01*
X8173936Y-44682130D01*
X8070704Y-44526755D01*
X7880699Y-44335418D01*
X7657148Y-44184631D01*
X7408566Y-44080137D01*
X7144422Y-44025916D01*
X6874777Y-44024033D01*
X6609902Y-44074561D01*
X6359886Y-44175574D01*
X6134251Y-44323225D01*
X5941592Y-44511891D01*
X5789248Y-44734384D01*
X5683021Y-44982230D01*
X5626958Y-45245989D01*
X5623193Y-45515614D01*
X5539383Y-45515614D01*
X5618445Y-45167622D01*
X5625091Y-44691633D01*
X5544147Y-44282836D01*
X5385342Y-43897546D01*
X5154725Y-43550439D01*
X4861080Y-43254737D01*
X4515592Y-43021702D01*
X4131420Y-42860211D01*
X3723198Y-42776415D01*
X3306474Y-42773506D01*
X2897121Y-42851594D01*
X2510732Y-43007705D01*
X2162024Y-43235894D01*
X1864279Y-43527467D01*
X1628838Y-43871320D01*
X1464669Y-44254355D01*
X1378025Y-44661982D01*
X1372207Y-45078676D01*
X450000Y-45078676D01*
X450000Y-36178676D01*
X1372207Y-36178676D01*
X1447435Y-36588563D01*
X1600845Y-36976033D01*
X1826593Y-37326326D01*
X2116081Y-37626099D01*
X2458282Y-37863935D01*
X2840162Y-38030774D01*
X3247174Y-38120261D01*
X3663817Y-38128989D01*
X4074220Y-38056624D01*
X4462751Y-37905922D01*
X4814611Y-37682625D01*
X5116398Y-37395237D01*
X5356617Y-37054705D01*
X5526118Y-36674000D01*
X5618445Y-36267622D01*
X5625091Y-35791633D01*
X5590239Y-35615614D01*
X5623193Y-35615614D01*
X5671870Y-35880835D01*
X5771135Y-36131551D01*
X5917208Y-36358211D01*
X6104523Y-36552182D01*
X6325947Y-36706075D01*
X6573046Y-36814030D01*
X6836407Y-36871934D01*
X7105999Y-36877581D01*
X7371554Y-36830756D01*
X7622956Y-36733244D01*
X7850631Y-36588757D01*
X8045904Y-36402801D01*
X8201340Y-36182456D01*
X8311017Y-35936117D01*
X8370758Y-35673167D01*
X8375059Y-35365174D01*
X8322683Y-35100658D01*
X8304959Y-35057655D01*
X9122536Y-35057655D01*
X9188914Y-35419321D01*
X9324276Y-35761205D01*
X9523465Y-36070287D01*
X9778895Y-36334793D01*
X10080837Y-36544648D01*
X10417790Y-36691859D01*
X10776918Y-36770819D01*
X11144544Y-36778519D01*
X11506664Y-36714668D01*
X11849486Y-36581696D01*
X12159951Y-36384669D01*
X12426233Y-36131091D01*
X12638191Y-35830622D01*
X12787751Y-35494706D01*
X12869216Y-35136137D01*
X12875080Y-34716147D01*
X12803659Y-34355443D01*
X12663537Y-34015482D01*
X12460051Y-33709211D01*
X12200953Y-33448298D01*
X11896110Y-33242679D01*
X11557135Y-33100187D01*
X11196939Y-33026249D01*
X10829242Y-33023682D01*
X10468048Y-33092583D01*
X10127117Y-33230329D01*
X9819433Y-33431671D01*
X9556717Y-33688942D01*
X9348975Y-33992341D01*
X9204120Y-34330313D01*
X9127670Y-34689985D01*
X9122536Y-35057655D01*
X8304959Y-35057655D01*
X8219927Y-34851353D01*
X8070704Y-34626755D01*
X7880699Y-34435418D01*
X7657148Y-34284631D01*
X7408566Y-34180137D01*
X7144422Y-34125916D01*
X6874777Y-34124033D01*
X6609902Y-34174561D01*
X6359886Y-34275574D01*
X6134251Y-34423225D01*
X5941592Y-34611891D01*
X5789248Y-34834384D01*
X5683021Y-35082230D01*
X5626958Y-35345989D01*
X5623193Y-35615614D01*
X5590239Y-35615614D01*
X5544147Y-35382836D01*
X5385342Y-34997546D01*
X5154725Y-34650439D01*
X4861080Y-34354737D01*
X4515592Y-34121702D01*
X4131420Y-33960211D01*
X3723198Y-33876415D01*
X3306474Y-33873506D01*
X2897121Y-33951594D01*
X2510732Y-34107705D01*
X2162024Y-34335894D01*
X1864279Y-34627467D01*
X1628838Y-34971320D01*
X1464669Y-35354355D01*
X1378025Y-35761982D01*
X1372207Y-36178676D01*
X450000Y-36178676D01*
X450000Y-32417870D01*
X9788196Y-32417870D01*
X9954124Y-32667123D01*
X10279950Y-32841051D01*
X10633448Y-32948072D01*
X11001032Y-32984073D01*
X11368577Y-32947670D01*
X11721957Y-32840262D01*
X12045876Y-32667123D01*
X12211804Y-32417870D01*
X11000000Y-31206066D01*
X9788196Y-32417870D01*
X450000Y-32417870D01*
X450000Y-30178676D01*
X1372207Y-30178676D01*
X1447435Y-30588563D01*
X1600845Y-30976033D01*
X1826593Y-31326326D01*
X2116081Y-31626099D01*
X2458282Y-31863935D01*
X2840162Y-32030774D01*
X3247174Y-32120261D01*
X3663817Y-32128989D01*
X4074220Y-32056624D01*
X4462751Y-31905922D01*
X4814611Y-31682625D01*
X5116398Y-31395237D01*
X5356617Y-31054705D01*
X5526118Y-30674000D01*
X5539383Y-30615614D01*
X5623193Y-30615614D01*
X5671870Y-30880835D01*
X5771135Y-31131551D01*
X5917208Y-31358211D01*
X6104523Y-31552182D01*
X6325947Y-31706075D01*
X6573046Y-31814030D01*
X6836407Y-31871934D01*
X7105999Y-31877581D01*
X7371554Y-31830756D01*
X7622956Y-31733244D01*
X7850631Y-31588757D01*
X8045904Y-31402801D01*
X8201340Y-31182456D01*
X8237592Y-31101032D01*
X9115927Y-31101032D01*
X9152330Y-31468577D01*
X9259738Y-31821957D01*
X9432877Y-32145876D01*
X9682130Y-32311804D01*
X10893934Y-31100000D01*
X11106066Y-31100000D01*
X12317870Y-32311804D01*
X12567123Y-32145876D01*
X12741051Y-31820050D01*
X12848072Y-31466552D01*
X12884073Y-31098968D01*
X12847670Y-30731423D01*
X12740262Y-30378043D01*
X12567123Y-30054124D01*
X12317870Y-29888196D01*
X11106066Y-31100000D01*
X10893934Y-31100000D01*
X9682130Y-29888196D01*
X9432877Y-30054124D01*
X9258949Y-30379950D01*
X9151928Y-30733448D01*
X9115927Y-31101032D01*
X8237592Y-31101032D01*
X8311017Y-30936117D01*
X8370758Y-30673167D01*
X8375059Y-30365174D01*
X8322683Y-30100658D01*
X8219927Y-29851353D01*
X8173936Y-29782130D01*
X9788196Y-29782130D01*
X11000000Y-30993934D01*
X12211804Y-29782130D01*
X12045876Y-29532877D01*
X11720050Y-29358949D01*
X11366552Y-29251928D01*
X10998968Y-29215927D01*
X10631423Y-29252330D01*
X10278043Y-29359738D01*
X9954124Y-29532877D01*
X9788196Y-29782130D01*
X8173936Y-29782130D01*
X8070704Y-29626755D01*
X7880699Y-29435418D01*
X7657148Y-29284631D01*
X7408566Y-29180137D01*
X7144422Y-29125916D01*
X6874777Y-29124033D01*
X6609902Y-29174561D01*
X6359886Y-29275574D01*
X6134251Y-29423225D01*
X5941592Y-29611891D01*
X5789248Y-29834384D01*
X5683021Y-30082230D01*
X5626958Y-30345989D01*
X5623193Y-30615614D01*
X5539383Y-30615614D01*
X5618445Y-30267622D01*
X5625091Y-29791633D01*
X5544147Y-29382836D01*
X5385342Y-28997546D01*
X5154725Y-28650439D01*
X4861080Y-28354737D01*
X4515592Y-28121702D01*
X4131420Y-27960211D01*
X3723198Y-27876415D01*
X3306474Y-27873506D01*
X2897121Y-27951594D01*
X2510732Y-28107705D01*
X2162024Y-28335894D01*
X1864279Y-28627467D01*
X1628838Y-28971320D01*
X1464669Y-29354355D01*
X1378025Y-29761982D01*
X1372207Y-30178676D01*
X450000Y-30178676D01*
X450000Y-22078676D01*
X1372207Y-22078676D01*
X1447435Y-22488563D01*
X1600845Y-22876033D01*
X1826593Y-23226326D01*
X2116081Y-23526099D01*
X2458282Y-23763935D01*
X2840162Y-23930774D01*
X3247174Y-24020261D01*
X3663817Y-24028989D01*
X4074220Y-23956624D01*
X4462751Y-23805922D01*
X4814611Y-23582625D01*
X5116398Y-23295237D01*
X5356617Y-22954705D01*
X5526118Y-22574000D01*
X5618445Y-22167622D01*
X5625091Y-21691633D01*
X5590239Y-21515614D01*
X5623193Y-21515614D01*
X5671870Y-21780835D01*
X5771135Y-22031551D01*
X5917208Y-22258211D01*
X6104523Y-22452182D01*
X6325947Y-22606075D01*
X6573046Y-22714030D01*
X6836407Y-22771934D01*
X7105999Y-22777581D01*
X7371554Y-22730756D01*
X7622956Y-22633244D01*
X7850631Y-22488757D01*
X8045904Y-22302801D01*
X8201340Y-22082456D01*
X8311017Y-21836117D01*
X8370758Y-21573167D01*
X8375059Y-21265174D01*
X8322683Y-21000658D01*
X8304959Y-20957655D01*
X9122536Y-20957655D01*
X9188914Y-21319321D01*
X9324276Y-21661205D01*
X9523465Y-21970287D01*
X9778895Y-22234793D01*
X10080837Y-22444648D01*
X10417790Y-22591859D01*
X10776918Y-22670819D01*
X11144544Y-22678519D01*
X11506664Y-22614668D01*
X11849486Y-22481696D01*
X12159951Y-22284669D01*
X12426233Y-22031091D01*
X12638191Y-21730622D01*
X12787751Y-21394706D01*
X12869216Y-21036137D01*
X12875080Y-20616147D01*
X12803659Y-20255443D01*
X12663537Y-19915482D01*
X12460051Y-19609211D01*
X12200953Y-19348298D01*
X11896110Y-19142679D01*
X11557135Y-19000187D01*
X11196939Y-18926249D01*
X10829242Y-18923682D01*
X10468048Y-18992583D01*
X10127117Y-19130329D01*
X9819433Y-19331671D01*
X9556717Y-19588942D01*
X9348975Y-19892341D01*
X9204120Y-20230313D01*
X9127670Y-20589985D01*
X9122536Y-20957655D01*
X8304959Y-20957655D01*
X8219927Y-20751353D01*
X8070704Y-20526755D01*
X7880699Y-20335418D01*
X7657148Y-20184631D01*
X7408566Y-20080137D01*
X7144422Y-20025916D01*
X6874777Y-20024033D01*
X6609902Y-20074561D01*
X6359886Y-20175574D01*
X6134251Y-20323225D01*
X5941592Y-20511891D01*
X5789248Y-20734384D01*
X5683021Y-20982230D01*
X5626958Y-21245989D01*
X5623193Y-21515614D01*
X5590239Y-21515614D01*
X5544147Y-21282836D01*
X5385342Y-20897546D01*
X5154725Y-20550439D01*
X4861080Y-20254737D01*
X4515592Y-20021702D01*
X4131420Y-19860211D01*
X3723198Y-19776415D01*
X3306474Y-19773506D01*
X2897121Y-19851594D01*
X2510732Y-20007705D01*
X2162024Y-20235894D01*
X1864279Y-20527467D01*
X1628838Y-20871320D01*
X1464669Y-21254355D01*
X1378025Y-21661982D01*
X1372207Y-22078676D01*
X450000Y-22078676D01*
X450000Y-18317870D01*
X9788196Y-18317870D01*
X9954124Y-18567123D01*
X10279950Y-18741051D01*
X10633448Y-18848072D01*
X11001032Y-18884073D01*
X11368577Y-18847670D01*
X11721957Y-18740262D01*
X12045876Y-18567123D01*
X12211804Y-18317870D01*
X11000000Y-17106066D01*
X9788196Y-18317870D01*
X450000Y-18317870D01*
X450000Y-16078676D01*
X1372207Y-16078676D01*
X1447435Y-16488563D01*
X1600845Y-16876033D01*
X1826593Y-17226326D01*
X2116081Y-17526099D01*
X2458282Y-17763935D01*
X2840162Y-17930774D01*
X3247174Y-18020261D01*
X3663817Y-18028989D01*
X4074220Y-17956624D01*
X4462751Y-17805922D01*
X4814611Y-17582625D01*
X5116398Y-17295237D01*
X5356617Y-16954705D01*
X5526118Y-16574000D01*
X5539383Y-16515614D01*
X5623193Y-16515614D01*
X5671870Y-16780835D01*
X5771135Y-17031551D01*
X5917208Y-17258211D01*
X6104523Y-17452182D01*
X6325947Y-17606075D01*
X6573046Y-17714030D01*
X6836407Y-17771934D01*
X7105999Y-17777581D01*
X7371554Y-17730756D01*
X7622956Y-17633244D01*
X7850631Y-17488757D01*
X8045904Y-17302801D01*
X8201340Y-17082456D01*
X8237592Y-17001032D01*
X9115927Y-17001032D01*
X9152330Y-17368577D01*
X9259738Y-17721957D01*
X9432877Y-18045876D01*
X9682130Y-18211804D01*
X10893934Y-17000000D01*
X11106066Y-17000000D01*
X12317870Y-18211804D01*
X12567123Y-18045876D01*
X12741051Y-17720050D01*
X12848072Y-17366552D01*
X12884073Y-16998968D01*
X12847670Y-16631423D01*
X12740262Y-16278043D01*
X12567123Y-15954124D01*
X12317870Y-15788196D01*
X11106066Y-17000000D01*
X10893934Y-17000000D01*
X9682130Y-15788196D01*
X9432877Y-15954124D01*
X9258949Y-16279950D01*
X9151928Y-16633448D01*
X9115927Y-17001032D01*
X8237592Y-17001032D01*
X8311017Y-16836117D01*
X8370758Y-16573167D01*
X8375059Y-16265174D01*
X8322683Y-16000658D01*
X8219927Y-15751353D01*
X8173936Y-15682130D01*
X9788196Y-15682130D01*
X11000000Y-16893934D01*
X12211804Y-15682130D01*
X12045876Y-15432877D01*
X11720050Y-15258949D01*
X11366552Y-15151928D01*
X10998968Y-15115927D01*
X10631423Y-15152330D01*
X10278043Y-15259738D01*
X9954124Y-15432877D01*
X9788196Y-15682130D01*
X8173936Y-15682130D01*
X8070704Y-15526755D01*
X7880699Y-15335418D01*
X7657148Y-15184631D01*
X7408566Y-15080137D01*
X7144422Y-15025916D01*
X6874777Y-15024033D01*
X6609902Y-15074561D01*
X6359886Y-15175574D01*
X6134251Y-15323225D01*
X5941592Y-15511891D01*
X5789248Y-15734384D01*
X5683021Y-15982230D01*
X5626958Y-16245989D01*
X5623193Y-16515614D01*
X5539383Y-16515614D01*
X5618445Y-16167622D01*
X5625091Y-15691633D01*
X5544147Y-15282836D01*
X5385342Y-14897546D01*
X5154725Y-14550439D01*
X4861080Y-14254737D01*
X4515592Y-14021702D01*
X4131420Y-13860211D01*
X3723198Y-13776415D01*
X3306474Y-13773506D01*
X2897121Y-13851594D01*
X2510732Y-14007705D01*
X2162024Y-14235894D01*
X1864279Y-14527467D01*
X1628838Y-14871320D01*
X1464669Y-15254355D01*
X1378025Y-15661982D01*
X1372207Y-16078676D01*
X450000Y-16078676D01*
X450000Y-5483779D01*
X1820564Y-5483779D01*
X1940044Y-6134777D01*
X2183696Y-6750170D01*
X2542237Y-7306517D01*
X3002012Y-7782628D01*
X3545507Y-8160367D01*
X4152021Y-8425346D01*
X4798453Y-8567474D01*
X5460180Y-8581335D01*
X6111996Y-8466402D01*
X6729075Y-8227053D01*
X7287911Y-7872405D01*
X7767220Y-7415965D01*
X8148744Y-6875120D01*
X8417952Y-6270470D01*
X8564588Y-5625046D01*
X8566560Y-5483779D01*
X61820564Y-5483779D01*
X61940044Y-6134777D01*
X62183696Y-6750170D01*
X62542237Y-7306517D01*
X63002012Y-7782628D01*
X63545507Y-8160367D01*
X64152021Y-8425346D01*
X64798453Y-8567474D01*
X65460180Y-8581335D01*
X66111996Y-8466402D01*
X66729075Y-8227053D01*
X67287911Y-7872405D01*
X67767220Y-7415965D01*
X68148744Y-6875120D01*
X68417952Y-6270470D01*
X68564588Y-5625046D01*
X68575145Y-4869064D01*
X68446586Y-4219798D01*
X68194367Y-3607867D01*
X67828092Y-3056580D01*
X67361715Y-2586935D01*
X66812999Y-2216821D01*
X66202844Y-1960336D01*
X65554491Y-1827248D01*
X64892635Y-1822627D01*
X64242487Y-1946650D01*
X63628810Y-2194591D01*
X63074980Y-2557008D01*
X62602090Y-3020095D01*
X62228155Y-3566214D01*
X61967416Y-4174564D01*
X61829805Y-4821972D01*
X61820564Y-5483779D01*
X8566560Y-5483779D01*
X8575145Y-4869064D01*
X8446586Y-4219798D01*
X8194367Y-3607867D01*
X7828092Y-3056580D01*
X7361715Y-2586935D01*
X6812999Y-2216821D01*
X6202844Y-1960336D01*
X5554491Y-1827248D01*
X4892635Y-1822627D01*
X4242487Y-1946650D01*
X3628810Y-2194591D01*
X3074980Y-2557008D01*
X2602090Y-3020095D01*
X2228155Y-3566214D01*
X1967416Y-4174564D01*
X1829805Y-4821972D01*
X1820564Y-5483779D01*
X450000Y-5483779D01*
X450000Y-450000D01*
X69950000Y-450000D01*
X69950000Y-83950000D01*
M02*
